<?xml version="1.0" encoding="UTF-8"?>
<!DOCTYPE svg PUBLIC "-//W3C//DTD SVG 1.1//EN" "http://www.w3.org/Graphics/SVG/1.1/DTD/svg11.dtd">
<!-- Creator: CorelDRAW X7 -->
<svg xmlns="http://www.w3.org/2000/svg" xml:space="preserve" width="3510px" height="2483px" version="1.1" shape-rendering="geometricPrecision" text-rendering="geometricPrecision" image-rendering="optimizeQuality" fill-rule="evenodd" clip-rule="evenodd"
viewBox="0 0 3510 2483"
 xmlns:xlink="http://www.w3.org/1999/xlink">
 <g id="Camada_x0020_1">
  <metadata id="CorelCorpID_0Corel-Layer"/>
  <rect fill="black" stroke="black" stroke-width="2.36205" x="1" y="1" width="3508" height="2480"/>
  <rect fill="none" stroke="black" stroke-width="2.36205" x="1" y="1" width="3508" height="2480"/>
  <path fill="#CCCCCC" d="M1778 508l17 0 0 -66 13 0 0 66 17 1 0 -67 14 0 0 67 1 0 16 0 0 -67 13 0 0 67c6,0 11,0 17,0l0 -67 0 -153 14 0 0 0 45 0 -2 -1 14 0 167 154 -13 0 -154 -141 0 2 -57 0 0 139 0 67c5,0 11,0 16,0l0 -67 14 0 0 67 6 -1 11 0 0 -60 -38 -40 2 -3 0 -59 14 0 0 59 34 37 1 0 0 1 2 2 -2 2 0 61 45 -2 1 69c1,35 1,71 0,107 54,10 106,28 152,60 22,16 42,36 57,58l140 0 0 14 -131 0c6,9 10,20 14,30l71 0 0 13 -66 0c2,8 4,16 6,24l60 0 0 14 -58 0c0,6 1,13 1,20l57 0 0 13 -57 0c0,8 -1,16 -1,24l58 0 0 14 -60 0c-6,32 -18,62 -35,90 25,20 47,45 62,75 5,9 9,18 12,27l117 0 0 14 -112 0c3,12 5,24 7,37l121 0 0 13 0 0 -1 510 60 66 -10 9 -61 -68 -2 0 0 -517 -106 0c1,8 1,16 1,24l55 0 0 14 -56 0c0,6 0,13 -1,20l57 0 0 13 -58 0c-1,8 -2,16 -4,24l62 0 0 13 -64 0c-2,7 -4,14 -6,21l70 0 0 13 -74 0c-2,5 -4,9 -6,14l74 0 0 13 -80 0c-15,32 -36,60 -63,83 -58,48 -129,67 -202,72 0,33 1,67 0,100l-2 61 -28 2 0 112 -14 0 0 -111 -16 1 0 98 -12 0 0 73 -14 0 0 -80 12 0 0 -90c-6,0 -11,1 -17,1l0 59 -13 0 0 -59c-6,0 -12,0 -17,0l0 59 -14 0 0 -60c-5,0 -11,0 -17,0l0 94 13 0 0 190 -6 0 0 85 -14 0 0 -94 7 0 0 -175 -13 0 0 -99 -1 0 -2 0 0 0 -6 0 -8 0 0 280 -14 0 0 -280 -16 1 0 329 20 29 0 0 2 0 0 21c8,3 13,10 13,18 0,11 -9,20 -20,20 -11,0 -19,-9 -19,-20 0,-8 5,-15 13,-18l0 -14 -23 -31 2 -1 -2 0 0 -333 -9 1 0 -2 -8 0 0 350 -13 0 0 -350 -17 0 0 59 -14 0 0 -60c-5,0 -11,0 -17,1l0 59 -13 0 0 -59c-6,0 -11,0 -16,0l-1 0 0 59 -14 0 0 -59 -16 0 0 59 -14 0 0 -59 -23 1 -1 -68c-1,-33 0,-66 0,-99 -43,0 -85,0 -127,0l-69 -1 0 -13 -73 0 0 -13 74 0 1 -24 -75 0 0 -14 75 0 0 -5 1 -15 -94 0 0 362 -43 56 0 2 -59 0 0 -13 54 0 35 -45 0 -374 2 0 0 -1 105 0c0,-8 1,-16 1,-24l-77 0 0 -13 77 0c1,-7 1,-14 1,-21l-78 0 0 -13 79 0 0 -8 1 -16 -80 0 0 -13 81 0 1 -35 65 0c15,0 31,0 47,0 0,-131 -1,-263 0,-395 -19,0 -39,0 -58,0l-65 0 -1 -23 -70 0 0 -14 70 0 -1 -23 -69 0 0 -14 69 0c0,-7 -1,-13 -1,-20l-68 0 0 -14 68 0c0,-7 0,-15 0,-23l-68 0 0 -14 68 0c0,-6 1,-13 1,-20l-120 0 1 516 -4 6 -56 53 -9 -10 55 -52 -1 -526 11 0 0 -1 123 0 2 -37 -114 0 0 -13 115 0 1 -12 64 0c44,0 88,0 132,0 -1,-32 -1,-63 0,-95l1 -69 38 1 0 -8 -171 0 0 -8 -7 0 0 -65 10 0 0 -130 76 0 0 87 23 0 0 -87 8 0 0 -119 13 0 0 119 54 0 0 75 38 25 0 1 0 112c5,0 11,0 17,0l0 -67 13 0 0 67c6,0 11,0 17,0l0 -67 14 0 0 67c5,0 11,0 16,0l0 -67 14 0 0 66zm-135 -22l0 -44 13 0 0 66 17 0 0 -105 -24 -16 0 45 -75 0 0 -35 -23 0 0 35 -72 0 0 54 164 0z"/>
  <g id="_815725760">
   <path fill="#999999" d="M1634 1764c11,0 20,8 20,19 0,11 -9,20 -20,20 -11,0 -20,-9 -20,-20 0,-11 9,-19 20,-19z"/>
   <path fill="#999999" d="M1215 1856c11,0 20,9 20,20 0,10 -9,19 -20,19 -11,0 -19,-9 -19,-19 0,-11 8,-20 19,-20z"/>
   <path fill="#999999" d="M1221 1296c11,0 19,9 19,20 0,11 -8,20 -19,20 -11,0 -20,-9 -20,-20 0,-11 9,-20 20,-20z"/>
   <path fill="#999999" d="M1879 1764c11,0 19,8 19,19 0,11 -8,20 -19,20 -11,0 -20,-9 -20,-20 0,-11 9,-19 20,-19z"/>
   <path fill="#999999" d="M1969 1818c11,0 20,9 20,20 0,11 -9,19 -20,19 -10,0 -19,-8 -19,-19 0,-11 9,-20 19,-20z"/>
   <path fill="#999999" d="M2475 1783c11,0 20,9 20,20 0,11 -9,19 -20,19 -11,0 -19,-8 -19,-19 0,-11 8,-20 19,-20z"/>
   <path fill="#999999" d="M2351 1365c11,0 20,9 20,20 0,10 -9,19 -20,19 -11,0 -20,-9 -20,-19 0,-11 9,-20 20,-20z"/>
   <path fill="#999999" d="M2405 1145c11,0 19,9 19,20 0,11 -8,20 -19,20 -11,0 -20,-9 -20,-20 0,-11 9,-20 20,-20z"/>
   <path fill="#999999" d="M2355 787c11,0 20,9 20,20 0,11 -9,20 -20,20 -11,0 -20,-9 -20,-20 0,-11 9,-20 20,-20z"/>
   <path fill="#999999" d="M2118 422c11,0 19,9 19,20 0,11 -8,20 -19,20 -11,0 -20,-9 -20,-20 0,-11 9,-20 20,-20z"/>
   <path fill="#999999" d="M1589 157c10,0 19,9 19,20 0,11 -9,19 -19,19 -11,0 -20,-8 -20,-19 0,-11 9,-20 20,-20z"/>
   <path fill="#999999" d="M1918 326c11,0 20,9 20,20 0,11 -9,19 -20,19 -11,0 -20,-8 -20,-19 0,-11 9,-20 20,-20z"/>
   <path fill="#999999" d="M1292 669c10,0 19,9 19,20 0,10 -9,19 -19,19 -11,0 -20,-9 -20,-19 0,-11 9,-20 20,-20z"/>
   <path fill="#999999" d="M1927 1872c11,0 20,9 20,20 0,11 -9,20 -20,20 -11,0 -19,-9 -19,-20 0,-11 8,-20 19,-20z"/>
   <path fill="#999999" d="M1817 1977c11,0 20,9 20,19 0,11 -9,20 -20,20 -11,0 -19,-9 -19,-20 0,-10 8,-19 19,-19z"/>
   <path fill="#999999" d="M1756 2043c11,0 20,9 20,20 0,11 -9,20 -20,20 -10,0 -19,-9 -19,-20 0,-11 9,-20 19,-20z"/>
   <path fill="#999999" d="M1854 2061c11,0 20,9 20,20 0,11 -9,20 -20,20 -11,0 -20,-9 -20,-20 0,-11 9,-20 20,-20z"/>
  </g>
  <g id="_815726464">
   <path fill="#999999" fill-rule="nonzero" d="M514 314c0,6 -1,10 -3,14 -2,3 -6,4 -9,4 -4,0 -8,-1 -10,-4 -2,-4 -3,-8 -3,-14 0,-3 0,-5 1,-8 0,-2 1,-4 2,-5 1,-2 3,-3 4,-4 2,-1 4,-1 6,-1 3,0 7,1 9,5 2,3 3,7 3,13zm-8 0c0,-2 0,-3 0,-5 0,-1 0,-2 -1,-3 0,-1 0,-2 -1,-3 -1,0 -2,-1 -2,-1 -1,0 -2,1 -3,1 0,1 -1,2 -1,3 -1,1 -1,2 -1,3 0,2 0,3 0,5 0,2 0,3 0,5 0,1 0,3 1,4 0,1 1,1 1,2 1,1 2,1 3,1 0,0 1,0 2,-1 1,-1 1,-1 1,-2 1,-1 1,-3 1,-4 0,-2 0,-3 0,-5zm25 -10c1,0 2,-1 3,-1 2,-1 3,-1 4,-2 1,-1 2,-1 2,-2 1,-1 2,-1 3,-2l5 0 0 35 -7 0 0 -25c-1,0 -2,1 -4,1 -1,1 -2,1 -3,2l-3 -6zm65 10c0,6 -2,10 -4,14 -2,3 -5,4 -9,4 -4,0 -7,-1 -9,-4 -3,-4 -4,-8 -4,-14 0,-3 1,-5 1,-8 1,-2 2,-4 3,-5 1,-2 2,-3 4,-4 1,-1 3,-1 5,-1 4,0 7,1 9,5 2,3 4,7 4,13zm-8 0c0,-2 0,-3 0,-5 -1,-1 -1,-2 -1,-3 -1,-1 -1,-2 -2,-3 0,0 -1,-1 -2,-1 -1,0 -2,1 -2,1 -1,1 -2,2 -2,3 0,1 -1,2 -1,3 0,2 0,3 0,5 0,2 0,3 0,5 0,1 1,3 1,4 0,1 1,1 2,2 0,1 1,1 2,1 1,0 2,0 2,-1 1,-1 1,-1 2,-2 0,-1 0,-3 1,-4 0,-2 0,-3 0,-5zm48 0c0,6 -1,10 -3,14 -2,3 -5,4 -9,4 -4,0 -7,-1 -10,-4 -2,-4 -3,-8 -3,-14 0,-3 0,-5 1,-8 0,-2 1,-4 2,-5 2,-2 3,-3 4,-4 2,-1 4,-1 6,-1 4,0 7,1 9,5 2,3 3,7 3,13zm-7 0c0,-2 -1,-3 -1,-5 0,-1 0,-2 -1,-3 0,-1 0,-2 -1,-3 -1,0 -1,-1 -2,-1 -1,0 -2,1 -3,1 0,1 -1,2 -1,3 -1,1 -1,2 -1,3 0,2 0,3 0,5 0,2 0,3 0,5 0,1 0,3 1,4 0,1 1,1 1,2 1,1 2,1 3,1 1,0 1,0 2,-1 1,-1 1,-1 1,-2 1,-1 1,-3 1,-4 0,-2 1,-3 1,-5zm241 0c0,6 -1,10 -3,14 -2,3 -5,4 -9,4 -4,0 -7,-1 -9,-4 -3,-4 -4,-8 -4,-14 0,-3 0,-5 1,-8 1,-2 1,-4 3,-5 1,-2 2,-3 4,-4 1,-1 3,-1 5,-1 4,0 7,1 9,5 2,3 3,7 3,13zm-7 0c0,-2 0,-3 -1,-5 0,-1 0,-2 0,-3 -1,-1 -1,-2 -2,-3 -1,0 -1,-1 -2,-1 -1,0 -2,1 -3,1 0,1 -1,2 -1,3 0,1 -1,2 -1,3 0,2 0,3 0,5 0,2 0,3 0,5 0,1 1,3 1,4 0,1 1,1 1,2 1,1 2,1 3,1 1,0 1,0 2,-1 1,-1 1,-1 2,-2 0,-1 0,-3 0,-4 1,-2 1,-3 1,-5zm25 -10c1,0 2,-1 3,-1 1,-1 2,-1 3,-2 1,-1 2,-1 3,-2 1,-1 1,-1 2,-2l5 0 0 35 -7 0 0 -25c-1,0 -2,1 -3,1 -2,1 -3,1 -4,2l-2 -6zm40 0c1,0 2,-1 3,-1 1,-1 3,-1 4,-2 1,-1 2,-1 2,-2 1,-1 2,-1 3,-2l5 0 0 35 -7 0 0 -25c-1,0 -2,1 -4,1 -1,1 -2,1 -3,2l-3 -6zm64 10c0,6 -1,10 -3,14 -2,3 -5,4 -9,4 -4,0 -7,-1 -9,-4 -3,-4 -4,-8 -4,-14 0,-3 1,-5 1,-8 1,-2 2,-4 3,-5 1,-2 2,-3 4,-4 1,-1 3,-1 5,-1 4,0 7,1 9,5 2,3 3,7 3,13zm-7 0c0,-2 0,-3 0,-5 -1,-1 -1,-2 -1,-3 -1,-1 -1,-2 -2,-3 0,0 -1,-1 -2,-1 -1,0 -2,1 -2,1 -1,1 -2,2 -2,3 0,1 -1,2 -1,3 0,2 0,3 0,5 0,2 0,3 0,5 0,1 1,3 1,4 0,1 1,1 2,2 0,1 1,1 2,1 1,0 2,0 2,-1 1,-1 1,-1 2,-2 0,-1 0,-3 1,-4 0,-2 0,-3 0,-5zm48 0c0,6 -1,10 -3,14 -2,3 -5,4 -9,4 -4,0 -7,-1 -10,-4 -2,-4 -3,-8 -3,-14 0,-3 0,-5 1,-8 0,-2 1,-4 2,-5 2,-2 3,-3 4,-4 2,-1 4,-1 6,-1 4,0 7,1 9,5 2,3 3,7 3,13zm-7 0c0,-2 -1,-3 -1,-5 0,-1 0,-2 -1,-3 0,-1 0,-2 -1,-3 -1,0 -1,-1 -2,-1 -1,0 -2,1 -3,1 0,1 -1,2 -1,3 -1,1 -1,2 -1,3 0,2 0,3 0,5 0,2 0,3 0,5 0,1 0,3 1,4 0,1 1,1 1,2 1,1 2,1 3,1 1,0 1,0 2,-1 1,-1 1,-1 1,-2 1,-1 1,-3 1,-4 0,-2 1,-3 1,-5zm25 -10c0,0 1,-1 3,-1 1,-1 2,-1 3,-2 1,-1 2,-1 3,-2 0,-1 1,-1 2,-2l5 0 0 35 -7 0 0 -25c-1,0 -2,1 -4,1 -1,1 -2,1 -3,2l-2 -6zm161 0c1,0 2,-1 3,-1 1,-1 2,-1 3,-2 1,-1 2,-1 3,-2 1,-1 2,-1 3,-2l5 0 0 35 -8 0 0 -25c-1,0 -2,1 -3,1 -1,1 -2,1 -4,2l-2 -6zm64 10c0,6 -1,10 -3,14 -2,3 -5,4 -9,4 -4,0 -7,-1 -10,-4 -2,-4 -3,-8 -3,-14 0,-3 0,-5 1,-8 0,-2 1,-4 2,-5 2,-2 3,-3 4,-4 2,-1 4,-1 6,-1 4,0 7,1 9,5 2,3 3,7 3,13zm-7 0c0,-2 -1,-3 -1,-5 0,-1 0,-2 -1,-3 0,-1 0,-2 -1,-3 -1,0 -1,-1 -2,-1 -1,0 -2,1 -3,1 0,1 -1,2 -1,3 -1,1 -1,2 -1,3 0,2 0,3 0,5 0,2 0,3 0,5 0,1 0,3 1,4 0,1 1,1 1,2 1,1 2,1 3,1 1,0 1,0 2,-1 1,-1 1,-1 1,-2 1,-1 1,-3 1,-4 0,-2 1,-3 1,-5zm-755 113c0,6 -1,10 -3,14 -2,3 -6,4 -9,4 -4,0 -8,-1 -10,-4 -2,-4 -3,-8 -3,-14 0,-3 0,-5 1,-8 0,-2 1,-4 2,-5 1,-2 3,-3 4,-4 2,-1 4,-1 6,-1 3,0 7,1 9,5 2,3 3,7 3,13zm-8 0c0,-2 0,-3 0,-5 0,-1 0,-2 -1,-3 0,-1 0,-2 -1,-3 -1,0 -2,-1 -2,-1 -1,0 -2,1 -3,1 0,1 -1,2 -1,3 -1,1 -1,2 -1,3 0,2 0,3 0,5 0,2 0,3 0,5 0,1 0,3 1,4 0,1 1,1 1,2 1,1 2,1 3,1 0,0 1,0 2,-1 1,-1 1,-1 1,-2 1,-1 1,-3 1,-4 0,-2 0,-3 0,-5zm49 0c0,6 -1,10 -4,14 -2,3 -5,4 -9,4 -4,0 -7,-1 -9,-4 -2,-4 -3,-8 -3,-14 0,-3 0,-5 0,-8 1,-2 2,-4 3,-5 1,-2 2,-3 4,-4 2,-1 3,-1 5,-1 4,0 7,1 9,5 3,3 4,7 4,13zm-8 0c0,-2 0,-3 0,-5 0,-1 -1,-2 -1,-3 0,-1 -1,-2 -1,-3 -1,0 -2,-1 -3,-1 -1,0 -2,1 -2,1 -1,1 -1,2 -2,3 0,1 0,2 0,3 -1,2 -1,3 -1,5 0,2 0,3 1,5 0,1 0,3 0,4 1,1 1,1 2,2 0,1 1,1 2,1 1,0 2,0 3,-1 0,-1 1,-1 1,-2 0,-1 1,-3 1,-4 0,-2 0,-3 0,-5zm49 0c0,6 -2,10 -4,14 -2,3 -5,4 -9,4 -4,0 -7,-1 -9,-4 -3,-4 -4,-8 -4,-14 0,-3 1,-5 1,-8 1,-2 2,-4 3,-5 1,-2 2,-3 4,-4 1,-1 3,-1 5,-1 4,0 7,1 9,5 2,3 4,7 4,13zm-8 0c0,-2 0,-3 0,-5 -1,-1 -1,-2 -1,-3 -1,-1 -1,-2 -2,-3 0,0 -1,-1 -2,-1 -1,0 -2,1 -2,1 -1,1 -2,2 -2,3 0,1 -1,2 -1,3 0,2 0,3 0,5 0,2 0,3 0,5 0,1 1,3 1,4 0,1 1,1 2,2 0,1 1,1 2,1 1,0 2,0 2,-1 1,-1 1,-1 2,-2 0,-1 0,-3 1,-4 0,-2 0,-3 0,-5zm25 -10c1,0 2,-1 3,-1 1,-1 2,-2 3,-2 1,-1 2,-1 3,-2 1,-1 2,-2 2,-2l6 0 0 35 -8 0 0 -26c-1,1 -2,2 -3,2 -2,1 -3,1 -4,2l-2 -6zm41 0c1,0 2,-1 3,-1 1,-1 2,-2 3,-2 1,-1 2,-1 3,-2 1,-1 1,-2 2,-2l5 0 0 35 -7 0 0 -26c-1,1 -2,2 -4,2 -1,1 -2,1 -3,2l-2 -6zm40 0c1,0 2,-1 3,-1 1,-1 2,-2 3,-2 1,-1 2,-1 3,-2 1,-1 2,-2 3,-2l5 0 0 35 -7 0 0 -26c-1,1 -3,2 -4,2 -1,1 -2,1 -3,2l-3 -6zm41 0c1,0 2,-1 3,-1 1,-1 2,-2 3,-2 1,-1 2,-1 3,-2 1,-1 2,-2 2,-2l6 0 0 35 -8 0 0 -26c-1,1 -2,2 -3,2 -1,1 -3,1 -4,2l-2 -6zm64 10c0,6 -1,10 -3,14 -3,3 -6,4 -10,4 -3,0 -7,-1 -9,-4 -2,-4 -3,-8 -3,-14 0,-3 0,-5 1,-8 0,-2 1,-4 2,-5 1,-2 3,-3 4,-4 2,-1 4,-1 5,-1 4,0 7,1 10,5 2,3 3,7 3,13zm-8 0c0,-2 0,-3 0,-5 0,-1 0,-2 -1,-3 0,-1 -1,-2 -1,-3 -1,0 -2,-1 -3,-1 -1,0 -1,1 -2,1 -1,1 -1,2 -1,3 -1,1 -1,2 -1,3 0,2 -1,3 -1,5 0,2 1,3 1,5 0,1 0,3 1,4 0,1 0,1 1,2 1,1 1,1 2,1 1,0 2,0 3,-1 0,-1 1,-1 1,-2 1,-1 1,-3 1,-4 0,-2 0,-3 0,-5zm49 0c0,6 -1,10 -4,14 -2,3 -5,4 -9,4 -4,0 -7,-1 -9,-4 -2,-4 -3,-8 -3,-14 0,-3 0,-5 0,-8 1,-2 2,-4 3,-5 1,-2 2,-3 4,-4 1,-1 3,-1 5,-1 4,0 7,1 9,5 3,3 4,7 4,13zm-8 0c0,-2 0,-3 0,-5 0,-1 -1,-2 -1,-3 0,-1 -1,-2 -1,-3 -1,0 -2,-1 -3,-1 -1,0 -2,1 -2,1 -1,1 -1,2 -2,3 0,1 0,2 -1,3 0,2 0,3 0,5 0,2 0,3 0,5 1,1 1,3 1,4 1,1 1,1 2,2 0,1 1,1 2,1 1,0 2,0 3,-1 0,-1 1,-1 1,-2 0,-1 1,-3 1,-4 0,-2 0,-3 0,-5zm25 -10c1,0 2,-1 3,-1 1,-1 2,-2 3,-2 1,-1 2,-1 3,-2 1,-1 2,-2 3,-2l5 0 0 35 -8 0 0 -26c-1,1 -2,2 -3,2 -1,1 -2,1 -4,2l-2 -6zm41 0c1,0 2,-1 3,-1 1,-1 2,-2 3,-2 1,-1 2,-1 3,-2 1,-1 2,-2 2,-2l6 0 0 35 -8 0 0 -26c-1,1 -2,2 -3,2 -2,1 -3,1 -4,2l-2 -6zm40 0c1,0 2,-1 4,-1 1,-1 2,-2 3,-2 1,-1 2,-1 3,-2 0,-1 1,-2 2,-2l5 0 0 35 -7 0 0 -26c-1,1 -2,2 -4,2 -1,1 -2,1 -3,2l-3 -6zm65 10c0,6 -2,10 -4,14 -2,3 -5,4 -9,4 -4,0 -7,-1 -9,-4 -3,-4 -4,-8 -4,-14 0,-3 1,-5 1,-8 1,-2 2,-4 3,-5 1,-2 2,-3 4,-4 1,-1 3,-1 5,-1 4,0 7,1 9,5 2,3 4,7 4,13zm-8 0c0,-2 0,-3 0,-5 -1,-1 -1,-2 -1,-3 -1,-1 -1,-2 -2,-3 0,0 -1,-1 -2,-1 -1,0 -2,1 -2,1 -1,1 -2,2 -2,3 0,1 -1,2 -1,3 0,2 0,3 0,5 0,2 0,3 0,5 0,1 1,3 1,4 0,1 1,1 2,2 0,1 1,1 2,1 1,0 2,0 2,-1 1,-1 1,-1 2,-2 0,-1 0,-3 1,-4 0,-2 0,-3 0,-5zm25 -10c1,0 2,-1 3,-1 1,-1 2,-2 3,-2 1,-1 2,-1 3,-2 1,-1 2,-2 2,-2l6 0 0 35 -8 0 0 -26c-1,1 -2,2 -3,2 -1,1 -3,1 -4,2l-2 -6zm41 0c1,0 2,-1 3,-1 1,-1 2,-2 3,-2 1,-1 2,-1 3,-2 1,-1 1,-2 2,-2l5 0 0 35 -7 0 0 -26c-1,1 -2,2 -4,2 -1,1 -2,1 -3,2l-2 -6zm64 10c0,6 -1,10 -4,14 -2,3 -5,4 -9,4 -4,0 -7,-1 -9,-4 -2,-4 -4,-8 -4,-14 0,-3 1,-5 1,-8 1,-2 2,-4 3,-5 1,-2 2,-3 4,-4 1,-1 3,-1 5,-1 4,0 7,1 9,5 3,3 4,7 4,13zm-8 0c0,-2 0,-3 0,-5 0,-1 -1,-2 -1,-3 0,-1 -1,-2 -2,-3 0,0 -1,-1 -2,-1 -1,0 -2,1 -2,1 -1,1 -1,2 -2,3 0,1 0,2 -1,3 0,2 0,3 0,5 0,2 0,3 0,5 1,1 1,3 1,4 1,1 1,1 2,2 0,1 1,1 2,1 1,0 2,0 2,-1 1,-1 2,-1 2,-2 0,-1 1,-3 1,-4 0,-2 0,-3 0,-5zm48 0c0,6 -1,10 -3,14 -2,3 -5,4 -9,4 -4,0 -7,-1 -9,-4 -3,-4 -4,-8 -4,-14 0,-3 0,-5 1,-8 1,-2 1,-4 3,-5 1,-2 2,-3 4,-4 1,-1 3,-1 5,-1 4,0 7,1 9,5 2,3 3,7 3,13zm-7 0c0,-2 0,-3 -1,-5 0,-1 0,-2 0,-3 -1,-1 -1,-2 -2,-3 0,0 -1,-1 -2,-1 -1,0 -2,1 -3,1 0,1 -1,2 -1,3 0,1 -1,2 -1,3 0,2 0,3 0,5 0,2 0,3 0,5 0,1 1,3 1,4 0,1 1,1 1,2 1,1 2,1 3,1 1,0 2,0 2,-1 1,-1 1,-1 2,-2 0,-1 0,-3 0,-4 1,-2 1,-3 1,-5z"/>
   <path fill="#999999" fill-rule="nonzero" d="M1206 427c0,6 -1,10 -3,14 -3,3 -6,4 -10,4 -3,0 -7,-1 -9,-4 -2,-4 -3,-8 -3,-14 0,-3 0,-5 1,-8 0,-2 1,-4 2,-5 1,-2 3,-3 4,-4 2,-1 4,-1 5,-1 4,0 7,1 10,5 2,3 3,7 3,13zm-8 0c0,-2 0,-3 0,-5 0,-1 0,-2 -1,-3 0,-1 -1,-2 -1,-3 -1,0 -2,-1 -3,-1 0,0 -1,1 -2,1 0,1 -1,2 -1,3 -1,1 -1,2 -1,3 0,2 0,3 0,5 0,2 0,3 0,5 0,1 0,3 1,4 0,1 1,1 1,2 1,1 2,1 2,1 1,0 2,0 3,-1 0,-1 1,-1 1,-2 1,-1 1,-3 1,-4 0,-2 0,-3 0,-5zm49 0c0,6 -1,10 -4,14 -2,3 -5,4 -9,4 -4,0 -7,-1 -9,-4 -2,-4 -3,-8 -3,-14 0,-3 0,-5 0,-8 1,-2 2,-4 3,-5 1,-2 2,-3 4,-4 2,-1 3,-1 5,-1 4,0 7,1 9,5 3,3 4,7 4,13zm-8 0c0,-2 0,-3 0,-5 0,-1 -1,-2 -1,-3 0,-1 -1,-2 -1,-3 -1,0 -2,-1 -3,-1 -1,0 -2,1 -2,1 -1,1 -1,2 -2,3 0,1 0,2 -1,3 0,2 0,3 0,5 0,2 0,3 0,5 1,1 1,3 1,4 1,1 1,1 2,2 0,1 1,1 2,1 1,0 2,0 3,-1 0,-1 1,-1 1,-2 0,-1 1,-3 1,-4 0,-2 0,-3 0,-5zm25 -10c1,0 2,-1 3,-1 1,-1 2,-2 3,-2 1,-1 2,-1 3,-2 1,-1 2,-2 3,-2l5 0 0 35 -8 0 0 -26c-1,1 -2,2 -3,2 -1,1 -2,1 -4,2l-2 -6zm64 10c0,6 -1,10 -3,14 -2,3 -5,4 -9,4 -4,0 -7,-1 -10,-4 -2,-4 -3,-8 -3,-14 0,-3 0,-5 1,-8 0,-2 1,-4 2,-5 2,-2 3,-3 4,-4 2,-1 4,-1 6,-1 4,0 7,1 9,5 2,3 3,7 3,13zm-7 0c0,-2 -1,-3 -1,-5 0,-1 0,-2 -1,-3 0,-1 0,-2 -1,-3 -1,0 -1,-1 -2,-1 -1,0 -2,1 -3,1 0,1 -1,2 -1,3 -1,1 -1,2 -1,3 0,2 0,3 0,5 0,2 0,3 0,5 0,1 0,3 1,4 0,1 1,1 1,2 1,1 2,1 3,1 1,0 1,0 2,-1 1,-1 1,-1 1,-2 1,-1 1,-3 1,-4 0,-2 1,-3 1,-5zm-807 113c0,6 -1,10 -3,14 -2,3 -6,4 -9,4 -4,0 -8,-1 -10,-4 -2,-4 -3,-8 -3,-14 0,-3 0,-6 1,-8 0,-2 1,-4 2,-5 1,-2 3,-3 4,-4 2,-1 4,-1 6,-1 3,0 7,1 9,5 2,3 3,7 3,13zm-8 0c0,-2 0,-3 0,-5 0,-1 0,-2 -1,-3 0,-2 0,-2 -1,-3 -1,0 -2,-1 -2,-1 -1,0 -2,1 -3,1 0,1 -1,1 -1,3 -1,1 -1,2 -1,3 0,2 0,3 0,5 0,2 0,3 0,5 0,1 0,2 1,4 0,1 1,1 1,2 1,1 2,1 3,1 0,0 1,0 2,-1 1,-1 1,-1 1,-2 1,-2 1,-3 1,-4 0,-2 0,-3 0,-5zm25 -10c1,-1 2,-1 3,-2 2,0 3,-1 4,-1 1,-1 2,-1 2,-2 1,-1 2,-2 3,-2l5 0 0 35 -7 0 0 -26c-1,1 -2,2 -4,2 -1,1 -2,1 -3,2l-3 -6zm65 10c0,6 -2,10 -4,14 -2,3 -5,4 -9,4 -4,0 -7,-1 -9,-4 -3,-4 -4,-8 -4,-14 0,-3 1,-6 1,-8 1,-2 2,-4 3,-5 1,-2 2,-3 4,-4 1,-1 3,-1 5,-1 4,0 7,1 9,5 2,3 4,7 4,13zm-8 0c0,-2 0,-3 0,-5 -1,-1 -1,-2 -1,-3 -1,-2 -1,-2 -2,-3 0,0 -1,-1 -2,-1 -1,0 -2,1 -2,1 -1,1 -2,1 -2,3 0,1 -1,2 -1,3 0,2 0,3 0,5 0,2 0,3 0,5 0,1 1,2 1,4 0,1 1,1 2,2 0,1 1,1 2,1 1,0 2,0 2,-1 1,-1 1,-1 2,-2 0,-2 0,-3 1,-4 0,-2 0,-3 0,-5zm48 0c0,6 -1,10 -3,14 -2,3 -5,4 -9,4 -4,0 -7,-1 -10,-4 -2,-4 -3,-8 -3,-14 0,-3 0,-6 1,-8 0,-2 1,-4 2,-5 2,-2 3,-3 4,-4 2,-1 4,-1 6,-1 4,0 7,1 9,5 2,3 3,7 3,13zm-7 0c0,-2 -1,-3 -1,-5 0,-1 0,-2 -1,-3 0,-2 0,-2 -1,-3 -1,0 -1,-1 -2,-1 -1,0 -2,1 -3,1 0,1 -1,1 -1,3 -1,1 -1,2 -1,3 0,2 0,3 0,5 0,2 0,3 0,5 0,1 0,2 1,4 0,1 1,1 1,2 1,1 2,1 3,1 1,0 1,0 2,-1 1,-1 1,-1 1,-2 1,-2 1,-3 1,-4 0,-2 1,-3 1,-5zm48 0c0,6 -1,10 -3,14 -3,3 -6,4 -10,4 -4,0 -7,-1 -9,-4 -2,-4 -3,-8 -3,-14 0,-3 0,-6 1,-8 0,-2 1,-4 2,-5 1,-2 3,-3 4,-4 2,-1 3,-1 5,-1 4,0 7,1 10,5 2,3 3,7 3,13zm-8 0c0,-2 0,-3 0,-5 0,-1 0,-2 -1,-3 0,-2 -1,-2 -1,-3 -1,0 -2,-1 -3,-1 -1,0 -1,1 -2,1 -1,1 -1,1 -2,3 0,1 0,2 0,3 -1,2 -1,3 -1,5 0,2 0,3 1,5 0,1 0,2 0,4 1,1 1,1 2,2 1,1 1,1 2,1 1,0 2,0 3,-1 0,-1 1,-1 1,-2 1,-2 1,-3 1,-4 0,-2 0,-3 0,-5zm49 0c0,6 -1,10 -4,14 -2,3 -5,4 -9,4 -4,0 -7,-1 -9,-4 -2,-4 -4,-8 -4,-14 0,-3 1,-6 1,-8 1,-2 2,-4 3,-5 1,-2 2,-3 4,-4 1,-1 3,-1 5,-1 4,0 7,1 9,5 3,3 4,7 4,13zm-8 0c0,-2 0,-3 0,-5 0,-1 -1,-2 -1,-3 0,-2 -1,-2 -2,-3 0,0 -1,-1 -2,-1 -1,0 -2,1 -2,1 -1,1 -1,1 -2,3 0,1 0,2 -1,3 0,2 0,3 0,5 0,2 0,3 0,5 1,1 1,2 1,4 1,1 1,1 2,2 0,1 1,1 2,1 1,0 2,0 2,-1 1,-1 2,-1 2,-2 0,-2 1,-3 1,-4 0,-2 0,-3 0,-5zm48 0c0,6 -1,10 -3,14 -2,3 -5,4 -9,4 -4,0 -7,-1 -10,-4 -2,-4 -3,-8 -3,-14 0,-3 0,-6 1,-8 1,-2 1,-4 3,-5 1,-2 2,-3 4,-4 1,-1 3,-1 5,-1 4,0 7,1 9,5 2,3 3,7 3,13zm-7 0c0,-2 0,-3 -1,-5 0,-1 0,-2 0,-3 -1,-2 -1,-2 -2,-3 -1,0 -1,-1 -2,-1 -1,0 -2,1 -3,1 0,1 -1,1 -1,3 -1,1 -1,2 -1,3 0,2 0,3 0,5 0,2 0,3 0,5 0,1 0,2 1,4 0,1 1,1 1,2 1,1 2,1 3,1 1,0 1,0 2,-1 1,-1 1,-1 2,-2 0,-2 0,-3 0,-4 1,-2 1,-3 1,-5zm48 0c0,6 -1,10 -3,14 -3,3 -6,4 -10,4 -3,0 -7,-1 -9,-4 -2,-4 -3,-8 -3,-14 0,-3 0,-6 1,-8 0,-2 1,-4 2,-5 1,-2 3,-3 4,-4 2,-1 4,-1 5,-1 4,0 7,1 10,5 2,3 3,7 3,13zm-8 0c0,-2 0,-3 0,-5 0,-1 0,-2 -1,-3 0,-2 -1,-2 -1,-3 -1,0 -2,-1 -3,-1 -1,0 -1,1 -2,1 -1,1 -1,1 -1,3 -1,1 -1,2 -1,3 0,2 -1,3 -1,5 0,2 1,3 1,5 0,1 0,2 1,4 0,1 0,1 1,2 1,1 1,1 2,1 1,0 2,0 3,-1 0,-1 1,-1 1,-2 1,-2 1,-3 1,-4 0,-2 0,-3 0,-5zm25 -10c1,-1 2,-1 3,-2 1,0 2,-1 4,-1 1,-1 1,-1 2,-2 1,-1 2,-2 3,-2l5 0 0 35 -7 0 0 -26c-1,1 -3,2 -4,2 -1,1 -2,1 -3,2l-3 -6zm41 0c1,-1 2,-1 3,-2 1,0 2,-1 3,-1 1,-1 2,-1 3,-2 1,-1 2,-2 3,-2l5 0 0 35 -8 0 0 -26c-1,1 -2,2 -3,2 -1,1 -2,1 -4,2l-2 -6zm41 0c1,-1 2,-1 3,-2 1,0 2,-1 3,-1 1,-1 2,-1 3,-2 1,-1 2,-2 2,-2l6 0 0 35 -8 0 0 -26c-1,1 -2,2 -3,2 -2,1 -3,1 -4,2l-2 -6zm64 10c0,6 -1,10 -4,14 -2,3 -5,4 -9,4 -4,0 -7,-1 -9,-4 -2,-4 -3,-8 -3,-14 0,-3 0,-6 1,-8 0,-2 1,-4 2,-5 1,-2 3,-3 4,-4 2,-1 3,-1 5,-1 4,0 7,1 9,5 3,3 4,7 4,13zm-8 0c0,-2 0,-3 0,-5 0,-1 -1,-2 -1,-3 0,-2 -1,-2 -1,-3 -1,0 -2,-1 -3,-1 -1,0 -1,1 -2,1 -1,1 -1,1 -2,3 0,1 0,2 0,3 -1,2 -1,3 -1,5 0,2 0,3 1,5 0,1 0,2 0,4 1,1 1,1 2,2 1,1 1,1 2,1 1,0 2,0 3,-1 0,-1 1,-1 1,-2 0,-2 1,-3 1,-4 0,-2 0,-3 0,-5zm49 0c0,6 -2,10 -4,14 -2,3 -5,4 -9,4 -4,0 -7,-1 -9,-4 -3,-4 -4,-8 -4,-14 0,-3 1,-6 1,-8 1,-2 2,-4 3,-5 1,-2 2,-3 4,-4 1,-1 3,-1 5,-1 4,0 7,1 9,5 2,3 4,7 4,13zm-8 0c0,-2 0,-3 0,-5 -1,-1 -1,-2 -1,-3 -1,-2 -1,-2 -2,-3 0,0 -1,-1 -2,-1 -1,0 -2,1 -2,1 -1,1 -2,1 -2,3 0,1 -1,2 -1,3 0,2 0,3 0,5 0,2 0,3 0,5 0,1 1,2 1,4 0,1 1,1 2,2 0,1 1,1 2,1 1,0 2,0 2,-1 1,-1 1,-1 2,-2 0,-2 0,-3 1,-4 0,-2 0,-3 0,-5zm25 -10c1,-1 2,-1 3,-2 1,0 2,-1 3,-1 1,-1 2,-1 3,-2 1,-1 2,-2 2,-2l6 0 0 35 -8 0 0 -26c-1,1 -2,2 -3,2 -1,1 -3,1 -4,2l-2 -6zm174 0c1,-1 2,-1 3,-2 1,0 2,-1 3,-1 1,-1 2,-1 3,-2 1,-1 1,-2 2,-2l5 0 0 35 -7 0 0 -26c-1,1 -2,2 -4,2 -1,1 -2,1 -3,2l-2 -6zm64 10c0,6 -1,10 -4,14 -2,3 -5,4 -9,4 -4,0 -7,-1 -9,-4 -2,-4 -4,-8 -4,-14 0,-3 1,-6 1,-8 1,-2 2,-4 3,-5 1,-2 2,-3 4,-4 1,-1 3,-1 5,-1 4,0 7,1 9,5 3,3 4,7 4,13zm-8 0c0,-2 0,-3 0,-5 0,-1 -1,-2 -1,-3 0,-2 -1,-2 -2,-3 0,0 -1,-1 -2,-1 -1,0 -2,1 -2,1 -1,1 -1,1 -2,3 0,1 0,2 -1,3 0,2 0,3 0,5 0,2 0,3 0,5 1,1 1,2 1,4 1,1 1,1 2,2 0,1 1,1 2,1 1,0 2,0 2,-1 1,-1 2,-1 2,-2 0,-2 1,-3 1,-4 0,-2 0,-3 0,-5zm-433 103c1,-1 2,-1 3,-2 1,0 2,-1 3,-1 1,-1 2,-2 3,-2 1,-1 2,-2 3,-2l5 0 0 34 -8 0 0 -25c-1,1 -2,2 -3,2 -1,1 -2,1 -4,2l-2 -6zm41 0c1,-1 2,-1 3,-2 1,0 2,-1 3,-1 1,-1 2,-2 3,-2 1,-1 2,-2 2,-2l6 0 0 34 -8 0 0 -25c-1,1 -2,2 -3,2 -1,1 -3,1 -4,2l-2 -6zm41 0c1,-1 2,-1 3,-2 1,0 2,-1 3,-1 1,-1 2,-2 3,-2 1,-1 1,-2 2,-2l5 0 0 34 -7 0 0 -25c-1,1 -2,2 -4,2 -1,1 -2,1 -3,2l-2 -6zm64 10c0,6 -1,10 -4,13 -2,4 -5,5 -9,5 -4,0 -7,-1 -9,-5 -2,-3 -4,-7 -4,-13 0,-3 1,-6 1,-8 1,-2 2,-4 3,-6 1,-1 2,-2 4,-3 1,-1 3,-1 5,-1 4,0 7,1 9,4 3,4 4,8 4,14zm-8 0c0,-2 0,-3 0,-5 0,-1 -1,-2 -1,-4 0,-1 -1,-1 -2,-2 0,-1 -1,-1 -2,-1 -1,0 -2,0 -2,1 -1,1 -1,1 -2,2 0,2 0,3 -1,4 0,2 0,3 0,5 0,2 0,3 0,5 1,1 1,2 1,3 1,1 1,2 2,3 0,0 1,1 2,1 1,0 2,-1 2,-1 1,-1 2,-2 2,-3 0,-1 1,-2 1,-3 0,-2 0,-3 0,-5zm25 -10c1,-1 2,-1 3,-2 1,0 2,-1 3,-1 1,-1 2,-2 3,-2 1,-1 2,-2 3,-2l5 0 0 34 -8 0 0 -25c-1,1 -2,2 -3,2 -1,1 -3,1 -4,2l-2 -6zm64 10c0,6 -1,10 -3,13 -3,4 -6,5 -10,5 -3,0 -7,-1 -9,-5 -2,-3 -3,-7 -3,-13 0,-3 0,-6 1,-8 0,-2 1,-4 2,-6 1,-1 3,-2 4,-3 2,-1 4,-1 5,-1 4,0 7,1 10,4 2,4 3,8 3,14zm-8 0c0,-2 0,-3 0,-5 0,-1 0,-2 -1,-4 0,-1 -1,-1 -1,-2 -1,-1 -2,-1 -3,-1 0,0 -1,0 -2,1 -1,1 -1,1 -1,2 -1,2 -1,3 -1,4 0,2 0,3 0,5 0,2 0,3 0,5 0,1 0,2 1,3 0,1 0,2 1,3 1,0 2,1 2,1 1,0 2,-1 3,-1 0,-1 1,-2 1,-3 1,-1 1,-2 1,-3 0,-2 0,-3 0,-5zm25 -10c1,-1 2,-1 3,-2 1,0 3,-1 4,-1 1,-1 2,-2 2,-2 1,-1 2,-2 3,-2l5 0 0 34 -7 0 0 -25c-1,1 -2,2 -4,2 -1,1 -2,1 -3,2l-3 -6zm64 10c0,6 -1,10 -3,13 -2,4 -5,5 -9,5 -4,0 -7,-1 -9,-5 -3,-3 -4,-7 -4,-13 0,-3 1,-6 1,-8 1,-2 2,-4 3,-6 1,-1 2,-2 4,-3 1,-1 3,-1 5,-1 4,0 7,1 9,4 2,4 3,8 3,14zm-7 0c0,-2 0,-3 0,-5 -1,-1 -1,-2 -1,-4 -1,-1 -1,-1 -2,-2 0,-1 -1,-1 -2,-1 -1,0 -2,0 -2,1 -1,1 -2,1 -2,2 0,2 -1,3 -1,4 0,2 0,3 0,5 0,2 0,3 0,5 0,1 1,2 1,3 0,1 1,2 2,3 0,0 1,1 2,1 1,0 2,-1 2,-1 1,-1 1,-2 2,-3 0,-1 0,-2 1,-3 0,-2 0,-3 0,-5zm25 -10c1,-1 2,-1 3,-2 1,0 2,-1 3,-1 1,-1 2,-2 3,-2 1,-1 2,-2 2,-2l6 0 0 34 -8 0 0 -25c-1,1 -2,2 -3,2 -2,1 -3,1 -4,2l-2 -6z"/>
   <path fill="#999999" fill-rule="nonzero" d="M1183 643c1,-1 2,-1 4,-2 1,0 2,-1 3,-1 1,-1 2,-2 3,-2 0,-1 1,-2 2,-2l5 0 0 34 -7 0 0 -25c-1,1 -2,2 -4,2 -1,1 -2,1 -3,2l-3 -6zm65 10c0,6 -2,10 -4,13 -2,4 -5,5 -9,5 -4,0 -7,-1 -9,-5 -2,-3 -4,-7 -4,-13 0,-3 1,-6 1,-8 1,-2 2,-4 3,-6 1,-1 2,-2 4,-3 1,-1 3,-1 5,-1 4,0 7,1 9,4 2,4 4,8 4,14zm-8 0c0,-2 0,-3 0,-5 -1,-1 -1,-2 -1,-4 -1,-1 -1,-1 -2,-2 0,-1 -1,-1 -2,-1 -1,0 -2,0 -2,1 -1,1 -1,1 -2,2 0,2 -1,3 -1,4 0,2 0,3 0,5 0,2 0,3 0,5 0,1 1,2 1,3 1,1 1,2 2,3 0,0 1,1 2,1 1,0 2,-1 2,-1 1,-1 1,-2 2,-3 0,-1 0,-2 1,-3 0,-2 0,-3 0,-5zm48 0c0,6 -1,10 -3,13 -2,4 -5,5 -9,5 -4,0 -7,-1 -10,-5 -2,-3 -3,-7 -3,-13 0,-3 0,-6 1,-8 1,-2 1,-4 3,-6 1,-1 2,-2 3,-3 2,-1 4,-1 6,-1 4,0 7,1 9,4 2,4 3,8 3,14zm-7 0c0,-2 0,-3 -1,-5 0,-1 0,-2 0,-4 -1,-1 -1,-1 -2,-2 -1,-1 -1,-1 -2,-1 -1,0 -2,0 -3,1 0,1 -1,1 -1,2 -1,2 -1,3 -1,4 0,2 0,3 0,5 0,2 0,3 0,5 0,1 0,2 1,3 0,1 1,2 1,3 1,0 2,1 3,1 1,0 1,-1 2,-1 1,-1 1,-2 2,-3 0,-1 0,-2 0,-3 1,-2 1,-3 1,-5zm48 0c0,6 -1,10 -3,13 -3,4 -6,5 -10,5 -4,0 -7,-1 -9,-5 -2,-3 -3,-7 -3,-13 0,-3 0,-6 1,-8 0,-2 1,-4 2,-6 1,-1 3,-2 4,-3 2,-1 3,-1 5,-1 4,0 7,1 10,4 2,4 3,8 3,14zm-8 0c0,-2 0,-3 0,-5 0,-1 0,-2 -1,-4 0,-1 -1,-1 -1,-2 -1,-1 -2,-1 -3,-1 -1,0 -1,0 -2,1 -1,1 -1,1 -1,2 -1,2 -1,3 -1,4 0,2 -1,3 -1,5 0,2 1,3 1,5 0,1 0,2 1,3 0,1 0,2 1,3 1,0 1,1 2,1 1,0 2,-1 3,-1 0,-1 1,-2 1,-3 1,-1 1,-2 1,-3 0,-2 0,-3 0,-5zm49 0c0,6 -1,10 -4,13 -2,4 -5,5 -9,5 -4,0 -7,-1 -9,-5 -2,-3 -4,-7 -4,-13 0,-3 1,-6 1,-8 1,-2 2,-4 3,-6 1,-1 2,-2 4,-3 1,-1 3,-1 5,-1 4,0 7,1 9,4 3,4 4,8 4,14zm-8 0c0,-2 0,-3 0,-5 0,-1 -1,-2 -1,-4 0,-1 -1,-1 -2,-2 0,-1 -1,-1 -2,-1 -1,0 -2,0 -2,1 -1,1 -1,1 -2,2 0,2 0,3 -1,4 0,2 0,3 0,5 0,2 0,3 0,5 1,1 1,2 1,3 1,1 1,2 2,3 0,0 1,1 2,1 1,0 2,-1 2,-1 1,-1 2,-2 2,-3 0,-1 1,-2 1,-3 0,-2 0,-3 0,-5zm-545 103c1,-1 2,-1 3,-2 1,0 2,-1 3,-1 1,-1 2,-2 3,-2 1,-1 2,-2 3,-2l5 0 0 34 -8 0 0 -25c-1,1 -2,2 -3,2 -1,1 -2,1 -4,2l-2 -6zm64 10c0,6 -1,10 -3,13 -2,4 -5,5 -9,5 -4,0 -7,-1 -10,-5 -2,-3 -3,-7 -3,-13 0,-3 0,-6 1,-8 1,-2 1,-4 2,-6 2,-1 3,-2 4,-3 2,-1 4,-1 6,-1 4,0 7,1 9,4 2,4 3,8 3,14zm-7 0c0,-2 -1,-3 -1,-5 0,-1 0,-3 0,-4 -1,-1 -1,-1 -2,-2 -1,-1 -1,-1 -2,-1 -1,0 -2,0 -3,1 0,1 -1,1 -1,2 -1,1 -1,3 -1,4 0,2 0,3 0,5 0,2 0,3 0,5 0,1 0,2 1,3 0,1 1,2 1,3 1,0 2,1 3,1 1,0 1,-1 2,-1 1,-1 1,-2 2,-3 0,-1 0,-2 0,-3 0,-2 1,-3 1,-5zm25 -10c1,-1 2,-1 3,-2 1,0 2,-1 3,-1 1,-1 2,-2 3,-2 1,-1 1,-2 2,-2l5 0 0 34 -7 0 0 -25c-1,1 -2,2 -4,2 -1,1 -2,1 -3,2l-2 -6zm40 0c1,-1 2,-1 3,-2 1,0 2,-1 3,-1 1,-1 2,-2 3,-2 1,-1 2,-2 3,-2l5 0 0 34 -7 0 0 -25c-1,1 -3,2 -4,2 -1,1 -2,1 -3,2l-3 -6zm41 0c1,-1 2,-1 3,-2 1,0 2,-1 3,-1 1,-1 2,-2 3,-2 1,-1 2,-2 3,-2l5 0 0 34 -8 0 0 -25c-1,1 -2,2 -3,2 -1,1 -3,1 -4,2l-2 -6zm64 10c0,6 -1,10 -3,13 -3,4 -6,5 -10,5 -3,0 -7,-1 -9,-5 -2,-3 -3,-7 -3,-13 0,-3 0,-6 1,-8 0,-2 1,-4 2,-6 1,-1 3,-2 4,-3 2,-1 4,-1 5,-1 4,0 7,1 10,4 2,4 3,8 3,14zm-8 0c0,-2 0,-3 0,-5 0,-1 0,-3 -1,-4 0,-1 -1,-1 -1,-2 -1,-1 -2,-1 -3,-1 0,0 -1,0 -2,1 -1,1 -1,1 -1,2 -1,1 -1,3 -1,4 0,2 0,3 0,5 0,2 0,3 0,5 0,1 0,2 1,3 0,1 0,2 1,3 1,0 2,1 2,1 1,0 2,-1 3,-1 0,-1 1,-2 1,-3 1,-1 1,-2 1,-3 0,-2 0,-3 0,-5zm49 0c0,6 -1,10 -4,13 -2,4 -5,5 -9,5 -4,0 -7,-1 -9,-5 -2,-3 -3,-7 -3,-13 0,-3 0,-6 0,-8 1,-2 2,-4 3,-6 1,-1 2,-2 4,-3 2,-1 3,-1 5,-1 4,0 7,1 9,4 3,4 4,8 4,14zm-8 0c0,-2 0,-3 0,-5 0,-1 -1,-3 -1,-4 0,-1 -1,-1 -1,-2 -1,-1 -2,-1 -3,-1 -1,0 -2,0 -2,1 -1,1 -1,1 -2,2 0,1 0,3 -1,4 0,2 0,3 0,5 0,2 0,3 0,5 1,1 1,2 1,3 1,1 1,2 2,3 0,0 1,1 2,1 1,0 2,-1 3,-1 0,-1 1,-2 1,-3 0,-1 1,-2 1,-3 0,-2 0,-3 0,-5zm25 -10c1,-1 2,-1 3,-2 1,0 2,-1 3,-1 1,-1 2,-2 3,-2 1,-1 2,-2 3,-2l5 0 0 34 -8 0 0 -25c-1,1 -2,2 -3,2 -1,1 -2,1 -4,2l-2 -6zm41 0c1,-1 2,-1 3,-2 1,0 2,-1 3,-1 1,-1 2,-2 3,-2 1,-1 2,-2 2,-2l6 0 0 34 -8 0 0 -25c-1,1 -2,2 -3,2 -2,1 -3,1 -4,2l-2 -6zm64 10c0,6 -1,10 -3,13 -3,4 -6,5 -10,5 -4,0 -7,-1 -9,-5 -2,-3 -3,-7 -3,-13 0,-3 0,-6 1,-8 0,-2 1,-4 2,-6 1,-1 3,-2 4,-3 2,-1 3,-1 5,-1 4,0 7,1 10,4 2,4 3,8 3,14zm-8 0c0,-2 0,-3 0,-5 0,-1 0,-3 -1,-4 0,-1 -1,-1 -1,-2 -1,-1 -2,-1 -3,-1 -1,0 -1,0 -2,1 -1,1 -1,1 -2,2 0,1 0,3 0,4 -1,2 -1,3 -1,5 0,2 0,3 1,5 0,1 0,2 0,3 1,1 1,2 2,3 1,0 1,1 2,1 1,0 2,-1 3,-1 0,-1 1,-2 1,-3 1,-1 1,-2 1,-3 0,-2 0,-3 0,-5zm-310 113c0,6 -1,10 -3,13 -3,3 -6,5 -10,5 -4,0 -7,-2 -9,-5 -2,-3 -3,-7 -3,-13 0,-3 0,-6 1,-8 0,-2 1,-4 2,-6 1,-1 3,-2 4,-3 2,-1 3,-1 5,-1 4,0 7,1 10,4 2,3 3,8 3,14zm-8 0c0,-2 0,-4 0,-5 0,-1 0,-3 -1,-4 0,-1 -1,-1 -1,-2 -1,-1 -2,-1 -3,-1 -1,0 -1,0 -2,1 -1,1 -1,1 -2,2 0,1 0,3 0,4 -1,1 -1,3 -1,5 0,2 0,3 1,5 0,1 0,2 0,3 1,1 1,2 2,3 1,0 1,1 2,1 1,0 2,-1 3,-1 0,-1 1,-2 1,-3 1,-1 1,-2 1,-3 0,-2 0,-3 0,-5zm25 -10c1,-1 2,-1 3,-2 1,0 2,-1 3,-1 1,-1 2,-2 3,-2 1,-1 2,-2 3,-3l5 0 0 35 -8 0 0 -25c-1,1 -2,2 -3,2 -1,1 -2,1 -4,1l-2 -5zm64 10c0,6 -1,10 -3,13 -2,3 -5,5 -9,5 -4,0 -7,-2 -10,-5 -2,-3 -3,-7 -3,-13 0,-3 0,-6 1,-8 1,-2 1,-4 3,-6 1,-1 2,-2 4,-3 1,-1 3,-1 5,-1 4,0 7,1 9,4 2,3 3,8 3,14zm-7 0c0,-2 0,-4 -1,-5 0,-1 0,-3 0,-4 -1,-1 -1,-1 -2,-2 -1,-1 -1,-1 -2,-1 -1,0 -2,0 -3,1 0,1 -1,1 -1,2 -1,1 -1,3 -1,4 0,1 0,3 0,5 0,2 0,3 0,5 0,1 0,2 1,3 0,1 1,2 1,3 1,0 2,1 3,1 1,0 1,-1 2,-1 1,-1 1,-2 2,-3 0,-1 0,-2 0,-3 1,-2 1,-3 1,-5zm48 0c0,6 -1,10 -3,13 -3,3 -6,5 -10,5 -4,0 -7,-2 -9,-5 -2,-3 -3,-7 -3,-13 0,-3 0,-6 1,-8 0,-2 1,-4 2,-6 1,-1 3,-2 4,-3 2,-1 3,-1 5,-1 4,0 7,1 10,4 2,3 3,8 3,14zm-8 0c0,-2 0,-4 0,-5 0,-1 0,-3 -1,-4 0,-1 -1,-1 -1,-2 -1,-1 -2,-1 -3,-1 -1,0 -1,0 -2,1 -1,1 -1,1 -1,2 -1,1 -1,3 -1,4 0,1 -1,3 -1,5 0,2 1,3 1,5 0,1 0,2 1,3 0,1 0,2 1,3 1,0 1,1 2,1 1,0 2,-1 3,-1 0,-1 1,-2 1,-3 1,-1 1,-2 1,-3 0,-2 0,-3 0,-5zm49 0c0,6 -1,10 -4,13 -2,3 -5,5 -9,5 -4,0 -7,-2 -9,-5 -2,-3 -3,-7 -3,-13 0,-3 0,-6 0,-8 1,-2 2,-4 3,-6 1,-1 2,-2 4,-3 1,-1 3,-1 5,-1 4,0 7,1 9,4 3,3 4,8 4,14zm-8 0c0,-2 0,-4 0,-5 0,-1 -1,-3 -1,-4 0,-1 -1,-1 -2,-2 0,-1 -1,-1 -2,-1 -1,0 -2,0 -2,1 -1,1 -1,1 -2,2 0,1 0,3 -1,4 0,1 0,3 0,5 0,2 0,3 0,5 1,1 1,2 1,3 1,1 1,2 2,3 0,0 1,1 2,1 1,0 2,-1 2,-1 1,-1 2,-2 2,-3 0,-1 1,-2 1,-3 0,-2 0,-3 0,-5zm48 0c0,6 -1,10 -3,13 -2,3 -5,5 -9,5 -4,0 -7,-2 -9,-5 -3,-3 -4,-7 -4,-13 0,-3 1,-6 1,-8 1,-2 2,-4 3,-6 1,-1 2,-2 4,-3 1,-1 3,-1 5,-1 4,0 7,1 9,4 2,3 3,8 3,14zm-7 0c0,-2 0,-4 0,-5 -1,-1 -1,-3 -1,-4 -1,-1 -1,-1 -2,-2 0,-1 -1,-1 -2,-1 -1,0 -2,0 -3,1 0,1 -1,1 -1,2 0,1 -1,3 -1,4 0,1 0,3 0,5 0,2 0,3 0,5 0,1 1,2 1,3 0,1 1,2 1,3 1,0 2,1 3,1 1,0 2,-1 2,-1 1,-1 1,-2 2,-3 0,-1 0,-2 1,-3 0,-2 0,-3 0,-5zm48 0c0,6 -1,10 -3,13 -2,3 -6,5 -9,5 -4,0 -7,-2 -10,-5 -2,-3 -3,-7 -3,-13 0,-3 0,-6 1,-8 0,-2 1,-4 2,-6 1,-1 3,-2 4,-3 2,-1 4,-1 6,-1 3,0 7,1 9,4 2,3 3,8 3,14zm-8 0c0,-2 0,-4 0,-5 0,-1 0,-3 -1,-4 0,-1 0,-1 -1,-2 -1,-1 -2,-1 -2,-1 -1,0 -2,0 -3,1 0,1 -1,1 -1,2 -1,1 -1,3 -1,4 0,1 0,3 0,5 0,2 0,3 0,5 0,1 0,2 1,3 0,1 1,2 1,3 1,0 2,1 3,1 0,0 1,-1 2,-1 1,-1 1,-2 1,-3 1,-1 1,-2 1,-3 0,-2 0,-3 0,-5zm-151 113c0,6 -2,10 -4,13 -2,3 -5,5 -9,5 -4,0 -7,-2 -9,-5 -3,-3 -4,-7 -4,-13 0,-3 1,-6 1,-8 1,-2 2,-4 3,-6 1,-1 2,-2 4,-3 1,-1 3,-1 5,-1 4,0 7,1 9,4 2,3 4,8 4,14zm-8 0c0,-2 0,-4 0,-5 -1,-1 -1,-3 -1,-4 -1,-1 -1,-2 -2,-2 0,-1 -1,-1 -2,-1 -1,0 -2,0 -2,1 -1,0 -2,1 -2,2 0,1 -1,3 -1,4 0,1 0,3 0,5 0,2 0,3 0,5 0,1 1,2 1,3 0,1 1,2 2,3 0,0 1,1 2,1 1,0 2,-1 2,-1 1,-1 1,-2 2,-3 0,-1 0,-2 1,-3 0,-2 0,-3 0,-5zm25 -10c1,-1 2,-1 3,-2 1,0 2,-1 3,-1 1,-1 2,-2 3,-2 1,-1 2,-2 2,-3l6 0 0 35 -8 0 0 -25c-1,1 -2,1 -3,2 -1,1 -3,1 -4,1l-2 -5zm41 0c1,-1 2,-1 3,-2 1,0 2,-1 3,-1 1,-1 2,-2 3,-2 1,-1 1,-2 2,-3l5 0 0 35 -7 0 0 -25c-1,1 -2,1 -4,2 -1,1 -2,1 -3,1l-2 -5zm64 10c0,6 -1,10 -4,13 -2,3 -5,5 -9,5 -4,0 -7,-2 -9,-5 -2,-3 -4,-7 -4,-13 0,-3 1,-6 1,-8 1,-2 2,-4 3,-6 1,-1 2,-2 4,-3 1,-1 3,-1 5,-1 4,0 7,1 9,4 3,3 4,8 4,14zm-8 0c0,-2 0,-4 0,-5 0,-1 -1,-3 -1,-4 0,-1 -1,-2 -2,-2 0,-1 -1,-1 -2,-1 -1,0 -2,0 -2,1 -1,0 -1,1 -2,2 0,1 0,3 -1,4 0,1 0,3 0,5 0,2 0,3 0,5 1,1 1,2 1,3 1,1 1,2 2,3 0,0 1,1 2,1 1,0 2,-1 2,-1 1,-1 2,-2 2,-3 0,-1 1,-2 1,-3 0,-2 0,-3 0,-5z"/>
   <path fill="#999999" fill-rule="nonzero" d="M1136 992c0,6 -1,10 -3,13 -2,3 -5,5 -9,5 -4,0 -7,-2 -9,-5 -3,-3 -4,-7 -4,-13 0,-3 0,-6 1,-8 1,-2 1,-4 3,-6 1,-1 2,-2 4,-3 1,-1 3,-1 5,-1 4,0 7,1 9,4 2,3 3,8 3,14zm-7 0c0,-2 0,-4 -1,-5 0,-1 0,-3 0,-4 -1,-1 -1,-2 -2,-2 -1,-1 -1,-1 -2,-1 -1,0 -2,0 -3,1 0,0 -1,1 -1,2 0,1 -1,3 -1,4 0,1 0,3 0,5 0,2 0,3 0,5 0,1 1,2 1,3 0,1 1,2 1,3 1,0 2,1 3,1 1,0 1,-1 2,-1 1,-1 1,-2 2,-3 0,-1 0,-2 0,-3 1,-2 1,-3 1,-5zm62 113c0,6 -1,10 -3,13 -2,3 -6,5 -9,5 -4,0 -7,-2 -10,-5 -2,-3 -3,-7 -3,-13 0,-3 0,-6 1,-8 0,-2 1,-4 2,-6 1,-1 3,-2 4,-3 2,-1 4,-1 6,-1 3,0 7,1 9,4 2,3 3,8 3,14zm-8 0c0,-2 0,-4 0,-5 0,-1 0,-3 -1,-4 0,-1 0,-2 -1,-2 -1,-1 -2,-1 -2,-1 -1,0 -2,0 -3,1 0,0 -1,1 -1,2 -1,1 -1,3 -1,4 0,1 0,3 0,5 0,1 0,3 0,5 0,1 0,2 1,3 0,1 1,2 1,3 1,0 2,1 3,1 0,0 1,-1 2,-1 1,-1 1,-2 1,-3 1,-1 1,-2 1,-3 0,-2 0,-4 0,-5zm25 -10c1,-1 2,-1 4,-2 1,0 2,-1 3,-2 1,0 2,-1 3,-1 0,-1 1,-2 2,-3l5 0 0 35 -7 0 0 -25c-1,1 -2,1 -4,2 -1,1 -2,1 -3,1l-3 -5zm41 0c1,-1 2,-1 3,-2 1,0 2,-1 3,-2 1,0 2,-1 3,-1 1,-1 2,-2 3,-3l5 0 0 35 -8 0 0 -25c-1,1 -2,1 -3,2 -1,1 -2,1 -4,1l-2 -5zm64 10c0,6 -1,10 -3,13 -2,3 -5,5 -9,5 -4,0 -7,-2 -10,-5 -2,-3 -3,-7 -3,-13 0,-3 0,-6 1,-8 1,-2 1,-4 2,-6 2,-1 3,-2 4,-3 2,-1 4,-1 6,-1 4,0 7,1 9,4 2,3 3,8 3,14zm-7 0c0,-2 0,-4 -1,-5 0,-1 0,-3 0,-4 -1,-1 -1,-2 -2,-2 -1,-1 -1,-1 -2,-1 -1,0 -2,0 -3,1 0,0 -1,1 -1,2 -1,1 -1,3 -1,4 0,1 0,3 0,5 0,1 0,3 0,5 0,1 0,2 1,3 0,1 1,2 1,3 1,0 2,1 3,1 1,0 1,-1 2,-1 1,-1 1,-2 2,-3 0,-1 0,-2 0,-3 1,-2 1,-4 1,-5zm25 -10c1,-1 2,-1 3,-2 1,0 2,-1 3,-2 1,0 2,-1 3,-1 1,-1 1,-2 2,-3l5 0 0 35 -7 0 0 -25c-1,1 -2,1 -4,2 -1,1 -2,1 -3,1l-2 -5zm40 0c1,-1 2,-1 3,-2 1,0 2,-1 3,-2 1,0 2,-1 3,-1 1,-1 2,-2 3,-3l5 0 0 35 -7 0 0 -25c-1,1 -3,1 -4,2 -1,1 -2,1 -3,1l-3 -5zm-168 123c0,6 -1,10 -3,13 -2,3 -5,5 -9,5 -4,0 -7,-2 -10,-5 -2,-3 -3,-7 -3,-13 0,-3 0,-6 1,-8 1,-2 1,-4 2,-6 2,-1 3,-3 4,-3 2,-1 4,-2 6,-2 4,0 7,2 9,5 2,3 3,8 3,14zm-7 0c0,-2 -1,-4 -1,-5 0,-2 0,-3 0,-4 -1,-1 -1,-2 -2,-2 -1,-1 -1,-1 -2,-1 -1,0 -2,0 -3,1 0,0 -1,1 -1,2 -1,1 -1,2 -1,4 0,1 0,3 0,5 0,1 0,3 0,4 0,2 0,3 1,4 0,1 1,2 1,3 1,0 2,0 3,0 1,0 1,0 2,0 1,-1 1,-2 2,-3 0,-1 0,-2 0,-4 0,-1 1,-3 1,-4zm25 -10c1,-1 2,-1 3,-2 1,0 2,-1 3,-2 1,0 2,-1 3,-2 1,0 1,-1 2,-2l5 0 0 35 -7 0 0 -25c-1,1 -2,1 -4,2 -1,0 -2,1 -3,1l-2 -5zm40 0c1,-1 2,-1 3,-2 1,0 2,-1 3,-2 1,0 2,-1 3,-2 1,0 2,-1 3,-2l5 0 0 35 -7 0 0 -25c-1,1 -3,1 -4,2 -1,0 -2,1 -3,1l-3 -5zm41 0c1,-1 2,-1 3,-2 1,0 2,-1 3,-2 1,0 2,-1 3,-2 1,0 2,-1 3,-2l5 0 0 35 -8 0 0 -25c-1,1 -2,1 -3,2 -1,0 -3,1 -4,1l-2 -5zm41 0c1,-1 2,-1 3,-2 1,0 2,-1 3,-2 1,0 2,-1 3,-2 1,0 1,-1 2,-2l5 0 0 35 -7 0 0 -25c-1,1 -2,1 -3,2 -2,0 -3,1 -4,1l-2 -5zm64 10c0,6 -1,10 -4,13 -2,3 -5,5 -9,5 -4,0 -7,-2 -9,-5 -2,-3 -3,-7 -3,-13 0,-3 0,-6 0,-8 1,-2 2,-4 3,-6 1,-1 2,-3 4,-3 2,-1 3,-2 5,-2 4,0 7,2 9,5 3,3 4,8 4,14zm-8 0c0,-2 0,-4 0,-5 0,-2 -1,-3 -1,-4 0,-1 -1,-2 -1,-2 -1,-1 -2,-1 -3,-1 -1,0 -2,0 -2,1 -1,0 -1,1 -2,2 0,1 0,2 -1,4 0,1 0,3 0,5 0,1 0,3 0,4 1,2 1,3 1,4 1,1 1,2 2,3 0,0 1,0 2,0 1,0 2,0 3,0 0,-1 1,-2 1,-3 0,-1 1,-2 1,-4 0,-1 0,-3 0,-4zm25 -10c1,-1 2,-1 3,-2 1,0 2,-1 3,-2 1,0 2,-1 3,-2 1,0 2,-1 3,-2l5 0 0 35 -8 0 0 -25c-1,1 -2,1 -3,2 -1,0 -2,1 -4,1l-2 -5zm41 0c1,-1 2,-1 3,-2 1,0 2,-1 3,-2 1,0 2,-1 3,-2 1,0 2,-1 2,-2l6 0 0 35 -8 0 0 -25c-1,1 -2,1 -3,2 -2,0 -3,1 -4,1l-2 -5zm-528 123c0,5 -1,10 -3,13 -2,3 -5,5 -9,5 -4,0 -7,-2 -10,-5 -2,-3 -3,-8 -3,-13 0,-3 0,-6 1,-8 1,-2 1,-4 2,-6 2,-1 3,-3 4,-3 2,-1 4,-2 6,-2 4,0 7,2 9,5 2,3 3,8 3,14zm-7 0c0,-2 0,-4 -1,-5 0,-2 0,-3 0,-4 -1,-1 -1,-2 -2,-2 -1,-1 -1,-1 -2,-1 -1,0 -2,0 -3,1 0,0 -1,1 -1,2 -1,1 -1,2 -1,4 0,1 0,3 0,5 0,1 0,3 0,4 0,2 0,3 1,4 0,1 1,2 1,3 1,0 2,0 3,0 1,0 1,0 2,0 1,-1 1,-2 2,-3 0,-1 0,-2 0,-4 1,-1 1,-3 1,-4zm25 -11c1,0 2,0 3,-1 1,0 2,-1 3,-2 1,0 2,-1 3,-2 1,0 1,-1 2,-2l5 0 0 35 -7 0 0 -25c-1,1 -2,1 -4,2 -1,0 -2,1 -3,1l-2 -6zm40 0c1,0 2,0 3,-1 1,0 2,-1 3,-2 1,0 2,-1 3,-2 1,0 2,-1 3,-2l5 0 0 35 -7 0 0 -25c-1,1 -3,1 -4,2 -1,0 -2,1 -3,1l-3 -6zm64 11c0,5 -1,10 -3,13 -2,3 -5,5 -9,5 -4,0 -7,-2 -9,-5 -3,-3 -4,-8 -4,-13 0,-3 0,-6 1,-8 1,-2 1,-4 3,-6 1,-1 2,-3 4,-3 1,-1 3,-2 5,-2 4,0 7,2 9,5 2,3 3,8 3,14zm-7 0c0,-2 0,-4 -1,-5 0,-2 0,-3 0,-4 -1,-1 -1,-2 -2,-2 0,-1 -1,-1 -2,-1 -1,0 -2,0 -3,1 0,0 -1,1 -1,2 0,1 -1,2 -1,4 0,1 0,3 0,5 0,1 0,3 0,4 0,2 1,3 1,4 0,1 1,2 1,3 1,0 2,0 3,0 1,0 2,0 2,0 1,-1 1,-2 2,-3 0,-1 0,-2 0,-4 1,-1 1,-3 1,-4zm25 -11c1,0 2,0 3,-1 1,0 2,-1 3,-2 1,0 2,-1 3,-2 1,0 1,-1 2,-2l5 0 0 35 -7 0 0 -25c-1,1 -2,1 -3,2 -2,0 -3,1 -4,1l-2 -6zm64 11c0,5 -1,10 -4,13 -2,3 -5,5 -9,5 -4,0 -7,-2 -9,-5 -2,-3 -3,-8 -3,-13 0,-3 0,-6 0,-8 1,-2 2,-4 3,-6 1,-1 2,-3 4,-3 2,-1 3,-2 5,-2 4,0 7,2 9,5 3,3 4,8 4,14zm-8 0c0,-2 0,-4 0,-5 0,-2 -1,-3 -1,-4 0,-1 -1,-2 -1,-2 -1,-1 -2,-1 -3,-1 -1,0 -2,0 -2,1 -1,0 -1,1 -2,2 0,1 0,2 -1,4 0,1 0,3 0,5 0,1 0,3 0,4 1,2 1,3 1,4 1,1 1,2 2,3 0,0 1,0 2,0 1,0 2,0 3,0 0,-1 1,-2 1,-3 0,-1 1,-2 1,-4 0,-1 0,-3 0,-4zm25 -11c1,0 2,0 3,-1 1,0 2,-1 3,-2 1,0 2,-1 3,-2 1,0 2,-1 3,-2l5 0 0 35 -8 0 0 -25c-1,1 -2,1 -3,2 -1,0 -2,1 -4,1l-2 -6zm-14 113c1,0 2,0 3,-1 1,0 2,-1 3,-2 1,0 2,-1 3,-2 1,0 1,-1 2,-2l5 0 0 35 -7 0 0 -25c-1,1 -2,1 -4,2 -1,0 -2,1 -3,1l-2 -6zm40 0c1,0 2,0 3,-1 1,0 2,-1 3,-2 1,0 2,-1 3,-2 1,0 2,-1 3,-2l5 0 0 35 -7 0 0 -25c-1,1 -3,1 -4,2 -1,0 -2,1 -3,1l-3 -6zm64 11c0,5 -1,10 -3,13 -2,3 -5,5 -9,5 -4,0 -7,-2 -9,-5 -3,-3 -4,-8 -4,-13 0,-3 0,-6 1,-8 1,-2 2,-4 3,-6 1,-1 2,-3 4,-3 1,-1 3,-2 5,-2 4,0 7,2 9,5 2,3 3,8 3,14zm-7 0c0,-2 0,-4 -1,-5 0,-2 0,-3 0,-4 -1,-1 -1,-2 -2,-2 0,-1 -1,-1 -2,-1 -1,0 -2,0 -3,1 0,0 -1,1 -1,2 0,1 -1,2 -1,4 0,1 0,3 0,5 0,1 0,3 0,4 0,2 1,3 1,4 0,1 1,2 1,2 1,1 2,1 3,1 1,0 2,0 2,-1 1,0 1,-1 2,-2 0,-1 0,-2 0,-4 1,-1 1,-3 1,-4zm48 0c0,5 -1,10 -3,13 -3,3 -6,5 -10,5 -3,0 -7,-2 -9,-5 -2,-3 -3,-8 -3,-13 0,-3 0,-6 1,-8 0,-2 1,-4 2,-6 1,-1 3,-3 4,-3 2,-1 4,-2 5,-2 4,0 7,2 10,5 2,3 3,8 3,14zm-8 0c0,-2 0,-4 0,-5 0,-2 0,-3 -1,-4 0,-1 -1,-2 -1,-2 -1,-1 -2,-1 -3,-1 0,0 -1,0 -2,1 0,0 -1,1 -1,2 -1,1 -1,2 -1,4 0,1 0,3 0,5 0,1 0,3 0,4 0,2 0,3 1,4 0,1 1,2 1,2 1,1 2,1 2,1 1,0 2,0 3,-1 0,0 1,-1 1,-2 1,-1 1,-2 1,-4 0,-1 0,-3 0,-4zm-66 112c0,6 -1,11 -3,14 -2,3 -5,5 -9,5 -4,0 -7,-2 -10,-5 -2,-3 -3,-8 -3,-14 0,-2 0,-5 1,-7 1,-3 1,-4 3,-6 1,-2 2,-3 4,-3 1,-1 3,-2 5,-2 4,0 7,2 9,5 2,3 3,8 3,13zm-7 0c0,-1 0,-3 -1,-4 0,-2 0,-3 0,-4 -1,-1 -1,-2 -2,-2 -1,-1 -1,-1 -2,-1 -1,0 -2,0 -3,1 0,0 -1,1 -1,2 -1,1 -1,2 -1,4 0,1 0,3 0,4 0,2 0,4 0,5 0,2 0,3 1,4 0,1 1,2 1,2 1,1 2,1 3,1 1,0 1,0 2,-1 1,0 1,-1 2,-2 0,-1 0,-2 0,-4 1,-1 1,-3 1,-5zm48 0c0,6 -1,11 -3,14 -3,3 -6,5 -10,5 -3,0 -7,-2 -9,-5 -2,-3 -3,-8 -3,-14 0,-2 0,-5 1,-7 0,-3 1,-4 2,-6 1,-2 3,-3 4,-3 2,-1 4,-2 5,-2 4,0 7,2 10,5 2,3 3,8 3,13zm-8 0c0,-1 0,-3 0,-4 0,-2 0,-3 -1,-4 0,-1 -1,-2 -1,-2 -1,-1 -2,-1 -3,-1 -1,0 -1,0 -2,1 -1,0 -1,1 -1,2 -1,1 -1,2 -1,4 0,1 0,3 0,4 0,2 0,4 0,5 0,2 0,3 1,4 0,1 0,2 1,2 1,1 1,1 2,1 1,0 2,0 3,-1 0,0 1,-1 1,-2 1,-1 1,-2 1,-4 0,-1 0,-3 0,-5zm-21 113c0,6 -1,11 -3,14 -2,3 -5,5 -9,5 -4,0 -7,-2 -9,-5 -3,-3 -4,-8 -4,-14 0,-2 1,-5 1,-7 1,-3 2,-4 3,-6 1,-2 2,-3 4,-4 1,0 3,-1 5,-1 4,0 7,2 9,5 2,3 3,8 3,13zm-7 0c0,-1 0,-3 0,-4 -1,-2 -1,-3 -1,-4 -1,-1 -1,-2 -2,-2 0,-1 -1,-1 -2,-1 -1,0 -2,0 -3,1 0,0 -1,1 -1,2 0,1 -1,2 -1,4 0,1 0,3 0,4 0,2 0,4 0,5 0,2 1,3 1,4 0,1 1,2 1,2 1,1 2,1 3,1 1,0 2,0 2,-1 1,0 1,-1 2,-2 0,-1 0,-2 1,-4 0,-1 0,-3 0,-5zm25 -10c1,0 2,-1 3,-1 1,-1 2,-1 3,-2 1,0 2,-1 3,-2 1,0 2,-1 2,-2l6 0 0 35 -8 0 0 -25c-1,1 -2,1 -3,2 -2,0 -3,1 -4,1l-2 -6z"/>
  </g>
  <g id="_815714400">
   <path fill="#999999" fill-rule="nonzero" d="M2402 248c1,-1 2,-1 3,-2 1,0 2,-1 3,-1 1,-1 2,-2 3,-2 1,-1 2,-2 3,-3l5 0 0 35 -8 0 0 -25c-1,1 -2,2 -3,2 -1,1 -2,1 -4,2l-2 -6zm41 0c1,-1 2,-1 3,-2 1,0 2,-1 3,-1 1,-1 2,-2 3,-2 1,-1 2,-2 2,-3l6 0 0 35 -8 0 0 -25c-1,1 -2,2 -3,2 -1,1 -3,1 -4,2l-2 -6zm64 10c0,6 -1,10 -3,13 -3,4 -6,5 -10,5 -4,0 -7,-1 -9,-5 -2,-3 -3,-7 -3,-13 0,-3 0,-6 1,-8 0,-2 1,-4 2,-6 1,-1 3,-2 4,-3 2,-1 3,-1 5,-1 4,0 7,1 10,4 2,4 3,8 3,14zm-8 0c0,-2 0,-3 0,-5 0,-1 0,-3 -1,-4 0,-1 -1,-1 -1,-2 -1,-1 -2,-1 -3,-1 -1,0 -1,0 -2,1 -1,1 -1,1 -1,2 -1,1 -1,3 -1,4 0,2 -1,3 -1,5 0,2 1,3 1,5 0,1 0,2 1,3 0,1 0,2 1,3 1,0 1,1 2,1 1,0 2,-1 3,-1 0,-1 1,-2 1,-3 1,-1 1,-2 1,-3 0,-2 0,-3 0,-5zm49 0c0,6 -1,10 -4,13 -2,4 -5,5 -9,5 -4,0 -7,-1 -9,-5 -2,-3 -4,-7 -4,-13 0,-3 1,-6 1,-8 1,-2 2,-4 3,-6 1,-1 2,-2 4,-3 1,-1 3,-1 5,-1 4,0 7,1 9,4 3,4 4,8 4,14zm-8 0c0,-2 0,-3 0,-5 0,-1 -1,-3 -1,-4 0,-1 -1,-1 -2,-2 0,-1 -1,-1 -2,-1 -1,0 -2,0 -2,1 -1,1 -1,1 -2,2 0,1 0,3 -1,4 0,2 0,3 0,5 0,2 0,3 0,5 1,1 1,2 1,3 1,1 1,2 2,3 0,0 1,1 2,1 1,0 2,-1 2,-1 1,-1 2,-2 2,-3 0,-1 1,-2 1,-3 0,-2 0,-3 0,-5zm25 -10c1,-1 2,-1 3,-2 1,0 2,-1 3,-1 1,-1 2,-2 3,-2 1,-1 2,-2 3,-3l5 0 0 35 -8 0 0 -25c-1,1 -2,2 -3,2 -1,1 -3,1 -4,2l-2 -6zm64 10c0,6 -1,10 -3,13 -2,4 -6,5 -9,5 -4,0 -8,-1 -10,-5 -2,-3 -3,-7 -3,-13 0,-3 0,-6 1,-8 0,-2 1,-4 2,-6 1,-1 3,-2 4,-3 2,-1 4,-1 6,-1 3,0 7,1 9,4 2,4 3,8 3,14zm-8 0c0,-2 0,-3 0,-5 0,-1 0,-3 -1,-4 0,-1 0,-1 -1,-2 -1,-1 -2,-1 -2,-1 -1,0 -2,0 -3,1 0,1 -1,1 -1,2 -1,1 -1,3 -1,4 0,2 0,3 0,5 0,2 0,3 0,5 0,1 0,2 1,3 0,1 1,2 1,3 1,0 2,1 3,1 0,0 1,-1 2,-1 1,-1 1,-2 1,-3 1,-1 1,-2 1,-3 0,-2 0,-3 0,-5zm49 0c0,6 -1,10 -4,13 -2,4 -5,5 -9,5 -4,0 -7,-1 -9,-5 -2,-3 -3,-7 -3,-13 0,-3 0,-6 0,-8 1,-2 2,-4 3,-6 1,-1 2,-2 4,-3 2,-1 3,-1 5,-1 4,0 7,1 9,4 3,4 4,8 4,14zm-8 0c0,-2 0,-3 0,-5 0,-1 -1,-3 -1,-4 0,-1 -1,-1 -1,-2 -1,-1 -2,-1 -3,-1 -1,0 -2,0 -2,1 -1,1 -1,1 -2,2 0,1 0,3 0,4 -1,2 -1,3 -1,5 0,2 0,3 1,5 0,1 0,2 0,3 1,1 1,2 2,3 0,0 1,1 2,1 1,0 2,-1 3,-1 0,-1 1,-2 1,-3 0,-1 1,-2 1,-3 0,-2 0,-3 0,-5zm-417 103c1,-1 2,-1 3,-2 1,0 2,-1 3,-1 1,-1 2,-2 3,-2 1,-1 2,-2 3,-3l5 0 0 35 -8 0 0 -25c-1,1 -2,1 -3,2 -1,1 -3,1 -4,1l-2 -5zm41 0c1,-1 2,-1 3,-2 1,0 2,-1 3,-1 1,-1 2,-2 3,-2 1,-1 2,-2 2,-3l6 0 0 35 -8 0 0 -25c-1,1 -2,1 -3,2 -2,1 -3,1 -4,1l-2 -5zm64 10c0,6 -1,10 -4,13 -2,3 -5,5 -9,5 -4,0 -7,-2 -9,-5 -2,-3 -3,-7 -3,-13 0,-3 0,-6 1,-8 0,-2 1,-4 2,-6 1,-1 2,-2 4,-3 2,-1 3,-1 5,-1 4,0 7,1 9,4 3,3 4,8 4,14zm-8 0c0,-2 0,-4 0,-5 0,-1 -1,-3 -1,-4 0,-1 -1,-1 -1,-2 -1,-1 -2,-1 -3,-1 -1,0 -2,0 -2,1 -1,1 -1,1 -2,2 0,1 0,3 0,4 -1,1 -1,3 -1,5 0,2 0,3 1,5 0,1 0,2 0,3 1,1 1,2 2,3 0,0 1,1 2,1 1,0 2,-1 3,-1 0,-1 1,-2 1,-3 0,-1 1,-2 1,-3 0,-2 0,-3 0,-5zm49 0c0,6 -2,10 -4,13 -2,3 -5,5 -9,5 -4,0 -7,-2 -9,-5 -3,-3 -4,-7 -4,-13 0,-3 1,-6 1,-8 1,-2 2,-4 3,-6 1,-1 2,-2 4,-3 1,-1 3,-1 5,-1 4,0 7,1 9,4 2,3 4,8 4,14zm-8 0c0,-2 0,-4 0,-5 -1,-1 -1,-3 -1,-4 -1,-1 -1,-1 -2,-2 0,-1 -1,-1 -2,-1 -1,0 -2,0 -2,1 -1,1 -2,1 -2,2 0,1 -1,3 -1,4 0,1 0,3 0,5 0,2 0,3 0,5 0,1 1,2 1,3 0,1 1,2 2,3 0,0 1,1 2,1 1,0 2,-1 2,-1 1,-1 1,-2 2,-3 0,-1 0,-2 1,-3 0,-2 0,-3 0,-5zm48 0c0,6 -1,10 -3,13 -2,3 -5,5 -9,5 -4,0 -7,-2 -10,-5 -2,-3 -3,-7 -3,-13 0,-3 0,-6 1,-8 0,-2 1,-4 2,-6 2,-1 3,-2 4,-3 2,-1 4,-1 6,-1 4,0 7,1 9,4 2,3 3,8 3,14zm-7 0c0,-2 -1,-4 -1,-5 0,-1 0,-3 0,-4 -1,-1 -1,-1 -2,-2 -1,-1 -1,-1 -2,-1 -1,0 -2,0 -3,1 0,1 -1,1 -1,2 -1,1 -1,3 -1,4 0,1 0,3 0,5 0,2 0,3 0,5 0,1 0,2 1,3 0,1 1,2 1,3 1,0 2,1 3,1 1,0 1,-1 2,-1 1,-1 1,-2 2,-3 0,-1 0,-2 0,-3 0,-2 1,-3 1,-5zm48 0c0,6 -1,10 -3,13 -3,3 -6,5 -10,5 -4,0 -7,-2 -9,-5 -2,-3 -3,-7 -3,-13 0,-3 0,-6 1,-8 0,-2 1,-4 2,-6 1,-1 3,-2 4,-3 2,-1 3,-1 5,-1 4,0 7,1 10,4 2,3 3,8 3,14zm-8 0c0,-2 0,-4 0,-5 0,-1 0,-3 -1,-4 0,-1 -1,-1 -1,-2 -1,-1 -2,-1 -3,-1 -1,0 -1,0 -2,1 -1,1 -1,1 -2,2 0,1 0,3 0,4 -1,1 -1,3 -1,5 0,2 0,3 1,5 0,1 0,2 0,3 1,1 1,2 2,3 1,0 1,1 2,1 1,0 2,-1 3,-1 0,-1 1,-2 1,-3 1,-1 1,-2 1,-3 0,-2 0,-3 0,-5zm25 -10c1,-1 2,-1 3,-2 1,0 2,-1 3,-1 1,-1 2,-2 3,-2 1,-1 2,-2 3,-3l5 0 0 35 -7 0 0 -25c-1,1 -3,1 -4,2 -1,1 -2,1 -3,1l-3 -5zm64 10c0,6 -1,10 -3,13 -2,3 -5,5 -9,5 -4,0 -7,-2 -10,-5 -2,-3 -3,-7 -3,-13 0,-3 0,-6 1,-8 1,-2 1,-4 3,-6 1,-1 2,-2 4,-3 1,-1 3,-1 5,-1 4,0 7,1 9,4 2,3 3,8 3,14zm-7 0c0,-2 0,-4 -1,-5 0,-1 0,-3 0,-4 -1,-1 -1,-1 -2,-2 -1,-1 -1,-1 -2,-1 -1,0 -2,0 -3,1 0,1 -1,1 -1,2 -1,1 -1,3 -1,4 0,1 0,3 0,5 0,2 0,3 0,5 0,1 0,2 1,3 0,1 1,2 1,3 1,0 2,1 3,1 1,0 1,-1 2,-1 1,-1 1,-2 2,-3 0,-1 0,-2 0,-3 1,-2 1,-3 1,-5zm25 -10c1,-1 2,-1 3,-2 1,0 2,-1 3,-1 1,-1 2,-2 3,-2 1,-1 1,-2 2,-3l5 0 0 35 -7 0 0 -25c-1,1 -2,1 -3,2 -2,1 -3,1 -4,1l-2 -5zm-544 113c1,-1 2,-1 3,-2 2,0 3,-1 4,-1 1,-1 2,-2 2,-2 1,-1 2,-2 3,-3l5 0 0 35 -7 0 0 -25c-1,1 -2,1 -4,2 -1,1 -2,1 -3,1l-3 -5zm41 0c1,-1 2,-1 3,-2 1,0 2,-1 3,-1 1,-1 2,-2 3,-2 1,-1 2,-2 3,-3l5 0 0 35 -8 0 0 -25c-1,1 -2,1 -3,2 -1,1 -2,1 -4,1l-2 -5zm64 10c0,6 -1,10 -3,13 -2,3 -5,5 -9,5 -4,0 -7,-2 -10,-5 -2,-3 -3,-7 -3,-13 0,-3 0,-6 1,-8 0,-2 1,-4 2,-6 2,-1 3,-2 4,-3 2,-1 4,-1 6,-1 4,0 7,1 9,4 2,3 3,8 3,14zm-7 0c0,-2 -1,-4 -1,-5 0,-1 0,-3 -1,-4 0,-1 0,-2 -1,-2 -1,-1 -1,-1 -2,-1 -1,0 -2,0 -3,1 0,0 -1,1 -1,2 -1,1 -1,3 -1,4 0,1 0,3 0,5 0,2 0,3 0,5 0,1 0,2 1,3 0,1 1,2 1,3 1,0 2,1 3,1 1,0 1,-1 2,-1 1,-1 1,-2 1,-3 1,-1 1,-2 1,-3 0,-2 1,-3 1,-5zm48 0c0,6 -1,10 -3,13 -3,3 -6,5 -10,5 -4,0 -7,-2 -9,-5 -2,-3 -3,-7 -3,-13 0,-3 0,-6 1,-8 0,-2 1,-4 2,-6 1,-1 3,-2 4,-3 2,-1 3,-1 5,-1 4,0 7,1 10,4 2,3 3,8 3,14zm-8 0c0,-2 0,-4 0,-5 0,-1 0,-3 -1,-4 0,-1 -1,-2 -1,-2 -1,-1 -2,-1 -3,-1 -1,0 -1,0 -2,1 -1,0 -1,1 -2,2 0,1 0,3 0,4 -1,1 -1,3 -1,5 0,2 0,3 1,5 0,1 0,2 0,3 1,1 1,2 2,3 1,0 1,1 2,1 1,0 2,-1 3,-1 0,-1 1,-2 1,-3 1,-1 1,-2 1,-3 0,-2 0,-3 0,-5zm25 -10c1,-1 2,-1 3,-2 1,0 2,-1 3,-1 1,-1 2,-2 3,-2 1,-1 2,-2 3,-3l5 0 0 35 -8 0 0 -25c-1,1 -2,1 -3,2 -1,1 -2,1 -4,1l-2 -5zm41 0c1,-1 2,-1 3,-2 1,0 2,-1 3,-1 1,-1 2,-2 3,-2 1,-1 2,-2 2,-3l6 0 0 35 -8 0 0 -25c-1,1 -2,1 -3,2 -1,1 -3,1 -4,1l-2 -5zm64 10c0,6 -1,10 -3,13 -3,3 -6,5 -10,5 -4,0 -7,-2 -9,-5 -2,-3 -3,-7 -3,-13 0,-3 0,-6 1,-8 0,-2 1,-4 2,-6 1,-1 3,-2 4,-3 2,-1 3,-1 5,-1 4,0 7,1 10,4 2,3 3,8 3,14zm-8 0c0,-2 0,-4 0,-5 0,-1 0,-3 -1,-4 0,-1 -1,-2 -1,-2 -1,-1 -2,-1 -3,-1 -1,0 -1,0 -2,1 -1,0 -1,1 -1,2 -1,1 -1,3 -1,4 0,1 -1,3 -1,5 0,2 1,3 1,5 0,1 0,2 1,3 0,1 0,2 1,3 1,0 1,1 2,1 1,0 2,-1 3,-1 0,-1 1,-2 1,-3 1,-1 1,-2 1,-3 0,-2 0,-3 0,-5zm49 0c0,6 -1,10 -4,13 -2,3 -5,5 -9,5 -4,0 -7,-2 -9,-5 -2,-3 -3,-7 -3,-13 0,-3 0,-6 0,-8 1,-2 2,-4 3,-6 1,-1 2,-2 4,-3 1,-1 3,-1 5,-1 4,0 7,1 9,4 3,3 4,8 4,14zm-8 0c0,-2 0,-4 0,-5 0,-1 -1,-3 -1,-4 0,-1 -1,-2 -2,-2 0,-1 -1,-1 -2,-1 -1,0 -2,0 -2,1 -1,0 -1,1 -2,2 0,1 0,3 -1,4 0,1 0,3 0,5 0,2 0,3 0,5 1,1 1,2 1,3 1,1 1,2 2,3 0,0 1,1 2,1 1,0 2,-1 2,-1 1,-1 2,-2 2,-3 0,-1 1,-2 1,-3 0,-2 0,-3 0,-5zm25 -10c1,-1 2,-1 3,-2 1,0 2,-1 3,-1 1,-1 2,-2 3,-2 1,-1 2,-2 3,-3l5 0 0 35 -8 0 0 -25c-1,1 -2,1 -3,2 -1,1 -3,1 -4,1l-2 -5zm64 10c0,6 -1,10 -3,13 -2,3 -6,5 -9,5 -4,0 -7,-2 -10,-5 -2,-3 -3,-7 -3,-13 0,-3 0,-6 1,-8 0,-2 1,-4 2,-6 1,-1 3,-2 4,-3 2,-1 4,-1 6,-1 3,0 7,1 9,4 2,3 3,8 3,14zm-8 0c0,-2 0,-4 0,-5 0,-1 0,-3 -1,-4 0,-1 0,-2 -1,-2 -1,-1 -2,-1 -2,-1 -1,0 -2,0 -3,1 0,0 -1,1 -1,2 -1,1 -1,3 -1,4 0,1 0,3 0,5 0,2 0,3 0,5 0,1 0,2 1,3 0,1 1,2 1,3 1,0 2,1 3,1 0,0 1,-1 2,-1 1,-1 1,-2 1,-3 1,-1 1,-2 1,-3 0,-2 0,-3 0,-5zm49 0c0,6 -1,10 -4,13 -2,3 -5,5 -9,5 -4,0 -7,-2 -9,-5 -2,-3 -3,-7 -3,-13 0,-3 0,-6 1,-8 0,-2 1,-4 2,-6 1,-1 2,-2 4,-3 2,-1 3,-1 5,-1 4,0 7,1 9,4 3,3 4,8 4,14zm-8 0c0,-2 0,-4 0,-5 0,-1 -1,-3 -1,-4 0,-1 -1,-2 -1,-2 -1,-1 -2,-1 -3,-1 -1,0 -1,0 -2,1 -1,0 -1,1 -2,2 0,1 0,3 0,4 -1,1 -1,3 -1,5 0,2 0,3 1,5 0,1 0,2 0,3 1,1 1,2 2,3 1,0 1,1 2,1 1,0 2,-1 3,-1 0,-1 1,-2 1,-3 0,-1 1,-2 1,-3 0,-2 0,-3 0,-5zm49 0c0,6 -2,10 -4,13 -2,3 -5,5 -9,5 -4,0 -7,-2 -9,-5 -3,-3 -4,-7 -4,-13 0,-3 1,-6 1,-8 1,-2 2,-4 3,-6 1,-1 2,-2 4,-3 1,-1 3,-1 5,-1 4,0 7,1 9,4 2,3 4,8 4,14zm-8 0c0,-2 0,-4 0,-5 -1,-1 -1,-3 -1,-4 -1,-1 -1,-2 -2,-2 0,-1 -1,-1 -2,-1 -1,0 -2,0 -2,1 -1,0 -2,1 -2,2 0,1 -1,3 -1,4 0,1 0,3 0,5 0,2 0,3 0,5 0,1 1,2 1,3 0,1 1,2 2,3 0,0 1,1 2,1 1,0 2,-1 2,-1 1,-1 1,-2 2,-3 0,-1 0,-2 1,-3 0,-2 0,-3 0,-5z"/>
   <path fill="#999999" fill-rule="nonzero" d="M2539 484c0,6 -1,10 -3,13 -2,3 -5,5 -9,5 -4,0 -7,-2 -10,-5 -2,-3 -3,-7 -3,-13 0,-3 0,-6 1,-8 1,-2 1,-4 2,-6 2,-1 3,-2 4,-3 2,-1 4,-1 6,-1 4,0 7,1 9,4 2,3 3,8 3,14zm-7 0c0,-2 -1,-4 -1,-5 0,-1 0,-3 0,-4 -1,-1 -1,-2 -2,-2 -1,-1 -1,-1 -2,-1 -1,0 -2,0 -3,1 0,0 -1,1 -1,2 -1,1 -1,3 -1,4 0,1 0,3 0,5 0,2 0,3 0,5 0,1 0,2 1,3 0,1 1,2 1,3 1,0 2,1 3,1 1,0 1,-1 2,-1 1,-1 1,-2 2,-3 0,-1 0,-2 0,-3 0,-2 1,-3 1,-5zm48 0c0,6 -1,10 -3,13 -3,3 -6,5 -10,5 -4,0 -7,-2 -9,-5 -2,-3 -3,-7 -3,-13 0,-3 0,-6 1,-8 0,-2 1,-4 2,-6 1,-1 3,-2 4,-3 2,-1 3,-1 5,-1 4,0 7,1 10,4 2,3 3,8 3,14zm-8 0c0,-2 0,-4 0,-5 0,-1 0,-3 -1,-4 0,-1 -1,-2 -1,-2 -1,-1 -2,-1 -3,-1 -1,0 -1,0 -2,1 -1,0 -1,1 -2,2 0,1 0,3 0,4 -1,1 -1,3 -1,5 0,2 0,3 1,5 0,1 0,2 0,3 1,1 1,2 2,3 1,0 1,1 2,1 1,0 2,-1 3,-1 0,-1 1,-2 1,-3 1,-1 1,-2 1,-3 0,-2 0,-3 0,-5zm49 0c0,6 -1,10 -4,13 -2,3 -5,5 -9,5 -4,0 -7,-2 -9,-5 -2,-3 -4,-7 -4,-13 0,-3 1,-6 1,-8 1,-2 2,-4 3,-6 1,-1 2,-2 4,-3 1,-1 3,-1 5,-1 4,0 7,1 9,4 3,3 4,8 4,14zm-8 0c0,-2 0,-4 0,-5 0,-1 -1,-3 -1,-4 0,-1 -1,-2 -2,-2 0,-1 -1,-1 -2,-1 -1,0 -2,0 -2,1 -1,0 -1,1 -2,2 0,1 0,3 -1,4 0,1 0,3 0,5 0,2 0,3 0,5 1,1 1,2 1,3 1,1 1,2 2,3 0,0 1,1 2,1 1,0 2,-1 2,-1 1,-1 2,-2 2,-3 0,-1 1,-2 1,-3 0,-2 0,-3 0,-5zm25 -10c1,-1 2,-1 3,-2 1,0 2,-1 3,-1 1,-1 2,-2 3,-2 1,-1 2,-2 3,-3l5 0 0 35 -8 0 0 -25c-1,1 -2,1 -3,2 -1,1 -3,1 -4,1l-2 -5zm41 0c1,-1 2,-1 3,-2 1,0 2,-1 3,-1 1,-1 2,-2 3,-2 1,-1 1,-2 2,-3l5 0 0 35 -7 0 0 -25c-1,1 -2,1 -3,2 -2,1 -3,1 -4,1l-2 -5zm64 10c0,6 -1,10 -4,13 -2,3 -5,5 -9,5 -4,0 -7,-2 -9,-5 -2,-3 -3,-7 -3,-13 0,-3 0,-6 0,-8 1,-2 2,-4 3,-6 1,-1 2,-2 4,-3 2,-1 3,-1 5,-1 4,0 7,1 9,4 3,3 4,8 4,14zm-8 0c0,-2 0,-4 0,-5 0,-1 -1,-3 -1,-4 0,-1 -1,-2 -1,-2 -1,-1 -2,-1 -3,-1 -1,0 -2,0 -2,1 -1,0 -1,1 -2,2 0,1 0,3 -1,4 0,1 0,3 0,5 0,2 0,3 0,5 1,1 1,2 1,3 1,1 1,2 2,3 0,0 1,1 2,1 1,0 2,-1 3,-1 0,-1 1,-2 1,-3 0,-1 1,-2 1,-3 0,-2 0,-3 0,-5zm48 0c0,6 -1,10 -3,13 -2,3 -5,5 -9,5 -4,0 -7,-2 -9,-5 -3,-3 -4,-7 -4,-13 0,-3 1,-6 1,-8 1,-2 2,-4 3,-6 1,-1 2,-2 4,-3 1,-1 3,-1 5,-1 4,0 7,1 9,4 2,3 3,8 3,14zm-7 0c0,-2 0,-4 0,-5 -1,-1 -1,-3 -1,-4 -1,-1 -1,-2 -2,-2 0,-1 -1,-1 -2,-1 -1,0 -2,0 -2,1 -1,0 -2,1 -2,2 0,1 -1,3 -1,4 0,1 0,3 0,5 0,2 0,3 0,5 0,1 1,2 1,3 0,1 1,2 2,3 0,0 1,1 2,1 1,0 2,-1 2,-1 1,-1 1,-2 2,-3 0,-1 0,-2 1,-3 0,-2 0,-3 0,-5zm25 -10c1,-1 2,-1 3,-2 1,0 2,-1 3,-1 1,-1 2,-2 3,-2 1,-1 2,-2 2,-3l6 0 0 35 -8 0 0 -25c-1,1 -2,1 -3,2 -2,1 -3,1 -4,1l-2 -5zm64 10c0,6 -1,10 -3,13 -3,3 -6,5 -10,5 -4,0 -7,-2 -9,-5 -2,-3 -3,-7 -3,-13 0,-3 0,-6 1,-8 0,-2 1,-4 2,-6 1,-1 3,-2 4,-3 2,-1 3,-1 5,-1 4,0 7,1 10,4 2,3 3,8 3,14zm-8 0c0,-2 0,-4 0,-5 0,-1 0,-3 -1,-4 0,-1 -1,-2 -1,-2 -1,-1 -2,-1 -3,-1 -1,0 -1,0 -2,1 -1,0 -1,1 -2,2 0,1 0,3 0,4 -1,1 -1,3 -1,5 0,2 0,3 1,5 0,1 0,2 0,3 1,1 1,2 2,3 1,0 1,1 2,1 1,0 2,-1 3,-1 0,-1 1,-2 1,-3 1,-1 1,-2 1,-3 0,-2 0,-3 0,-5zm25 -10c1,-1 2,-1 3,-2 1,0 2,-1 3,-1 1,-1 2,-2 3,-2 1,-1 2,-2 3,-3l5 0 0 35 -8 0 0 -25c-1,1 -2,1 -3,2 -1,1 -2,1 -4,1l-2 -5zm64 10c0,6 -1,10 -3,13 -2,3 -5,5 -9,5 -4,0 -7,-2 -10,-5 -2,-3 -3,-7 -3,-13 0,-3 0,-6 1,-8 1,-2 1,-4 3,-6 1,-1 2,-2 3,-3 2,-1 4,-1 6,-1 4,0 7,1 9,4 2,3 3,8 3,14zm-7 0c0,-2 0,-4 -1,-5 0,-1 0,-3 0,-4 -1,-1 -1,-2 -2,-2 -1,-1 -1,-1 -2,-1 -1,0 -2,0 -3,1 0,0 -1,1 -1,2 -1,1 -1,3 -1,4 0,1 0,3 0,5 0,2 0,3 0,5 0,1 0,2 1,3 0,1 1,2 1,3 1,0 2,1 3,1 1,0 1,-1 2,-1 1,-1 1,-2 2,-3 0,-1 0,-2 0,-3 1,-2 1,-3 1,-5zm48 0c0,6 -1,10 -3,13 -3,3 -6,5 -10,5 -4,0 -7,-2 -9,-5 -2,-3 -3,-7 -3,-13 0,-3 0,-6 1,-8 0,-2 1,-4 2,-6 1,-1 3,-2 4,-3 2,-1 3,-1 5,-1 4,0 7,1 10,4 2,3 3,8 3,14zm-8 0c0,-2 0,-4 0,-5 0,-1 0,-3 -1,-4 0,-1 -1,-2 -1,-2 -1,-1 -2,-1 -3,-1 -1,0 -1,0 -2,1 -1,0 -1,1 -1,2 -1,1 -1,3 -1,4 0,1 -1,3 -1,5 0,2 1,3 1,5 0,1 0,2 1,3 0,1 0,2 1,3 1,0 1,1 2,1 1,0 2,-1 3,-1 0,-1 1,-2 1,-3 1,-1 1,-2 1,-3 0,-2 0,-3 0,-5zm25 -10c1,-1 2,-1 3,-2 1,0 2,-1 3,-1 1,-1 2,-2 3,-2 1,-1 2,-2 3,-3l5 0 0 35 -7 0 0 -25c-1,1 -3,1 -4,2 -1,1 -2,1 -3,1l-3 -5zm-953 123c0,6 -1,10 -4,13 -2,3 -5,5 -9,5 -4,0 -7,-2 -9,-5 -2,-3 -3,-7 -3,-13 0,-3 0,-6 0,-8 1,-2 2,-4 3,-6 1,-1 2,-2 4,-3 2,-1 3,-1 5,-1 4,0 7,1 9,4 3,3 4,8 4,14zm-8 0c0,-2 0,-4 0,-5 0,-1 -1,-3 -1,-4 0,-1 -1,-2 -1,-2 -1,-1 -2,-1 -3,-1 -1,0 -2,0 -2,1 -1,0 -1,1 -2,2 0,1 0,3 0,4 -1,1 -1,3 -1,5 0,1 0,3 1,4 0,2 0,3 0,4 1,1 1,2 2,3 0,0 1,0 2,0 1,0 2,0 3,0 0,-1 1,-2 1,-3 0,-1 1,-2 1,-4 0,-1 0,-3 0,-4zm48 0c0,6 -1,10 -3,13 -2,3 -5,5 -9,5 -4,0 -7,-2 -9,-5 -3,-3 -4,-7 -4,-13 0,-3 1,-6 1,-8 1,-2 2,-4 3,-6 1,-1 2,-2 4,-3 1,-1 3,-1 5,-1 4,0 7,1 9,4 2,3 3,8 3,14zm-7 0c0,-2 0,-4 0,-5 -1,-1 -1,-3 -1,-4 -1,-1 -1,-2 -2,-2 0,-1 -1,-1 -2,-1 -1,0 -2,0 -2,1 -1,0 -2,1 -2,2 0,1 -1,3 -1,4 0,1 0,3 0,5 0,1 0,3 0,4 0,2 1,3 1,4 0,1 1,2 2,3 0,0 1,0 2,0 1,0 2,0 2,0 1,-1 1,-2 2,-3 0,-1 0,-2 1,-4 0,-1 0,-3 0,-4zm48 0c0,6 -1,10 -3,13 -2,3 -5,5 -9,5 -4,0 -7,-2 -10,-5 -2,-3 -3,-7 -3,-13 0,-3 0,-6 1,-8 0,-2 1,-4 2,-6 2,-1 3,-2 4,-3 2,-1 4,-1 6,-1 4,0 7,1 9,4 2,3 3,8 3,14zm-7 0c0,-2 -1,-4 -1,-5 0,-1 0,-3 -1,-4 0,-1 0,-2 -1,-2 -1,-1 -1,-1 -2,-1 -1,0 -2,0 -3,1 0,0 -1,1 -1,2 -1,1 -1,3 -1,4 0,1 0,3 0,5 0,1 0,3 0,4 0,2 0,3 1,4 0,1 1,2 1,3 1,0 2,0 3,0 1,0 1,0 2,0 1,-1 1,-2 1,-3 1,-1 1,-2 1,-4 0,-1 1,-3 1,-4zm48 0c0,6 -1,10 -3,13 -3,3 -6,5 -10,5 -4,0 -7,-2 -9,-5 -2,-3 -3,-7 -3,-13 0,-3 0,-6 1,-8 0,-2 1,-4 2,-6 1,-1 3,-2 4,-3 2,-1 3,-1 5,-1 4,0 7,1 10,4 2,3 3,8 3,14zm-8 0c0,-2 0,-4 0,-5 0,-1 0,-3 -1,-4 0,-1 -1,-2 -1,-2 -1,-1 -2,-1 -3,-1 -1,0 -1,0 -2,1 -1,0 -1,1 -2,2 0,1 0,3 0,4 -1,1 -1,3 -1,5 0,1 0,3 1,4 0,2 0,3 0,4 1,1 1,2 2,3 1,0 1,0 2,0 1,0 2,0 3,0 0,-1 1,-2 1,-3 1,-1 1,-2 1,-4 0,-1 0,-3 0,-4zm49 0c0,6 -2,10 -4,13 -2,3 -5,5 -9,5 -4,0 -7,-2 -9,-5 -2,-3 -4,-7 -4,-13 0,-3 1,-6 1,-8 1,-2 2,-4 3,-6 1,-1 2,-2 4,-3 1,-1 3,-1 5,-1 4,0 7,1 9,4 2,3 4,8 4,14zm-8 0c0,-2 0,-4 0,-5 0,-1 -1,-3 -1,-4 0,-1 -1,-2 -2,-2 0,-1 -1,-1 -2,-1 -1,0 -2,0 -2,1 -1,0 -1,1 -2,2 0,1 -1,3 -1,4 0,1 0,3 0,5 0,1 0,3 0,4 0,2 1,3 1,4 1,1 1,2 2,3 0,0 1,0 2,0 1,0 2,0 2,0 1,-1 2,-2 2,-3 0,-1 1,-2 1,-4 0,-1 0,-3 0,-4zm48 0c0,6 -1,10 -3,13 -2,3 -5,5 -9,5 -4,0 -7,-2 -10,-5 -2,-3 -3,-7 -3,-13 0,-3 0,-6 1,-8 1,-2 1,-4 3,-6 1,-1 2,-2 4,-3 1,-1 3,-1 5,-1 4,0 7,1 9,4 2,3 3,8 3,14zm-7 0c0,-2 0,-4 -1,-5 0,-1 0,-3 0,-4 -1,-1 -1,-2 -2,-2 -1,-1 -1,-1 -2,-1 -1,0 -2,0 -3,1 0,0 -1,1 -1,2 -1,1 -1,3 -1,4 0,1 0,3 0,5 0,1 0,3 0,4 0,2 0,3 1,4 0,1 1,2 1,3 1,0 2,0 3,0 1,0 1,0 2,0 1,-1 1,-2 2,-3 0,-1 0,-2 0,-4 1,-1 1,-3 1,-4zm25 -10c1,-1 2,-1 3,-2 1,0 2,-1 3,-2 1,0 2,-1 3,-1 1,-1 1,-2 2,-3l5 0 0 35 -7 0 0 -25c-1,1 -2,1 -3,2 -2,0 -3,1 -4,1l-2 -5zm40 0c1,-1 2,-1 3,-2 1,0 2,-1 3,-2 1,0 2,-1 3,-1 1,-1 2,-2 3,-3l5 0 0 35 -7 0 0 -25c-1,1 -3,1 -4,2 -1,0 -2,1 -3,1l-3 -5zm41 0c1,-1 2,-1 3,-2 1,0 2,-1 3,-2 1,0 2,-1 3,-1 1,-1 2,-2 3,-3l5 0 0 35 -8 0 0 -25c-1,1 -2,1 -3,2 -1,0 -3,1 -4,1l-2 -5zm64 10c0,6 -1,10 -3,13 -2,3 -6,5 -9,5 -4,0 -7,-2 -10,-5 -2,-3 -3,-7 -3,-13 0,-3 0,-6 1,-8 0,-2 1,-4 2,-6 1,-1 3,-2 4,-3 2,-1 4,-1 6,-1 3,0 7,1 9,4 2,3 3,8 3,14zm-8 0c0,-2 0,-4 0,-5 0,-1 0,-3 -1,-4 0,-1 0,-2 -1,-2 -1,-1 -2,-1 -2,-1 -1,0 -2,0 -3,1 0,0 -1,1 -1,2 -1,1 -1,3 -1,4 0,1 0,3 0,5 0,1 0,3 0,4 0,2 0,3 1,4 0,1 1,2 1,3 1,0 2,0 3,0 0,0 1,0 2,0 1,-1 1,-2 1,-3 1,-1 1,-2 1,-4 0,-1 0,-3 0,-4zm49 0c0,6 -1,10 -4,13 -2,3 -5,5 -9,5 -4,0 -7,-2 -9,-5 -2,-3 -3,-7 -3,-13 0,-3 0,-6 1,-8 0,-2 1,-4 2,-6 1,-1 2,-2 4,-3 2,-1 3,-1 5,-1 4,0 7,1 9,4 3,3 4,8 4,14zm-8 0c0,-2 0,-4 0,-5 0,-1 -1,-3 -1,-4 0,-1 -1,-2 -1,-2 -1,-1 -2,-1 -3,-1 -1,0 -1,0 -2,1 -1,0 -1,1 -2,2 0,1 0,3 0,4 -1,1 -1,3 -1,5 0,1 0,3 1,4 0,2 0,3 0,4 1,1 1,2 2,3 1,0 1,0 2,0 1,0 2,0 3,0 0,-1 1,-2 1,-3 0,-1 1,-2 1,-4 0,-1 0,-3 0,-4zm49 0c0,6 -2,10 -4,13 -2,3 -5,5 -9,5 -4,0 -7,-2 -9,-5 -3,-3 -4,-7 -4,-13 0,-3 1,-6 1,-8 1,-2 2,-4 3,-6 1,-1 2,-2 4,-3 1,-1 3,-1 5,-1 4,0 7,1 9,4 2,3 4,8 4,14zm-8 0c0,-2 0,-4 0,-5 -1,-1 -1,-3 -1,-4 -1,-1 -1,-2 -2,-2 0,-1 -1,-1 -2,-1 -1,0 -2,0 -2,1 -1,0 -2,1 -2,2 0,1 -1,3 -1,4 0,1 0,3 0,5 0,1 0,3 0,4 0,2 1,3 1,4 0,1 1,2 2,3 0,0 1,0 2,0 1,0 2,0 2,0 1,-1 1,-2 2,-3 0,-1 0,-2 1,-4 0,-1 0,-3 0,-4z"/>
   <path fill="#999999" fill-rule="nonzero" d="M2539 597c0,6 -1,10 -3,13 -2,3 -5,5 -9,5 -4,0 -7,-2 -10,-5 -2,-3 -3,-7 -3,-13 0,-3 0,-6 1,-8 1,-2 1,-4 2,-6 2,-1 3,-2 4,-3 2,-1 4,-1 6,-1 4,0 7,1 9,4 2,3 3,8 3,14zm-7 0c0,-2 -1,-4 -1,-5 0,-1 0,-3 0,-4 -1,-1 -1,-2 -2,-2 -1,-1 -1,-1 -2,-1 -1,0 -2,0 -3,1 0,0 -1,1 -1,2 -1,1 -1,3 -1,4 0,1 0,3 0,5 0,1 0,3 0,4 0,2 0,3 1,4 0,1 1,2 1,3 1,0 2,0 3,0 1,0 1,0 2,0 1,-1 1,-2 2,-3 0,-1 0,-2 0,-4 0,-1 1,-3 1,-4zm48 0c0,6 -1,10 -3,13 -3,3 -6,5 -10,5 -4,0 -7,-2 -9,-5 -2,-3 -3,-7 -3,-13 0,-3 0,-6 1,-8 0,-2 1,-4 2,-6 1,-1 3,-2 4,-3 2,-1 3,-1 5,-1 4,0 7,1 10,4 2,3 3,8 3,14zm-8 0c0,-2 0,-4 0,-5 0,-1 0,-3 -1,-4 0,-1 -1,-2 -1,-2 -1,-1 -2,-1 -3,-1 -1,0 -1,0 -2,1 -1,0 -1,1 -2,2 0,1 0,3 0,4 -1,1 -1,3 -1,5 0,1 0,3 1,4 0,2 0,3 0,4 1,1 1,2 2,3 1,0 1,0 2,0 1,0 2,0 3,0 0,-1 1,-2 1,-3 1,-1 1,-2 1,-4 0,-1 0,-3 0,-4zm25 -10c1,-1 2,-1 3,-2 1,0 2,-1 3,-2 1,0 2,-1 3,-1 1,-1 2,-2 3,-3l5 0 0 35 -7 0 0 -25c-1,1 -3,1 -4,2 -1,0 -2,1 -3,1l-3 -5zm41 0c1,-1 2,-1 3,-2 1,0 2,-1 3,-2 1,0 2,-1 3,-1 1,-1 2,-2 3,-3l5 0 0 35 -8 0 0 -25c-1,1 -2,1 -3,2 -1,0 -3,1 -4,1l-2 -5zm64 10c0,6 -1,10 -3,13 -3,3 -6,5 -10,5 -3,0 -7,-2 -9,-5 -2,-3 -3,-7 -3,-13 0,-3 0,-6 1,-8 0,-2 1,-4 2,-6 1,-1 3,-2 4,-3 2,-1 4,-1 5,-1 4,0 7,1 10,4 2,3 3,8 3,14zm-8 0c0,-2 0,-4 0,-5 0,-1 0,-3 -1,-4 0,-1 -1,-2 -1,-2 -1,-1 -2,-1 -3,-1 0,0 -1,0 -2,1 -1,0 -1,1 -1,2 -1,1 -1,3 -1,4 0,1 0,3 0,5 0,1 0,3 0,4 0,2 0,3 1,4 0,1 0,2 1,3 1,0 2,0 2,0 1,0 2,0 3,0 0,-1 1,-2 1,-3 1,-1 1,-2 1,-4 0,-1 0,-3 0,-4zm49 0c0,6 -1,10 -4,13 -2,3 -5,5 -9,5 -4,0 -7,-2 -9,-5 -2,-3 -3,-7 -3,-13 0,-3 0,-6 0,-8 1,-2 2,-4 3,-6 1,-1 2,-2 4,-3 2,-1 3,-1 5,-1 4,0 7,1 9,4 3,3 4,8 4,14zm-8 0c0,-2 0,-4 0,-5 0,-1 -1,-3 -1,-4 0,-1 -1,-2 -1,-2 -1,-1 -2,-1 -3,-1 -1,0 -2,0 -2,1 -1,0 -1,1 -2,2 0,1 0,3 -1,4 0,1 0,3 0,5 0,1 0,3 0,4 1,2 1,3 1,4 1,1 1,2 2,3 0,0 1,0 2,0 1,0 2,0 3,0 0,-1 1,-2 1,-3 0,-1 1,-2 1,-4 0,-1 0,-3 0,-4zm48 0c0,6 -1,10 -3,13 -2,3 -5,5 -9,5 -4,0 -7,-2 -9,-5 -3,-3 -4,-7 -4,-13 0,-3 1,-6 1,-8 1,-2 2,-4 3,-6 1,-1 2,-2 4,-3 1,-1 3,-1 5,-1 4,0 7,1 9,4 2,3 3,8 3,14zm-7 0c0,-2 0,-4 0,-5 -1,-1 -1,-3 -1,-4 -1,-1 -1,-2 -2,-2 0,-1 -1,-1 -2,-1 -1,0 -2,0 -2,1 -1,0 -2,1 -2,2 0,1 -1,3 -1,4 0,1 0,3 0,5 0,1 0,3 0,4 0,2 1,3 1,4 0,1 1,2 2,3 0,0 1,0 2,0 1,0 2,0 2,0 1,-1 1,-2 2,-3 0,-1 0,-2 1,-4 0,-1 0,-3 0,-4zm48 0c0,6 -1,10 -3,13 -2,3 -6,5 -9,5 -4,0 -7,-2 -10,-5 -2,-3 -3,-7 -3,-13 0,-3 0,-6 1,-8 0,-2 1,-4 2,-6 2,-1 3,-2 4,-3 2,-1 4,-1 6,-1 3,0 7,1 9,4 2,3 3,8 3,14zm-8 0c0,-2 0,-4 0,-5 0,-1 0,-3 -1,-4 0,-1 0,-2 -1,-2 -1,-1 -1,-1 -2,-1 -1,0 -2,0 -3,1 0,0 -1,1 -1,2 -1,1 -1,3 -1,4 0,1 0,3 0,5 0,1 0,3 0,4 0,2 0,3 1,4 0,1 1,2 1,3 1,0 2,0 3,0 1,0 1,0 2,0 1,-1 1,-2 1,-3 1,-1 1,-2 1,-4 0,-1 0,-3 0,-4zm25 -10c1,-1 2,-1 4,-2 1,0 2,-1 3,-2 1,0 2,-1 3,-1 0,-1 1,-2 2,-3l5 0 0 35 -7 0 0 -25c-1,1 -2,1 -4,2 -1,0 -2,1 -3,1l-3 -5zm65 10c0,6 -2,10 -4,13 -2,3 -5,5 -9,5 -4,0 -7,-2 -9,-5 -3,-3 -4,-7 -4,-13 0,-3 1,-6 1,-8 1,-2 2,-4 3,-6 1,-1 2,-2 4,-3 1,-1 3,-1 5,-1 4,0 7,1 9,4 2,3 4,8 4,14zm-8 0c0,-2 0,-4 0,-5 -1,-1 -1,-3 -1,-4 -1,-1 -1,-2 -2,-2 0,-1 -1,-1 -2,-1 -1,0 -2,0 -2,1 -1,0 -1,1 -2,2 0,1 -1,3 -1,4 0,1 0,3 0,5 0,1 0,3 0,4 0,2 1,3 1,4 1,1 1,2 2,3 0,0 1,0 2,0 1,0 2,0 2,0 1,-1 1,-2 2,-3 0,-1 0,-2 1,-4 0,-1 0,-3 0,-4zm25 -10c1,-1 2,-1 3,-2 1,0 2,-1 3,-2 1,0 2,-1 3,-1 1,-1 2,-2 2,-3l6 0 0 35 -8 0 0 -25c-1,1 -2,1 -3,2 -1,0 -3,1 -4,1l-2 -5zm41 0c1,-1 2,-1 3,-2 1,0 2,-1 3,-2 1,0 2,-1 3,-1 1,-1 1,-2 2,-3l5 0 0 35 -7 0 0 -25c-1,1 -2,1 -4,2 -1,0 -2,1 -3,1l-2 -5zm64 10c0,6 -1,10 -4,13 -2,3 -5,5 -9,5 -4,0 -7,-2 -9,-5 -2,-3 -4,-7 -4,-13 0,-3 1,-6 1,-8 1,-2 2,-4 3,-6 1,-1 2,-2 4,-3 1,-1 3,-1 5,-1 4,0 7,1 9,4 3,3 4,8 4,14zm-8 0c0,-2 0,-4 0,-5 0,-1 -1,-3 -1,-4 0,-1 -1,-2 -2,-2 0,-1 -1,-1 -2,-1 -1,0 -2,0 -2,1 -1,0 -1,1 -2,2 0,1 0,3 -1,4 0,1 0,3 0,5 0,1 0,3 0,4 1,2 1,3 1,4 1,1 1,2 2,3 0,0 1,0 2,0 1,0 2,0 2,0 1,-1 2,-2 2,-3 0,-1 1,-2 1,-4 0,-1 0,-3 0,-4zm-824 113c0,6 -1,10 -3,13 -3,3 -6,5 -10,5 -4,0 -7,-2 -9,-5 -2,-3 -3,-7 -3,-13 0,-3 0,-6 1,-8 0,-2 1,-4 2,-6 1,-1 3,-3 4,-3 2,-1 3,-2 5,-2 4,0 7,2 10,5 2,3 3,8 3,14zm-8 0c0,-2 0,-4 0,-5 0,-2 0,-3 -1,-4 0,-1 -1,-2 -1,-2 -1,-1 -2,-1 -3,-1 -1,0 -1,0 -2,1 -1,0 -1,1 -2,2 0,1 0,2 0,4 -1,1 -1,3 -1,5 0,1 0,3 1,4 0,2 0,3 0,4 1,1 1,2 2,3 1,0 1,0 2,0 1,0 2,0 3,0 0,-1 1,-2 1,-3 1,-1 1,-2 1,-4 0,-1 0,-3 0,-4zm25 -10c1,-1 2,-1 3,-2 1,0 2,-1 3,-2 1,0 2,-1 3,-2 1,0 2,-1 3,-2l5 0 0 35 -8 0 0 -25c-1,1 -2,1 -3,2 -1,0 -2,1 -4,1l-2 -5zm41 0c1,-1 2,-1 3,-2 1,0 2,-1 3,-2 1,0 2,-1 3,-2 1,0 2,-1 2,-2l6 0 0 35 -8 0 0 -25c-1,1 -2,1 -3,2 -1,0 -3,1 -4,1l-2 -5zm41 0c1,-1 2,-1 3,-2 1,0 2,-1 3,-2 1,0 2,-1 3,-2 1,0 1,-1 2,-2l5 0 0 35 -7 0 0 -25c-1,1 -2,1 -4,2 -1,0 -2,1 -3,1l-2 -5zm64 10c0,6 -1,10 -4,13 -2,3 -5,5 -9,5 -4,0 -7,-2 -9,-5 -2,-3 -4,-7 -4,-13 0,-3 1,-6 1,-8 1,-2 2,-4 3,-6 1,-1 2,-3 4,-3 1,-1 3,-2 5,-2 4,0 7,2 9,5 3,3 4,8 4,14zm-8 0c0,-2 0,-4 0,-5 0,-2 -1,-3 -1,-4 0,-1 -1,-2 -2,-2 0,-1 -1,-1 -2,-1 -1,0 -2,0 -2,1 -1,0 -1,1 -2,2 0,1 0,2 -1,4 0,1 0,3 0,5 0,1 0,3 0,4 1,2 1,3 1,4 1,1 1,2 2,3 0,0 1,0 2,0 1,0 2,0 2,0 1,-1 2,-2 2,-3 0,-1 1,-2 1,-4 0,-1 0,-3 0,-4zm25 -10c1,-1 2,-1 3,-2 1,0 2,-1 3,-2 1,0 2,-1 3,-2 1,0 2,-1 3,-2l5 0 0 35 -8 0 0 -25c-1,1 -2,1 -3,2 -1,0 -3,1 -4,1l-2 -5zm41 0c1,-1 2,-1 3,-2 1,0 2,-1 3,-2 1,0 2,-1 3,-2 1,0 2,-1 2,-2l5 0 0 35 -7 0 0 -25c-1,1 -2,1 -3,2 -2,0 -3,1 -4,1l-2 -5zm40 0c1,-1 2,-1 3,-2 2,0 3,-1 4,-2 1,0 2,-1 2,-2 1,0 2,-1 3,-2l5 0 0 35 -7 0 0 -25c-1,1 -2,1 -4,2 -1,0 -2,1 -3,1l-3 -5zm64 10c0,6 -1,10 -3,13 -2,3 -5,5 -9,5 -4,0 -7,-2 -9,-5 -3,-3 -4,-7 -4,-13 0,-3 1,-6 1,-8 1,-2 2,-4 3,-6 1,-1 2,-3 4,-3 1,-1 3,-2 5,-2 4,0 7,2 9,5 2,3 3,8 3,14zm-7 0c0,-2 0,-4 0,-5 -1,-2 -1,-3 -1,-4 -1,-1 -1,-2 -2,-2 0,-1 -1,-1 -2,-1 -1,0 -2,0 -2,1 -1,0 -2,1 -2,2 0,1 -1,2 -1,4 0,1 0,3 0,5 0,1 0,3 0,4 0,2 1,3 1,4 0,1 1,2 2,3 0,0 1,0 2,0 1,0 2,0 2,0 1,-1 1,-2 2,-3 0,-1 0,-2 1,-4 0,-1 0,-3 0,-4zm25 -10c1,-1 2,-1 3,-2 1,0 2,-1 3,-2 1,0 2,-1 3,-2 1,0 2,-1 2,-2l6 0 0 35 -8 0 0 -25c-1,1 -2,1 -3,2 -2,0 -3,1 -4,1l-2 -5zm64 10c0,6 -1,10 -3,13 -3,3 -6,5 -10,5 -4,0 -7,-2 -9,-5 -2,-3 -3,-7 -3,-13 0,-3 0,-6 1,-8 0,-2 1,-4 2,-6 1,-1 3,-3 4,-3 2,-1 3,-2 5,-2 4,0 7,2 10,5 2,3 3,8 3,14zm-8 0c0,-2 0,-4 0,-5 0,-2 0,-3 -1,-4 0,-1 -1,-2 -1,-2 -1,-1 -2,-1 -3,-1 -1,0 -1,0 -2,1 -1,0 -1,1 -2,2 0,1 0,2 0,4 -1,1 -1,3 -1,5 0,1 0,3 1,4 0,2 0,3 0,4 1,1 1,2 2,3 1,0 1,0 2,0 1,0 2,0 3,0 0,-1 1,-2 1,-3 1,-1 1,-2 1,-4 0,-1 0,-3 0,-4zm25 -10c1,-1 2,-1 3,-2 1,0 2,-1 3,-2 1,0 2,-1 3,-2 1,0 2,-1 3,-2l5 0 0 35 -7 0 0 -25c-2,1 -3,1 -4,2 -1,0 -2,1 -4,1l-2 -5zm64 10c0,6 -1,10 -3,13 -2,3 -5,5 -9,5 -4,0 -7,-2 -10,-5 -2,-3 -3,-7 -3,-13 0,-3 0,-6 1,-8 1,-2 1,-4 3,-6 1,-1 2,-3 4,-3 1,-1 3,-2 5,-2 4,0 7,2 9,5 2,3 3,8 3,14zm-7 0c0,-2 0,-4 -1,-5 0,-2 0,-3 0,-4 -1,-1 -1,-2 -2,-2 -1,-1 -1,-1 -2,-1 -1,0 -2,0 -3,1 0,0 -1,1 -1,2 -1,1 -1,2 -1,4 0,1 0,3 0,5 0,1 0,3 0,4 0,2 0,3 1,4 0,1 1,2 1,3 1,0 2,0 3,0 1,0 1,0 2,0 1,-1 1,-2 2,-3 0,-1 0,-2 0,-4 1,-1 1,-3 1,-4zm25 -10c1,-1 2,-1 3,-2 1,0 2,-1 3,-2 1,0 2,-1 3,-2 1,0 1,-1 2,-2l5 0 0 35 -7 0 0 -25c-1,1 -2,1 -3,2 -2,0 -3,1 -4,1l-2 -5zm40 0c1,-1 2,-1 3,-2 1,0 2,-1 3,-2 1,0 2,-1 3,-2 1,0 2,-1 3,-2l5 0 0 35 -7 0 0 -25c-1,1 -3,1 -4,2 -1,0 -2,1 -3,1l-3 -5zm64 10c0,6 -1,10 -3,13 -2,3 -5,5 -9,5 -4,0 -7,-2 -9,-5 -3,-3 -4,-7 -4,-13 0,-3 1,-6 1,-8 1,-2 2,-4 3,-6 1,-1 2,-3 4,-3 1,-1 3,-2 5,-2 4,0 7,2 9,5 2,3 3,8 3,14zm-7 0c0,-2 0,-4 0,-5 -1,-2 -1,-3 -1,-4 -1,-1 -1,-2 -2,-2 0,-1 -1,-1 -2,-1 -1,0 -2,0 -3,1 0,0 -1,1 -1,2 0,1 -1,2 -1,4 0,1 0,3 0,5 0,1 0,3 0,4 0,2 1,3 1,4 0,1 1,2 1,3 1,0 2,0 3,0 1,0 2,0 2,0 1,-1 1,-2 2,-3 0,-1 0,-2 1,-4 0,-1 0,-3 0,-4zm145 0c0,6 -1,10 -4,13 -2,3 -5,5 -9,5 -4,0 -7,-2 -9,-5 -2,-3 -3,-7 -3,-13 0,-3 0,-6 1,-8 0,-2 1,-4 2,-6 1,-1 3,-3 4,-3 2,-1 3,-2 5,-2 4,0 7,2 9,5 3,3 4,8 4,14zm-8 0c0,-2 0,-4 0,-5 0,-2 0,-3 -1,-4 0,-1 -1,-2 -1,-2 -1,-1 -2,-1 -3,-1 -1,0 -1,0 -2,1 -1,0 -1,1 -2,2 0,1 0,2 0,4 -1,1 -1,3 -1,5 0,1 0,3 1,4 0,2 0,3 0,4 1,1 1,2 2,3 1,0 1,0 2,0 1,0 2,0 3,0 0,-1 1,-2 1,-3 1,-1 1,-2 1,-4 0,-1 0,-3 0,-4zm25 -10c1,-1 2,-1 3,-2 1,0 2,-1 3,-2 1,0 2,-1 3,-2 1,0 2,-1 3,-2l5 0 0 35 -8 0 0 -25c-1,1 -2,1 -3,2 -1,0 -2,1 -4,1l-2 -5z"/>
   <path fill="#999999" fill-rule="nonzero" d="M3025 710c0,6 -1,10 -3,13 -2,3 -5,5 -9,5 -4,0 -7,-2 -10,-5 -2,-3 -3,-7 -3,-13 0,-3 0,-6 1,-8 1,-2 1,-4 2,-6 2,-1 3,-3 4,-3 2,-1 4,-2 6,-2 4,0 7,2 9,5 2,3 3,8 3,14zm-7 0c0,-2 0,-4 -1,-5 0,-2 0,-3 0,-4 -1,-1 -1,-2 -2,-2 -1,-1 -1,-1 -2,-1 -1,0 -2,0 -3,1 0,0 -1,1 -1,2 -1,1 -1,2 -1,4 0,1 0,3 0,5 0,1 0,3 0,4 0,2 0,3 1,4 0,1 1,2 1,3 1,0 2,0 3,0 1,0 1,0 2,0 1,-1 1,-2 2,-3 0,-1 0,-2 0,-4 1,-1 1,-3 1,-4zm-604 102c1,0 2,0 3,-1 1,0 2,-1 3,-2 1,0 2,-1 3,-2 1,0 2,-1 3,-2l5 0 0 35 -7 0 0 -25c-1,1 -3,1 -4,2 -1,0 -2,1 -3,1l-3 -6zm64 11c0,5 -1,10 -3,13 -2,3 -5,5 -9,5 -4,0 -7,-2 -9,-5 -3,-3 -4,-8 -4,-13 0,-3 0,-6 1,-8 1,-2 1,-4 3,-6 1,-1 2,-3 4,-3 1,-1 3,-2 5,-2 4,0 7,2 9,5 2,3 3,8 3,14zm-7 0c0,-2 0,-4 -1,-5 0,-2 0,-3 0,-4 -1,-1 -1,-2 -2,-2 0,-1 -1,-1 -2,-1 -1,0 -2,0 -3,1 0,0 -1,1 -1,2 0,1 -1,2 -1,4 0,1 0,3 0,5 0,1 0,3 0,4 0,2 1,3 1,4 0,1 1,2 1,3 1,0 2,0 3,0 1,0 2,0 2,0 1,-1 1,-2 2,-3 0,-1 0,-2 0,-4 1,-1 1,-3 1,-4zm48 0c0,5 -1,10 -3,13 -3,3 -6,5 -10,5 -3,0 -7,-2 -9,-5 -2,-3 -3,-8 -3,-13 0,-3 0,-6 1,-8 0,-2 1,-4 2,-6 1,-1 3,-3 4,-3 2,-1 4,-2 5,-2 4,0 7,2 10,5 2,3 3,8 3,14zm-8 0c0,-2 0,-4 0,-5 0,-2 0,-3 -1,-4 0,-1 -1,-2 -1,-2 -1,-1 -2,-1 -3,-1 0,0 -1,0 -2,1 0,0 -1,1 -1,2 -1,1 -1,2 -1,4 0,1 0,3 0,5 0,1 0,3 0,4 0,2 0,3 1,4 0,1 1,2 1,3 1,0 2,0 2,0 1,0 2,0 3,0 0,-1 1,-2 1,-3 1,-1 1,-2 1,-4 0,-1 0,-3 0,-4zm25 -11c1,0 2,0 3,-1 2,0 3,-1 4,-2 1,0 2,-1 2,-2 1,0 2,-1 3,-2l5 0 0 35 -7 0 0 -25c-1,1 -2,1 -4,2 -1,0 -2,1 -3,1l-3 -6zm64 11c0,5 -1,10 -3,13 -2,3 -5,5 -9,5 -4,0 -7,-2 -9,-5 -3,-3 -4,-8 -4,-13 0,-3 1,-6 1,-8 1,-2 2,-4 3,-6 1,-1 2,-3 4,-3 1,-1 3,-2 5,-2 4,0 7,2 9,5 2,3 3,8 3,14zm-7 0c0,-2 0,-4 0,-5 -1,-2 -1,-3 -1,-4 -1,-1 -1,-2 -2,-2 0,-1 -1,-1 -2,-1 -1,0 -2,0 -2,1 -1,0 -2,1 -2,2 0,1 -1,2 -1,4 0,1 0,3 0,5 0,1 0,3 0,4 0,2 1,3 1,4 0,1 1,2 2,3 0,0 1,0 2,0 1,0 2,0 2,0 1,-1 1,-2 2,-3 0,-1 0,-2 1,-4 0,-1 0,-3 0,-4zm48 0c0,5 -1,10 -3,13 -2,3 -5,5 -9,5 -4,0 -7,-2 -10,-5 -2,-3 -3,-8 -3,-13 0,-3 0,-6 1,-8 0,-2 1,-4 2,-6 2,-1 3,-3 4,-3 2,-1 4,-2 6,-2 4,0 7,2 9,5 2,3 3,8 3,14zm-7 0c0,-2 -1,-4 -1,-5 0,-2 0,-3 -1,-4 0,-1 0,-2 -1,-2 -1,-1 -1,-1 -2,-1 -1,0 -2,0 -3,1 0,0 -1,1 -1,2 -1,1 -1,2 -1,4 0,1 0,3 0,5 0,1 0,3 0,4 0,2 0,3 1,4 0,1 1,2 1,3 1,0 2,0 3,0 1,0 1,0 2,0 1,-1 1,-2 1,-3 1,-1 1,-2 1,-4 0,-1 1,-3 1,-4zm48 0c0,5 -1,10 -3,13 -3,3 -6,5 -10,5 -4,0 -7,-2 -9,-5 -2,-3 -3,-8 -3,-13 0,-3 0,-6 1,-8 0,-2 1,-4 2,-6 1,-1 3,-3 4,-3 2,-1 3,-2 5,-2 4,0 7,2 10,5 2,3 3,8 3,14zm-8 0c0,-2 0,-4 0,-5 0,-2 0,-3 -1,-4 0,-1 -1,-2 -1,-2 -1,-1 -2,-1 -3,-1 -1,0 -1,0 -2,1 -1,0 -1,1 -2,2 0,1 0,2 0,4 -1,1 -1,3 -1,5 0,1 0,3 1,4 0,2 0,3 0,4 1,1 1,2 2,3 1,0 1,0 2,0 1,0 2,0 3,0 0,-1 1,-2 1,-3 1,-1 1,-2 1,-4 0,-1 0,-3 0,-4zm49 0c0,5 -2,10 -4,13 -2,3 -5,5 -9,5 -4,0 -7,-2 -9,-5 -2,-3 -4,-8 -4,-13 0,-3 1,-6 1,-8 1,-2 2,-4 3,-6 1,-1 2,-3 4,-3 1,-1 3,-2 5,-2 4,0 7,2 9,5 2,3 4,8 4,14zm-8 0c0,-2 0,-4 0,-5 0,-2 -1,-3 -1,-4 0,-1 -1,-2 -2,-2 0,-1 -1,-1 -2,-1 -1,0 -2,0 -2,1 -1,0 -1,1 -2,2 0,1 -1,2 -1,4 0,1 0,3 0,5 0,1 0,3 0,4 0,2 1,3 1,4 1,1 1,2 2,3 0,0 1,0 2,0 1,0 2,0 2,0 1,-1 2,-2 2,-3 0,-1 1,-2 1,-4 0,-1 0,-3 0,-4zm48 0c0,5 -1,10 -3,13 -2,3 -5,5 -9,5 -4,0 -7,-2 -10,-5 -2,-3 -3,-8 -3,-13 0,-3 0,-6 1,-8 1,-2 1,-4 3,-6 1,-1 2,-3 4,-3 1,-1 3,-2 5,-2 4,0 7,2 9,5 2,3 3,8 3,14zm-7 0c0,-2 0,-4 -1,-5 0,-2 0,-3 0,-4 -1,-1 -1,-2 -2,-2 -1,-1 -1,-1 -2,-1 -1,0 -2,0 -3,1 0,0 -1,1 -1,2 -1,1 -1,2 -1,4 0,1 0,3 0,5 0,1 0,3 0,4 0,2 0,3 1,4 0,1 1,2 1,3 1,0 2,0 3,0 1,0 1,0 2,0 1,-1 1,-2 2,-3 0,-1 0,-2 0,-4 1,-1 1,-3 1,-4zm48 0c0,5 -1,10 -3,13 -3,3 -6,5 -10,5 -4,0 -7,-2 -9,-5 -2,-3 -3,-8 -3,-13 0,-3 0,-6 1,-8 0,-2 1,-4 2,-6 1,-1 3,-3 4,-3 2,-1 3,-2 5,-2 4,0 7,2 10,5 2,3 3,8 3,14zm-8 0c0,-2 0,-4 0,-5 0,-2 0,-3 -1,-4 0,-1 -1,-2 -1,-2 -1,-1 -2,-1 -3,-1 -1,0 -1,0 -2,1 -1,0 -1,1 -1,2 -1,1 -1,2 -1,4 0,1 -1,3 -1,5 0,1 1,3 1,4 0,2 0,3 1,4 0,1 0,2 1,3 1,0 1,0 2,0 1,0 2,0 3,0 0,-1 1,-2 1,-3 1,-1 1,-2 1,-4 0,-1 0,-3 0,-4zm25 -11c1,0 2,0 3,-1 1,0 2,-1 3,-2 1,0 2,-1 3,-2 1,0 2,-1 3,-2l5 0 0 35 -7 0 0 -25c-1,1 -3,1 -4,2 -1,0 -2,1 -3,1l-3 -6zm41 0c1,0 2,0 3,-1 1,0 2,-1 3,-2 1,0 2,-1 3,-2 1,0 2,-1 3,-2l5 0 0 35 -8 0 0 -25c-1,1 -2,1 -3,2 -1,0 -3,1 -4,1l-2 -6zm64 11c0,5 -1,10 -3,13 -2,3 -6,5 -9,5 -4,0 -7,-2 -10,-5 -2,-3 -3,-8 -3,-13 0,-3 0,-6 1,-8 0,-2 1,-4 2,-6 1,-1 3,-3 4,-3 2,-1 4,-2 6,-2 3,0 7,2 9,5 2,3 3,8 3,14zm-8 0c0,-2 0,-4 0,-5 0,-2 0,-3 -1,-4 0,-1 0,-2 -1,-2 -1,-1 -2,-1 -2,-1 -1,0 -2,0 -3,1 0,0 -1,1 -1,2 -1,1 -1,2 -1,4 0,1 0,3 0,5 0,1 0,3 0,4 0,2 0,3 1,4 0,1 1,2 1,3 1,0 2,0 3,0 0,0 1,0 2,0 1,-1 1,-2 1,-3 1,-1 1,-2 1,-4 0,-1 0,-3 0,-4zm49 0c0,5 -1,10 -4,13 -2,3 -5,5 -9,5 -4,0 -7,-2 -9,-5 -2,-3 -3,-8 -3,-13 0,-3 0,-6 1,-8 0,-2 1,-4 2,-6 1,-1 2,-3 4,-3 2,-1 3,-2 5,-2 4,0 7,2 9,5 3,3 4,8 4,14zm-8 0c0,-2 0,-4 0,-5 0,-2 -1,-3 -1,-4 0,-1 -1,-2 -1,-2 -1,-1 -2,-1 -3,-1 -1,0 -1,0 -2,1 -1,0 -1,1 -2,2 0,1 0,2 0,4 -1,1 -1,3 -1,5 0,1 0,3 1,4 0,2 0,3 0,4 1,1 1,2 2,3 1,0 1,0 2,0 1,0 2,0 3,0 0,-1 1,-2 1,-3 0,-1 1,-2 1,-4 0,-1 0,-3 0,-4zm49 0c0,5 -2,10 -4,13 -2,3 -5,5 -9,5 -4,0 -7,-2 -9,-5 -3,-3 -4,-8 -4,-13 0,-3 1,-6 1,-8 1,-2 2,-4 3,-6 1,-1 2,-3 4,-3 1,-1 3,-2 5,-2 4,0 7,2 9,5 2,3 4,8 4,14zm-8 0c0,-2 0,-4 0,-5 -1,-2 -1,-3 -1,-4 -1,-1 -1,-2 -2,-2 0,-1 -1,-1 -2,-1 -1,0 -2,0 -2,1 -1,0 -2,1 -2,2 0,1 -1,2 -1,4 0,1 0,3 0,5 0,1 0,3 0,4 0,2 1,3 1,4 0,1 1,2 2,3 0,0 1,0 2,0 1,0 2,0 2,0 1,-1 1,-2 2,-3 0,-1 0,-2 1,-4 0,-1 0,-3 0,-4zm-658 102c1,0 2,0 3,-1 1,0 2,-1 3,-2 1,0 2,-1 3,-2 1,0 2,-1 2,-2l6 0 0 35 -8 0 0 -25c-1,1 -2,1 -3,2 -2,0 -3,1 -4,1l-2 -6zm40 0c1,0 2,0 4,-1 1,0 2,-1 3,-2 1,0 2,-1 2,-2 1,0 2,-1 3,-2l5 0 0 35 -7 0 0 -25c-1,1 -2,1 -4,2 -1,0 -2,1 -3,1l-3 -6zm65 11c0,5 -2,10 -4,13 -2,3 -5,5 -9,5 -4,0 -7,-2 -9,-5 -3,-3 -4,-8 -4,-13 0,-3 1,-6 1,-8 1,-2 2,-4 3,-6 1,-1 2,-3 4,-3 1,-1 3,-2 5,-2 4,0 7,2 9,5 2,3 4,8 4,14zm-8 0c0,-2 0,-4 0,-5 -1,-2 -1,-3 -1,-4 -1,-1 -1,-2 -2,-2 0,-1 -1,-1 -2,-1 -1,0 -2,0 -2,1 -1,0 -2,1 -2,2 0,1 -1,2 -1,4 0,1 0,3 0,5 0,1 0,3 0,4 0,2 1,3 1,4 0,1 1,2 2,2 0,1 1,1 2,1 1,0 2,0 2,-1 1,0 1,-1 2,-2 0,-1 0,-2 1,-4 0,-1 0,-3 0,-4zm25 -11c1,0 2,0 3,-1 1,0 2,-1 3,-2 1,0 2,-1 3,-2 1,0 2,-1 2,-2l6 0 0 35 -8 0 0 -25c-1,1 -2,1 -3,2 -1,0 -3,1 -4,1l-2 -6zm41 0c1,0 2,0 3,-1 1,0 2,-1 3,-2 1,0 2,-1 3,-2 1,0 1,-1 2,-2l5 0 0 35 -7 0 0 -25c-1,1 -2,1 -4,2 -1,0 -2,1 -3,1l-2 -6zm64 11c0,5 -1,10 -4,13 -2,3 -5,5 -9,5 -4,0 -7,-2 -9,-5 -2,-3 -4,-8 -4,-13 0,-3 1,-6 1,-8 1,-2 2,-4 3,-6 1,-1 2,-3 4,-3 1,-1 3,-2 5,-2 4,0 7,2 9,5 3,3 4,8 4,14zm-8 0c0,-2 0,-4 0,-5 0,-2 -1,-3 -1,-4 0,-1 -1,-2 -2,-2 0,-1 -1,-1 -2,-1 -1,0 -2,0 -2,1 -1,0 -1,1 -2,2 0,1 0,2 -1,4 0,1 0,3 0,5 0,1 0,3 0,4 1,2 1,3 1,4 1,1 1,2 2,2 0,1 1,1 2,1 1,0 2,0 2,-1 1,0 2,-1 2,-2 0,-1 1,-2 1,-4 0,-1 0,-3 0,-4zm25 -11c1,0 2,0 3,-1 1,0 2,-1 3,-2 1,0 2,-1 3,-2 1,0 2,-1 3,-2l5 0 0 35 -8 0 0 -25c-1,1 -2,1 -3,2 -1,0 -3,1 -4,1l-2 -6zm41 0c1,0 2,0 3,-1 1,0 2,-1 3,-2 1,0 2,-1 3,-2 1,0 1,-1 2,-2l5 0 0 35 -7 0 0 -25c-1,1 -2,1 -3,2 -2,0 -3,1 -4,1l-2 -6zm40 0c1,0 2,0 3,-1 1,0 3,-1 4,-2 1,0 1,-1 2,-2 1,0 2,-1 3,-2l5 0 0 35 -7 0 0 -25c-1,1 -2,1 -4,2 -1,0 -2,1 -3,1l-3 -6zm41 0c1,0 2,0 3,-1 1,0 2,-1 3,-2 1,0 2,-1 3,-2 1,0 2,-1 3,-2l5 0 0 35 -8 0 0 -25c-1,1 -2,1 -3,2 -1,0 -2,1 -4,1l-2 -6zm137 11c0,5 -1,10 -4,13 -2,3 -5,5 -9,5 -4,0 -7,-2 -9,-5 -2,-3 -3,-8 -3,-13 0,-3 0,-6 0,-8 1,-2 2,-4 3,-6 1,-1 2,-3 4,-3 1,-1 3,-2 5,-2 4,0 7,2 9,5 3,3 4,8 4,14zm-8 0c0,-2 0,-4 0,-5 0,-2 -1,-3 -1,-4 0,-1 -1,-2 -2,-2 0,-1 -1,-1 -2,-1 -1,0 -2,0 -2,1 -1,0 -1,1 -2,2 0,1 0,2 -1,4 0,1 0,3 0,5 0,1 0,3 0,4 1,2 1,3 1,4 1,1 1,2 2,2 0,1 1,1 2,1 1,0 2,0 2,-1 1,0 2,-1 2,-2 0,-1 1,-2 1,-4 0,-1 0,-3 0,-4zm25 -11c1,0 2,0 3,-1 1,0 2,-1 3,-2 1,0 2,-1 3,-2 1,0 2,-1 3,-2l5 0 0 35 -8 0 0 -25c-1,1 -2,1 -3,2 -1,0 -3,1 -4,1l-2 -6zm77 0c1,0 2,0 3,-1 1,0 2,-1 3,-2 1,0 2,-1 3,-2 1,0 2,-1 3,-2l5 0 0 35 -8 0 0 -25c-1,1 -2,1 -3,2 -1,0 -3,1 -4,1l-2 -6z"/>
   <path fill="#999999" fill-rule="nonzero" d="M3003 936c0,5 -1,10 -3,13 -2,3 -6,5 -10,5 -3,0 -7,-2 -9,-5 -2,-3 -3,-8 -3,-13 0,-3 0,-6 1,-8 0,-2 1,-4 2,-6 1,-1 3,-3 4,-3 2,-1 4,-2 5,-2 4,0 8,2 10,5 2,3 3,8 3,14zm-8 0c0,-2 0,-4 0,-5 0,-2 0,-3 -1,-4 0,-1 -1,-2 -1,-2 -1,-1 -2,-1 -3,-1 0,0 -1,0 -2,1 0,0 -1,1 -1,2 -1,1 -1,2 -1,4 0,1 0,3 0,5 0,1 0,3 0,4 0,2 0,3 1,4 0,1 1,2 1,2 1,1 2,1 2,1 1,0 2,0 3,-1 0,0 1,-1 1,-2 1,-1 1,-2 1,-4 0,-1 0,-3 0,-4zm-738 102c1,0 2,-1 3,-1 1,-1 2,-1 3,-2 1,0 2,-1 3,-2 1,0 2,-1 3,-2l5 0 0 35 -8 0 0 -25c-1,1 -2,1 -3,2 -1,0 -2,1 -4,1l-2 -6zm41 0c1,0 2,-1 3,-1 1,-1 2,-1 3,-2 1,0 2,-1 3,-2 1,0 2,-1 2,-2l6 0 0 35 -8 0 0 -25c-1,1 -2,1 -3,2 -2,0 -3,1 -4,1l-2 -6zm64 10c0,6 -1,11 -3,14 -3,3 -6,5 -10,5 -4,0 -7,-2 -9,-5 -2,-3 -3,-8 -3,-14 0,-2 0,-5 1,-7 0,-3 1,-4 2,-6 1,-2 3,-3 4,-3 2,-1 3,-2 5,-2 4,0 7,2 10,5 2,3 3,8 3,13zm-8 0c0,-1 0,-3 0,-4 0,-2 0,-3 -1,-4 0,-1 -1,-2 -1,-2 -1,-1 -2,-1 -3,-1 -1,0 -1,0 -2,1 -1,0 -1,1 -2,2 0,1 0,2 0,4 -1,1 -1,3 -1,4 0,2 0,4 1,5 0,2 0,3 0,4 1,1 1,2 2,2 1,1 1,1 2,1 1,0 2,0 3,-1 0,0 1,-1 1,-2 1,-1 1,-2 1,-4 0,-1 0,-3 0,-5zm25 -10c1,0 2,-1 3,-1 1,-1 2,-1 3,-2 1,0 2,-1 3,-2 1,0 2,-1 3,-2l5 0 0 35 -8 0 0 -25c-1,1 -2,1 -3,2 -1,0 -2,1 -4,1l-2 -6zm64 10c0,6 -1,11 -3,14 -2,3 -5,5 -9,5 -4,0 -7,-2 -10,-5 -2,-3 -3,-8 -3,-14 0,-2 0,-5 1,-7 1,-3 1,-4 3,-6 1,-2 2,-3 4,-3 1,-1 3,-2 5,-2 4,0 7,2 9,5 2,3 3,8 3,13zm-7 0c0,-1 0,-3 -1,-4 0,-2 0,-3 0,-4 -1,-1 -1,-2 -2,-2 -1,-1 -1,-1 -2,-1 -1,0 -2,0 -3,1 0,0 -1,1 -1,2 -1,1 -1,2 -1,4 0,1 0,3 0,4 0,2 0,4 0,5 0,2 0,3 1,4 0,1 1,2 1,2 1,1 2,1 3,1 1,0 1,0 2,-1 1,0 1,-1 2,-2 0,-1 0,-2 0,-4 1,-1 1,-3 1,-5zm48 0c0,6 -1,11 -3,14 -3,3 -6,5 -10,5 -4,0 -7,-2 -9,-5 -2,-3 -3,-8 -3,-14 0,-2 0,-5 1,-7 0,-3 1,-4 2,-6 1,-2 3,-3 4,-3 2,-1 4,-2 5,-2 4,0 7,2 10,5 2,3 3,8 3,13zm-8 0c0,-1 0,-3 0,-4 0,-2 0,-3 -1,-4 0,-1 -1,-2 -1,-2 -1,-1 -2,-1 -3,-1 -1,0 -1,0 -2,1 -1,0 -1,1 -1,2 -1,1 -1,2 -1,4 0,1 -1,3 -1,4 0,2 1,4 1,5 0,2 0,3 1,4 0,1 0,2 1,2 1,1 1,1 2,1 1,0 2,0 3,-1 0,0 1,-1 1,-2 1,-1 1,-2 1,-4 0,-1 0,-3 0,-5zm25 -10c1,0 2,-1 3,-1 1,-1 2,-1 3,-2 1,0 2,-1 3,-2 1,0 2,-1 3,-2l5 0 0 35 -7 0 0 -25c-1,1 -3,1 -4,2 -1,0 -2,1 -3,1l-3 -6zm64 10c0,6 -1,11 -3,14 -2,3 -5,5 -9,5 -4,0 -7,-2 -9,-5 -3,-3 -4,-8 -4,-14 0,-2 1,-5 1,-7 1,-3 2,-4 3,-6 1,-2 2,-3 4,-3 1,-1 3,-2 5,-2 4,0 7,2 9,5 2,3 3,8 3,13zm-7 0c0,-1 0,-3 0,-4 -1,-2 -1,-3 -1,-4 -1,-1 -1,-2 -2,-2 0,-1 -1,-1 -2,-1 -1,0 -2,0 -3,1 0,0 -1,1 -1,2 0,1 -1,2 -1,4 0,1 0,3 0,4 0,2 0,4 0,5 0,2 1,3 1,4 0,1 1,2 1,2 1,1 2,1 3,1 1,0 2,0 2,-1 1,0 1,-1 2,-2 0,-1 0,-2 1,-4 0,-1 0,-3 0,-5zm48 0c0,6 -1,11 -3,14 -2,3 -6,5 -9,5 -4,0 -7,-2 -10,-5 -2,-3 -3,-8 -3,-14 0,-2 0,-5 1,-7 0,-3 1,-4 2,-6 1,-2 3,-3 4,-3 2,-1 4,-2 6,-2 3,0 7,2 9,5 2,3 3,8 3,13zm-8 0c0,-1 0,-3 0,-4 0,-2 0,-3 -1,-4 0,-1 0,-2 -1,-2 -1,-1 -2,-1 -2,-1 -1,0 -2,0 -3,1 0,0 -1,1 -1,2 -1,1 -1,2 -1,4 0,1 0,3 0,4 0,2 0,4 0,5 0,2 0,3 1,4 0,1 1,2 1,2 1,1 2,1 3,1 0,0 1,0 2,-1 1,0 1,-1 1,-2 1,-1 1,-2 1,-4 0,-1 0,-3 0,-5zm49 0c0,6 -1,11 -4,14 -2,3 -5,5 -9,5 -4,0 -7,-2 -9,-5 -2,-3 -3,-8 -3,-14 0,-2 0,-5 1,-7 0,-3 1,-4 2,-6 1,-2 3,-3 4,-3 2,-1 3,-2 5,-2 4,0 7,2 9,5 3,3 4,8 4,13zm-8 0c0,-1 0,-3 0,-4 0,-2 -1,-3 -1,-4 0,-1 -1,-2 -1,-2 -1,-1 -2,-1 -3,-1 -1,0 -1,0 -2,1 -1,0 -1,1 -2,2 0,1 0,2 0,4 -1,1 -1,3 -1,4 0,2 0,4 1,5 0,2 0,3 0,4 1,1 1,2 2,2 1,1 1,1 2,1 1,0 2,0 3,-1 0,0 1,-1 1,-2 0,-1 1,-2 1,-4 0,-1 0,-3 0,-5zm49 0c0,6 -2,11 -4,14 -2,3 -5,5 -9,5 -4,0 -7,-2 -9,-5 -3,-3 -4,-8 -4,-14 0,-2 1,-5 1,-7 1,-3 2,-4 3,-6 1,-2 2,-3 4,-3 1,-1 3,-2 5,-2 4,0 7,2 9,5 2,3 4,8 4,13zm-8 0c0,-1 0,-3 0,-4 -1,-2 -1,-3 -1,-4 -1,-1 -1,-2 -2,-2 0,-1 -1,-1 -2,-1 -1,0 -2,0 -2,1 -1,0 -2,1 -2,2 0,1 -1,2 -1,4 0,1 0,3 0,4 0,2 0,4 0,5 0,2 1,3 1,4 0,1 1,2 2,2 0,1 1,1 2,1 1,0 2,0 2,-1 1,0 1,-1 2,-2 0,-1 0,-2 1,-4 0,-1 0,-3 0,-5zm48 0c0,6 -1,11 -3,14 -2,3 -5,5 -9,5 -4,0 -7,-2 -10,-5 -2,-3 -3,-8 -3,-14 0,-2 0,-5 1,-7 1,-3 1,-4 2,-6 2,-2 3,-3 4,-3 2,-1 4,-2 6,-2 4,0 7,2 9,5 2,3 3,8 3,13zm-7 0c0,-1 -1,-3 -1,-4 0,-2 0,-3 0,-4 -1,-1 -1,-2 -2,-2 -1,-1 -1,-1 -2,-1 -1,0 -2,0 -3,1 0,0 -1,1 -1,2 -1,1 -1,2 -1,4 0,1 0,3 0,4 0,2 0,4 0,5 0,2 0,3 1,4 0,1 1,2 1,2 1,1 2,1 3,1 1,0 1,0 2,-1 1,0 1,-1 2,-2 0,-1 0,-2 0,-4 0,-1 1,-3 1,-5zm48 0c0,6 -1,11 -3,14 -3,3 -6,5 -10,5 -4,0 -7,-2 -9,-5 -2,-3 -3,-8 -3,-14 0,-2 0,-5 1,-7 0,-3 1,-4 2,-6 1,-2 3,-3 4,-3 2,-1 3,-2 5,-2 4,0 7,2 10,5 2,3 3,8 3,13zm-8 0c0,-1 0,-3 0,-4 0,-2 0,-3 -1,-4 0,-1 -1,-2 -1,-2 -1,-1 -2,-1 -3,-1 -1,0 -1,0 -2,1 -1,0 -1,1 -2,2 0,1 0,2 0,4 -1,1 -1,3 -1,4 0,2 0,4 1,5 0,2 0,3 0,4 1,1 1,2 2,2 1,1 1,1 2,1 1,0 2,0 3,-1 0,0 1,-1 1,-2 1,-1 1,-2 1,-4 0,-1 0,-3 0,-5zm25 -10c1,0 2,-1 3,-1 1,-1 2,-1 3,-2 1,0 2,-1 3,-2 1,0 2,-1 3,-2l5 0 0 35 -7 0 0 -25c-1,1 -3,1 -4,2 -1,0 -2,1 -3,1l-3 -6zm64 10c0,6 -1,11 -3,14 -2,3 -5,5 -9,5 -4,0 -7,-2 -9,-5 -3,-3 -4,-8 -4,-14 0,-2 0,-5 1,-7 1,-3 1,-4 3,-6 1,-2 2,-3 4,-3 1,-1 3,-2 5,-2 4,0 7,2 9,5 2,3 3,8 3,13zm-7 0c0,-1 0,-3 -1,-4 0,-2 0,-3 0,-4 -1,-1 -1,-2 -2,-2 -1,-1 -1,-1 -2,-1 -1,0 -2,0 -3,1 0,0 -1,1 -1,2 0,1 -1,2 -1,4 0,1 0,3 0,4 0,2 0,4 0,5 0,2 1,3 1,4 0,1 1,2 1,2 1,1 2,1 3,1 1,0 1,0 2,-1 1,0 1,-1 2,-2 0,-1 0,-2 0,-4 1,-1 1,-3 1,-5zm48 0c0,6 -1,11 -3,14 -3,3 -6,5 -10,5 -3,0 -7,-2 -9,-5 -2,-3 -3,-8 -3,-14 0,-2 0,-5 1,-7 0,-3 1,-4 2,-6 1,-2 3,-3 4,-3 2,-1 4,-2 5,-2 4,0 7,2 10,5 2,3 3,8 3,13zm-8 0c0,-1 0,-3 0,-4 0,-2 0,-3 -1,-4 0,-1 -1,-2 -1,-2 -1,-1 -2,-1 -3,-1 0,0 -1,0 -2,1 -1,0 -1,1 -1,2 -1,1 -1,2 -1,4 0,1 0,3 0,4 0,2 0,4 0,5 0,2 0,3 1,4 0,1 0,2 1,2 1,1 2,1 2,1 1,0 2,0 3,-1 0,0 1,-1 1,-2 1,-1 1,-2 1,-4 0,-1 0,-3 0,-5zm49 0c0,6 -1,11 -4,14 -2,3 -5,5 -9,5 -4,0 -7,-2 -9,-5 -2,-3 -3,-8 -3,-14 0,-2 0,-5 0,-7 1,-3 2,-4 3,-6 1,-2 2,-3 4,-3 2,-1 3,-2 5,-2 4,0 7,2 9,5 3,3 4,8 4,13zm-8 0c0,-1 0,-3 0,-4 0,-2 -1,-3 -1,-4 0,-1 -1,-2 -1,-2 -1,-1 -2,-1 -3,-1 -1,0 -2,0 -2,1 -1,0 -1,1 -2,2 0,1 0,2 -1,4 0,1 0,3 0,4 0,2 0,4 0,5 1,2 1,3 1,4 1,1 1,2 2,2 0,1 1,1 2,1 1,0 2,0 3,-1 0,0 1,-1 1,-2 0,-1 1,-2 1,-4 0,-1 0,-3 0,-5zm48 0c0,6 -1,11 -3,14 -2,3 -5,5 -9,5 -4,0 -7,-2 -9,-5 -3,-3 -4,-8 -4,-14 0,-2 1,-5 1,-7 1,-3 2,-4 3,-6 1,-2 2,-3 4,-3 1,-1 3,-2 5,-2 4,0 7,2 9,5 2,3 3,8 3,13zm-7 0c0,-1 0,-3 0,-4 -1,-2 -1,-3 -1,-4 -1,-1 -1,-2 -2,-2 0,-1 -1,-1 -2,-1 -1,0 -2,0 -2,1 -1,0 -2,1 -2,2 0,1 -1,2 -1,4 0,1 0,3 0,4 0,2 0,4 0,5 0,2 1,3 1,4 0,1 1,2 2,2 0,1 1,1 2,1 1,0 2,0 2,-1 1,0 1,-1 2,-2 0,-1 0,-2 1,-4 0,-1 0,-3 0,-5zm25 -10c1,0 2,-1 3,-1 1,-1 2,-1 3,-2 1,0 2,-1 3,-2 1,0 2,-1 2,-2l6 0 0 35 -8 0 0 -25c-1,1 -2,1 -3,2 -2,0 -3,1 -4,1l-2 -6zm-504 123c0,6 -1,11 -3,14 -3,3 -6,5 -10,5 -3,0 -7,-2 -9,-5 -2,-3 -3,-8 -3,-14 0,-2 0,-5 1,-7 0,-3 1,-4 2,-6 1,-2 3,-3 4,-4 2,0 4,-1 5,-1 4,0 7,2 10,5 2,3 3,8 3,13zm-8 0c0,-1 0,-3 0,-4 0,-2 0,-3 -1,-4 0,-1 -1,-2 -1,-2 -1,-1 -2,-1 -3,-1 -1,0 -1,0 -2,1 -1,0 -1,1 -1,2 -1,1 -1,2 -1,4 0,1 -1,3 -1,4 0,2 1,4 1,5 0,2 0,3 1,4 0,1 0,2 1,2 1,1 1,1 2,1 1,0 2,0 3,-1 0,0 1,-1 1,-2 1,-1 1,-2 1,-4 0,-1 0,-3 0,-5zm49 0c0,6 -1,11 -4,14 -2,3 -5,5 -9,5 -4,0 -7,-2 -9,-5 -2,-3 -3,-8 -3,-14 0,-2 0,-5 0,-7 1,-3 2,-4 3,-6 1,-2 2,-3 4,-4 1,0 3,-1 5,-1 4,0 7,2 9,5 3,3 4,8 4,13zm-8 0c0,-1 0,-3 0,-4 0,-2 -1,-3 -1,-4 0,-1 -1,-2 -1,-2 -1,-1 -2,-1 -3,-1 -1,0 -2,0 -2,1 -1,0 -1,1 -2,2 0,1 0,2 -1,4 0,1 0,3 0,4 0,2 0,4 0,5 1,2 1,3 1,4 1,1 1,2 2,2 0,1 1,1 2,1 1,0 2,0 3,-1 0,0 1,-1 1,-2 0,-1 1,-2 1,-4 0,-1 0,-3 0,-5zm25 -10c1,0 2,-1 3,-1 1,-1 2,-1 3,-2 1,0 2,-1 3,-2 1,0 2,-1 3,-2l5 0 0 35 -8 0 0 -25c-1,0 -2,1 -3,2 -1,0 -2,1 -4,1l-2 -6zm41 0c1,0 2,-1 3,-1 1,-1 2,-1 3,-2 1,0 2,-1 3,-2 1,0 2,-1 2,-2l6 0 0 35 -8 0 0 -25c-1,0 -2,1 -3,2 -2,0 -3,1 -4,1l-2 -6zm64 10c0,6 -1,11 -4,14 -2,3 -5,5 -9,5 -4,0 -7,-2 -9,-5 -2,-3 -3,-8 -3,-14 0,-2 0,-5 1,-7 0,-3 1,-4 2,-6 1,-2 3,-3 4,-4 2,0 3,-1 5,-1 4,0 7,2 9,5 3,3 4,8 4,13zm-8 0c0,-1 0,-3 0,-4 0,-2 -1,-3 -1,-4 0,-1 -1,-2 -1,-2 -1,-1 -2,-1 -3,-1 -1,0 -1,0 -2,1 -1,0 -1,1 -2,2 0,1 0,2 0,4 -1,1 -1,3 -1,4 0,2 0,4 1,5 0,2 0,3 0,4 1,1 1,2 2,2 1,1 1,1 2,1 1,0 2,0 3,-1 0,0 1,-1 1,-2 0,-1 1,-2 1,-4 0,-1 0,-3 0,-5zm25 -10c1,0 2,-1 3,-1 1,-1 2,-1 3,-2 1,0 2,-1 3,-2 1,0 2,-1 3,-2l5 0 0 35 -8 0 0 -25c-1,0 -2,1 -3,2 -1,0 -2,1 -4,1l-2 -6z"/>
   <path fill="#999999" fill-rule="nonzero" d="M2730 1161c0,6 -1,11 -3,14 -2,3 -5,5 -9,5 -4,0 -7,-2 -10,-5 -2,-3 -3,-8 -3,-14 0,-2 0,-5 1,-7 1,-3 1,-4 2,-6 2,-2 3,-3 4,-4 2,0 4,-1 6,-1 4,0 7,2 9,5 2,3 3,8 3,13zm-7 0c0,-1 0,-3 -1,-4 0,-2 0,-3 0,-4 -1,-1 -1,-2 -2,-2 -1,-1 -1,-1 -2,-1 -1,0 -2,0 -3,1 0,0 -1,1 -1,2 -1,1 -1,2 -1,4 0,1 0,3 0,4 0,2 0,4 0,5 0,2 0,3 1,4 0,1 1,2 1,2 1,1 2,1 3,1 1,0 1,0 2,-1 1,0 1,-1 2,-2 0,-1 0,-2 0,-4 1,-1 1,-3 1,-5zm48 0c0,6 -1,11 -3,14 -3,3 -6,5 -10,5 -4,0 -7,-2 -9,-5 -2,-3 -3,-8 -3,-14 0,-2 0,-5 1,-7 0,-3 1,-4 2,-6 1,-2 3,-3 4,-4 2,0 3,-1 5,-1 4,0 7,2 10,5 2,3 3,8 3,13zm-8 0c0,-1 0,-3 0,-4 0,-2 0,-3 -1,-4 0,-1 -1,-2 -1,-2 -1,-1 -2,-1 -3,-1 -1,0 -1,0 -2,1 -1,0 -1,1 -1,2 -1,1 -1,2 -1,4 0,1 -1,3 -1,4 0,2 1,4 1,5 0,2 0,3 1,4 0,1 0,2 1,2 1,1 1,1 2,1 1,0 2,0 3,-1 0,0 1,-1 1,-2 1,-1 1,-2 1,-4 0,-1 0,-3 0,-5zm25 -10c1,0 2,-1 3,-1 1,-1 2,-1 3,-2 1,0 2,-1 3,-2 1,0 2,-1 3,-2l5 0 0 35 -7 0 0 -25c-1,0 -3,1 -4,2 -1,0 -2,1 -3,1l-3 -6zm64 10c0,6 -1,11 -3,14 -2,3 -5,5 -9,5 -4,0 -7,-2 -9,-5 -3,-3 -4,-8 -4,-14 0,-2 0,-5 1,-7 1,-3 1,-4 3,-6 1,-2 2,-3 4,-4 1,0 3,-1 5,-1 4,0 7,2 9,5 2,3 3,8 3,13zm-7 0c0,-1 0,-3 -1,-4 0,-2 0,-3 0,-4 -1,-1 -1,-2 -2,-2 -1,-1 -1,-1 -2,-1 -1,0 -2,0 -3,1 0,0 -1,1 -1,2 0,1 -1,2 -1,4 0,1 0,3 0,4 0,2 0,4 0,5 0,2 1,3 1,4 0,1 1,2 1,2 1,1 2,1 3,1 1,0 1,0 2,-1 1,0 1,-1 2,-2 0,-1 0,-2 0,-4 1,-1 1,-3 1,-5zm25 -10c1,0 2,-1 3,-1 1,-1 2,-1 3,-2 1,0 2,-1 3,-2 1,0 1,-1 2,-2l5 0 0 35 -7 0 0 -25c-1,0 -2,1 -3,2 -2,0 -3,1 -4,1l-2 -6zm40 0c1,0 2,-1 3,-1 1,-1 3,-1 4,-2 1,0 2,-1 2,-2 1,0 2,-1 3,-2l5 0 0 35 -7 0 0 -25c-1,0 -2,1 -4,2 -1,0 -2,1 -3,1l-3 -6zm41 0c1,0 2,-1 3,-1 1,-1 2,-1 3,-2 1,0 2,-1 3,-2 1,0 2,-1 3,-2l5 0 0 35 -8 0 0 -25c-1,0 -2,1 -3,2 -1,0 -2,1 -4,1l-2 -6zm-465 123c0,6 -1,11 -3,14 -3,3 -6,5 -10,5 -3,0 -7,-2 -9,-5 -2,-3 -3,-8 -3,-14 0,-3 0,-5 1,-7 0,-3 1,-5 2,-6 1,-2 3,-3 4,-4 2,0 4,-1 5,-1 4,0 7,2 10,5 2,3 3,8 3,13zm-8 0c0,-1 0,-3 0,-4 0,-2 0,-3 -1,-4 0,-1 -1,-2 -1,-3 -1,0 -2,0 -3,0 -1,0 -1,0 -2,0 -1,1 -1,2 -1,3 -1,1 -1,2 -1,4 0,1 -1,3 -1,4 0,2 1,4 1,5 0,2 0,3 1,4 0,1 0,2 1,2 1,1 1,1 2,1 1,0 2,0 3,-1 0,0 1,-1 1,-2 1,-1 1,-2 1,-4 0,-1 0,-3 0,-5zm25 -10c1,0 2,-1 3,-1 1,-1 2,-1 4,-2 1,0 1,-1 2,-2 1,-1 2,-1 3,-2l5 0 0 35 -7 0 0 -25c-1,0 -3,1 -4,2 -1,0 -2,1 -3,1l-3 -6zm64 10c0,6 -1,11 -3,14 -2,3 -5,5 -9,5 -4,0 -7,-2 -9,-5 -3,-3 -4,-8 -4,-14 0,-3 1,-5 1,-7 1,-3 2,-5 3,-6 1,-2 2,-3 4,-4 1,0 3,-1 5,-1 4,0 7,2 9,5 2,3 3,8 3,13zm-7 0c0,-1 0,-3 0,-4 -1,-2 -1,-3 -1,-4 -1,-1 -1,-2 -2,-3 0,0 -1,0 -2,0 -1,0 -2,0 -3,0 0,1 -1,2 -1,3 0,1 -1,2 -1,4 0,1 0,3 0,4 0,2 0,4 0,5 0,2 1,3 1,4 0,1 1,2 1,2 1,1 2,1 3,1 1,0 2,0 2,-1 1,0 1,-1 2,-2 0,-1 0,-2 1,-4 0,-1 0,-3 0,-5zm48 0c0,6 -1,11 -3,14 -2,3 -6,5 -9,5 -4,0 -7,-2 -10,-5 -2,-3 -3,-8 -3,-14 0,-3 0,-5 1,-7 0,-3 1,-5 2,-6 1,-2 3,-3 4,-4 2,0 4,-1 6,-1 3,0 7,2 9,5 2,3 3,8 3,13zm-8 0c0,-1 0,-3 0,-4 0,-2 0,-3 -1,-4 0,-1 0,-2 -1,-3 -1,0 -2,0 -2,0 -1,0 -2,0 -3,0 0,1 -1,2 -1,3 -1,1 -1,2 -1,4 0,1 0,3 0,4 0,2 0,4 0,5 0,2 0,3 1,4 0,1 1,2 1,2 1,1 2,1 3,1 0,0 1,0 2,-1 1,0 1,-1 1,-2 1,-1 1,-2 1,-4 0,-1 0,-3 0,-5zm49 0c0,6 -1,11 -4,14 -2,3 -5,5 -9,5 -4,0 -7,-2 -9,-5 -2,-3 -3,-8 -3,-14 0,-3 0,-5 1,-7 0,-3 1,-5 2,-6 1,-2 3,-3 4,-4 2,0 3,-1 5,-1 4,0 7,2 9,5 3,3 4,8 4,13zm-8 0c0,-1 0,-3 0,-4 0,-2 -1,-3 -1,-4 0,-1 -1,-2 -1,-3 -1,0 -2,0 -3,0 -1,0 -1,0 -2,0 -1,1 -1,2 -2,3 0,1 0,2 0,4 -1,1 -1,3 -1,4 0,2 0,4 1,5 0,2 0,3 0,4 1,1 1,2 2,2 1,1 1,1 2,1 1,0 2,0 3,-1 0,0 1,-1 1,-2 0,-1 1,-2 1,-4 0,-1 0,-3 0,-5zm25 -10c1,0 2,-1 3,-1 1,-1 2,-1 3,-2 1,0 2,-1 3,-2 1,-1 2,-1 3,-2l5 0 0 35 -8 0 0 -25c-1,0 -2,1 -3,2 -1,0 -2,1 -4,1l-2 -6zm41 0c1,0 2,-1 3,-1 1,-1 2,-1 3,-2 1,0 2,-1 3,-2 1,-1 2,-1 2,-2l6 0 0 35 -8 0 0 -25c-1,0 -2,1 -3,2 -1,0 -3,1 -4,1l-2 -6zm64 10c0,6 -1,11 -3,14 -3,3 -6,5 -10,5 -4,0 -7,-2 -9,-5 -2,-3 -3,-8 -3,-14 0,-3 0,-5 1,-7 0,-3 1,-5 2,-6 1,-2 3,-3 4,-4 2,0 3,-1 5,-1 4,0 7,2 10,5 2,3 3,8 3,13zm-8 0c0,-1 0,-3 0,-4 0,-2 0,-3 -1,-4 0,-1 -1,-2 -1,-3 -1,0 -2,0 -3,0 -1,0 -1,0 -2,0 -1,1 -1,2 -1,3 -1,1 -1,2 -1,4 0,1 -1,3 -1,4 0,2 1,4 1,5 0,2 0,3 1,4 0,1 0,2 1,2 1,1 1,1 2,1 1,0 2,0 3,-1 0,0 1,-1 1,-2 1,-1 1,-2 1,-4 0,-1 0,-3 0,-5zm49 0c0,6 -1,11 -4,14 -2,3 -5,5 -9,5 -4,0 -7,-2 -9,-5 -2,-3 -4,-8 -4,-14 0,-3 1,-5 1,-7 1,-3 2,-5 3,-6 1,-2 2,-3 4,-4 1,0 3,-1 5,-1 4,0 7,2 9,5 3,3 4,8 4,13zm-8 0c0,-1 0,-3 0,-4 0,-2 -1,-3 -1,-4 0,-1 -1,-2 -2,-3 0,0 -1,0 -2,0 -1,0 -2,0 -2,0 -1,1 -1,2 -2,3 0,1 0,2 -1,4 0,1 0,3 0,4 0,2 0,4 0,5 1,2 1,3 1,4 1,1 1,2 2,2 0,1 1,1 2,1 1,0 2,0 2,-1 1,0 2,-1 2,-2 0,-1 1,-2 1,-4 0,-1 0,-3 0,-5zm48 0c0,6 -1,11 -3,14 -2,3 -5,5 -9,5 -4,0 -7,-2 -9,-5 -3,-3 -4,-8 -4,-14 0,-3 0,-5 1,-7 1,-3 1,-5 3,-6 1,-2 2,-3 4,-4 1,0 3,-1 5,-1 4,0 7,2 9,5 2,3 3,8 3,13zm-7 0c0,-1 0,-3 -1,-4 0,-2 0,-3 0,-4 -1,-1 -1,-2 -2,-3 -1,0 -1,0 -2,0 -1,0 -2,0 -3,0 0,1 -1,2 -1,3 0,1 -1,2 -1,4 0,1 0,3 0,4 0,2 0,4 0,5 0,2 1,3 1,4 0,1 1,2 1,2 1,1 2,1 3,1 1,0 1,0 2,-1 1,0 1,-1 2,-2 0,-1 0,-2 0,-4 1,-1 1,-3 1,-5zm25 -10c1,0 2,-1 3,-1 1,-1 2,-1 3,-2 1,0 2,-1 3,-2 1,-1 1,-1 2,-2l5 0 0 35 -7 0 0 -25c-1,0 -2,1 -3,2 -2,0 -3,1 -4,1l-2 -6zm40 0c1,0 2,-1 3,-1 1,-1 3,-1 4,-2 1,0 2,-1 2,-2 1,-1 2,-1 3,-2l5 0 0 35 -7 0 0 -25c-1,0 -2,1 -4,2 -1,0 -2,1 -3,1l-3 -6zm64 10c0,6 -1,11 -3,14 -2,3 -5,5 -9,5 -4,0 -7,-2 -9,-5 -3,-3 -4,-8 -4,-14 0,-3 1,-5 1,-7 1,-3 2,-5 3,-6 1,-2 2,-3 4,-4 1,0 3,-1 5,-1 4,0 7,2 9,5 2,3 3,8 3,13zm-7 0c0,-1 0,-3 0,-4 -1,-2 -1,-3 -1,-4 -1,-1 -1,-2 -2,-3 0,0 -1,0 -2,0 -1,0 -2,0 -2,0 -1,1 -2,2 -2,3 0,1 -1,2 -1,4 0,1 0,3 0,4 0,2 0,4 0,5 0,2 1,3 1,4 0,1 1,2 2,2 0,1 1,1 2,1 1,0 2,0 2,-1 1,0 1,-1 2,-2 0,-1 0,-2 1,-4 0,-1 0,-3 0,-5zm-504 103c1,0 2,-1 3,-1 1,-1 2,-1 3,-2 1,-1 2,-1 3,-2 1,-1 1,-1 2,-2l5 0 0 35 -7 0 0 -25c-1,0 -2,1 -3,2 -2,0 -3,1 -4,1l-2 -6zm40 0c1,0 2,-1 3,-1 1,-1 2,-1 4,-2 1,-1 1,-1 2,-2 1,-1 2,-1 3,-2l5 0 0 35 -7 0 0 -25c-1,0 -3,1 -4,2 -1,0 -2,1 -3,1l-3 -6zm64 10c0,6 -1,11 -3,14 -2,3 -5,5 -9,5 -4,0 -7,-2 -9,-5 -3,-3 -4,-8 -4,-14 0,-3 1,-5 1,-7 1,-3 2,-5 3,-6 1,-2 2,-3 4,-4 1,0 3,-1 5,-1 4,0 7,2 9,5 2,3 3,7 3,13zm-7 0c0,-1 0,-3 0,-4 -1,-2 -1,-3 -1,-4 -1,-1 -1,-2 -2,-3 0,0 -1,0 -2,0 -1,0 -2,0 -3,0 0,1 -1,2 -1,3 0,1 -1,2 -1,4 0,1 0,3 0,4 0,2 0,4 0,5 0,2 1,3 1,4 0,1 1,2 1,2 1,1 2,1 3,1 1,0 2,0 2,-1 1,0 1,-1 2,-2 0,-1 0,-2 1,-4 0,-1 0,-3 0,-5zm25 -10c1,0 2,-1 3,-1 1,-1 2,-1 3,-2 1,-1 2,-1 3,-2 1,-1 2,-1 2,-2l6 0 0 35 -8 0 0 -25c-1,0 -2,1 -3,2 -2,0 -3,1 -4,1l-2 -6zm40 0c1,0 2,-1 4,-1 1,-1 2,-1 3,-2 1,-1 2,-1 3,-2 0,-1 1,-1 2,-2l5 0 0 35 -7 0 0 -25c-1,0 -2,1 -4,2 -1,0 -2,1 -3,1l-3 -6zm41 0c1,0 2,-1 3,-1 1,-1 2,-1 3,-2 1,-1 2,-1 3,-2 1,-1 2,-1 3,-2l5 0 0 35 -8 0 0 -25c-1,0 -2,1 -3,2 -1,0 -2,1 -4,1l-2 -6zm41 0c1,0 2,-1 3,-1 1,-1 2,-1 3,-2 1,-1 2,-1 3,-2 1,-1 2,-1 2,-2l6 0 0 35 -8 0 0 -25c-1,0 -2,1 -3,2 -1,0 -3,1 -4,1l-2 -6zm64 10c0,6 -1,11 -3,14 -3,3 -6,5 -10,5 -4,0 -7,-2 -9,-5 -2,-3 -3,-8 -3,-14 0,-3 0,-5 1,-7 0,-3 1,-5 2,-6 1,-2 3,-3 4,-4 2,0 3,-1 5,-1 4,0 7,2 10,5 2,3 3,7 3,13zm-8 0c0,-1 0,-3 0,-4 0,-2 0,-3 -1,-4 0,-1 -1,-2 -1,-3 -1,0 -2,0 -3,0 -1,0 -1,0 -2,0 -1,1 -1,2 -1,3 -1,1 -1,2 -1,4 0,1 -1,3 -1,4 0,2 1,4 1,5 0,2 0,3 1,4 0,1 0,2 1,2 1,1 1,1 2,1 1,0 2,0 3,-1 0,0 1,-1 1,-2 1,-1 1,-2 1,-4 0,-1 0,-3 0,-5zm25 -10c1,0 2,-1 3,-1 1,-1 2,-1 3,-2 1,-1 2,-1 3,-2 1,-1 2,-1 3,-2l5 0 0 35 -7 0 0 -25c-1,0 -3,1 -4,2 -1,0 -2,1 -3,1l-3 -6zm41 0c1,0 2,-1 3,-1 1,-1 2,-1 3,-2 1,-1 2,-1 3,-2 1,-1 2,-1 3,-2l5 0 0 35 -8 0 0 -25c-1,0 -2,1 -3,2 -1,0 -3,1 -4,1l-2 -6zm64 10c0,6 -1,11 -3,14 -3,3 -6,5 -10,5 -3,0 -7,-2 -9,-5 -2,-3 -3,-8 -3,-14 0,-3 0,-5 1,-7 0,-3 1,-5 2,-6 1,-2 3,-3 4,-4 2,0 4,-1 5,-1 4,0 7,2 10,5 2,3 3,7 3,13zm-8 0c0,-1 0,-3 0,-4 0,-2 0,-3 -1,-4 0,-1 -1,-2 -1,-3 -1,0 -2,0 -3,0 0,0 -1,0 -2,0 0,1 -1,2 -1,3 -1,1 -1,2 -1,4 0,1 0,3 0,4 0,2 0,4 0,5 0,2 0,3 1,4 0,1 1,2 1,2 1,1 2,1 2,1 1,0 2,0 3,-1 0,0 1,-1 1,-2 1,-1 1,-2 1,-4 0,-1 0,-3 0,-5zm25 -10c1,0 2,-1 3,-1 1,-1 3,-1 4,-2 1,-1 2,-1 2,-2 1,-1 2,-1 3,-2l5 0 0 35 -7 0 0 -25c-1,0 -2,1 -4,2 -1,0 -2,1 -3,1l-3 -6z"/>
   <path fill="#999999" fill-rule="nonzero" d="M2974 1387c0,6 -1,11 -3,14 -2,3 -5,5 -9,5 -4,0 -7,-2 -9,-5 -3,-3 -4,-8 -4,-14 0,-3 1,-5 1,-7 1,-3 2,-5 3,-6 1,-2 2,-3 4,-4 1,0 3,-1 5,-1 4,0 7,2 9,5 2,3 3,7 3,13zm-7 0c0,-1 0,-3 0,-4 -1,-2 -1,-3 -1,-4 -1,-1 -1,-2 -2,-3 0,0 -1,0 -2,0 -1,0 -2,0 -2,0 -1,1 -2,2 -2,3 0,1 -1,2 -1,4 0,1 0,3 0,4 0,2 0,4 0,5 0,2 1,3 1,4 0,1 1,2 2,2 0,1 1,1 2,1 1,0 2,0 2,-1 1,0 1,-1 2,-2 0,-1 0,-2 1,-4 0,-1 0,-3 0,-5zm48 0c0,6 -1,11 -3,14 -2,3 -5,5 -9,5 -4,0 -7,-2 -10,-5 -2,-3 -3,-8 -3,-14 0,-3 0,-5 1,-7 0,-3 1,-5 2,-6 2,-2 3,-3 4,-4 2,0 4,-1 6,-1 4,0 7,2 9,5 2,3 3,7 3,13zm-7 0c0,-1 -1,-3 -1,-4 0,-2 0,-3 -1,-4 0,-1 0,-2 -1,-3 -1,0 -1,0 -2,0 -1,0 -2,0 -3,0 0,1 -1,2 -1,3 -1,1 -1,2 -1,4 0,1 0,3 0,4 0,2 0,4 0,5 0,2 0,3 1,4 0,1 1,2 1,2 1,1 2,1 3,1 1,0 1,0 2,-1 1,0 1,-1 1,-2 1,-1 1,-2 1,-4 0,-1 1,-3 1,-5zm-787 103c1,0 2,-1 3,-1 1,-1 2,-1 3,-2 1,-1 2,-1 3,-2 1,-1 2,-1 2,-2l6 0 0 35 -8 0 0 -25c-1,0 -2,1 -3,1 -2,1 -3,2 -4,2l-2 -6zm64 10c0,6 -1,11 -3,14 -3,3 -6,4 -10,4 -4,0 -7,-1 -9,-4 -2,-3 -3,-8 -3,-14 0,-3 0,-5 1,-8 0,-2 1,-4 2,-5 1,-2 3,-3 4,-4 2,-1 3,-1 5,-1 4,0 7,2 10,5 2,3 3,7 3,13zm-8 0c0,-1 0,-3 0,-5 0,-1 0,-2 -1,-3 0,-1 -1,-2 -1,-3 -1,0 -2,0 -3,0 -1,0 -1,0 -2,0 -1,1 -1,2 -2,3 0,1 0,2 0,3 -1,2 -1,4 -1,5 0,2 0,4 1,5 0,1 0,3 0,4 1,1 1,2 2,2 1,1 1,1 2,1 1,0 2,0 3,-1 0,0 1,-1 1,-2 1,-1 1,-3 1,-4 0,-1 0,-3 0,-5zm25 -10c1,0 2,-1 3,-1 1,-1 2,-1 3,-2 1,-1 2,-1 3,-2 1,-1 2,-1 3,-2l5 0 0 35 -7 0 0 -25c-1,0 -3,1 -4,1 -1,1 -2,2 -3,2l-3 -6zm41 0c1,0 2,-1 3,-1 1,-1 2,-1 3,-2 1,-1 2,-1 3,-2 1,-1 2,-1 2,-2l6 0 0 35 -8 0 0 -25c-1,0 -2,1 -3,1 -1,1 -3,2 -4,2l-2 -6zm64 10c0,6 -1,11 -3,14 -3,3 -6,4 -10,4 -3,0 -7,-1 -9,-4 -2,-3 -3,-8 -3,-14 0,-3 0,-5 1,-8 0,-2 1,-4 2,-5 1,-2 3,-3 4,-4 2,-1 4,-1 5,-1 4,0 7,2 10,5 2,3 3,7 3,13zm-8 0c0,-1 0,-3 0,-5 0,-1 0,-2 -1,-3 0,-1 -1,-2 -1,-3 -1,0 -2,0 -3,0 0,0 -1,0 -2,0 -1,1 -1,2 -1,3 -1,1 -1,2 -1,3 0,2 0,4 0,5 0,2 0,4 0,5 0,1 0,3 1,4 0,1 0,2 1,2 1,1 2,1 2,1 1,0 2,0 3,-1 0,0 1,-1 1,-2 1,-1 1,-3 1,-4 0,-1 0,-3 0,-5zm25 -10c1,0 2,-1 3,-1 1,-1 3,-1 4,-2 1,-1 1,-1 2,-2 1,-1 2,-1 3,-2l5 0 0 35 -7 0 0 -25c-1,0 -2,1 -4,1 -1,1 -2,2 -3,2l-3 -6zm41 0c1,0 2,-1 3,-1 1,-1 2,-1 3,-2 1,-1 2,-1 3,-2 1,-1 2,-1 3,-2l5 0 0 35 -8 0 0 -25c-1,0 -2,1 -3,1 -1,1 -2,2 -4,2l-2 -6zm41 0c1,0 2,-1 3,-1 1,-1 2,-1 3,-2 1,-1 2,-1 3,-2 1,-1 2,-1 2,-2l6 0 0 35 -8 0 0 -25c-1,0 -2,1 -3,1 -2,1 -3,2 -4,2l-2 -6zm64 10c0,6 -1,11 -3,14 -3,3 -6,4 -10,4 -4,0 -7,-1 -9,-4 -2,-3 -3,-8 -3,-14 0,-3 0,-5 1,-8 0,-2 1,-4 2,-5 1,-2 3,-3 4,-4 2,-1 3,-1 5,-1 4,0 7,2 10,5 2,3 3,7 3,13zm-8 0c0,-1 0,-3 0,-5 0,-1 0,-2 -1,-3 0,-1 -1,-2 -1,-3 -1,0 -2,0 -3,0 -1,0 -1,0 -2,0 -1,1 -1,2 -2,3 0,1 0,2 0,3 -1,2 -1,4 -1,5 0,2 0,4 1,5 0,1 0,3 0,4 1,1 1,2 2,2 1,1 1,1 2,1 1,0 2,0 3,-1 0,0 1,-1 1,-2 1,-1 1,-3 1,-4 0,-1 0,-3 0,-5zm49 0c0,6 -2,11 -4,14 -2,3 -5,4 -9,4 -4,0 -7,-1 -9,-4 -3,-3 -4,-8 -4,-14 0,-3 1,-5 1,-8 1,-2 2,-4 3,-5 1,-2 2,-3 4,-4 1,-1 3,-1 5,-1 4,0 7,2 9,5 2,3 4,7 4,13zm-8 0c0,-1 0,-3 0,-5 -1,-1 -1,-2 -1,-3 -1,-1 -1,-2 -2,-3 0,0 -1,0 -2,0 -1,0 -2,0 -2,0 -1,1 -2,2 -2,3 0,1 -1,2 -1,3 0,2 0,4 0,5 0,2 0,4 0,5 0,1 1,3 1,4 0,1 1,2 2,2 0,1 1,1 2,1 1,0 2,0 2,-1 1,0 1,-1 2,-2 0,-1 0,-3 1,-4 0,-1 0,-3 0,-5zm48 0c0,6 -1,11 -3,14 -2,3 -5,4 -9,4 -4,0 -7,-1 -10,-4 -2,-3 -3,-8 -3,-14 0,-3 0,-5 1,-8 1,-2 1,-4 3,-5 1,-2 2,-3 3,-4 2,-1 4,-1 6,-1 4,0 7,2 9,5 2,3 3,7 3,13zm-7 0c0,-1 0,-3 -1,-5 0,-1 0,-2 0,-3 -1,-1 -1,-2 -2,-3 -1,0 -1,0 -2,0 -1,0 -2,0 -3,0 0,1 -1,2 -1,3 -1,1 -1,2 -1,3 0,2 0,4 0,5 0,2 0,4 0,5 0,1 0,3 1,4 0,1 1,2 1,2 1,1 2,1 3,1 1,0 1,0 2,-1 1,0 1,-1 2,-2 0,-1 0,-3 0,-4 1,-1 1,-3 1,-5zm25 -10c1,0 2,-1 3,-1 1,-1 2,-1 3,-2 1,-1 2,-1 3,-2 1,-1 1,-1 2,-2l5 0 0 35 -7 0 0 -25c-1,0 -2,1 -4,1 -1,1 -2,2 -3,2l-2 -6zm64 10c0,6 -1,11 -4,14 -2,3 -5,4 -9,4 -4,0 -7,-1 -9,-4 -2,-3 -4,-8 -4,-14 0,-3 1,-5 1,-8 1,-2 2,-4 3,-5 1,-2 2,-3 4,-4 1,-1 3,-1 5,-1 4,0 7,2 9,5 3,3 4,7 4,13zm-8 0c0,-1 0,-3 0,-5 0,-1 -1,-2 -1,-3 0,-1 -1,-2 -2,-3 0,0 -1,0 -2,0 -1,0 -2,0 -2,0 -1,1 -1,2 -2,3 0,1 0,2 -1,3 0,2 0,4 0,5 0,2 0,4 0,5 1,1 1,3 1,4 1,1 1,2 2,2 0,1 1,1 2,1 1,0 2,0 2,-1 1,0 2,-1 2,-2 0,-1 1,-3 1,-4 0,-1 0,-3 0,-5zm48 0c0,6 -1,11 -3,14 -2,3 -5,4 -9,4 -4,0 -7,-1 -9,-4 -3,-3 -4,-8 -4,-14 0,-3 0,-5 1,-8 1,-2 2,-4 3,-5 1,-2 2,-3 4,-4 1,-1 3,-1 5,-1 4,0 7,2 9,5 2,3 3,7 3,13zm-7 0c0,-1 0,-3 -1,-5 0,-1 0,-2 0,-3 -1,-1 -1,-2 -2,-3 0,0 -1,0 -2,0 -1,0 -2,0 -3,0 0,1 -1,2 -1,3 0,1 -1,2 -1,3 0,2 0,4 0,5 0,2 0,4 0,5 0,1 1,3 1,4 0,1 1,2 1,2 1,1 2,1 3,1 1,0 2,0 2,-1 1,0 1,-1 2,-2 0,-1 0,-3 0,-4 1,-1 1,-3 1,-5zm48 0c0,6 -1,11 -3,14 -3,3 -6,4 -10,4 -3,0 -7,-1 -9,-4 -2,-3 -3,-8 -3,-14 0,-3 0,-5 1,-8 0,-2 1,-4 2,-5 1,-2 3,-3 4,-4 2,-1 4,-1 5,-1 4,0 7,2 10,5 2,3 3,7 3,13zm-8 0c0,-1 0,-3 0,-5 0,-1 0,-2 -1,-3 0,-1 -1,-2 -1,-3 -1,0 -2,0 -3,0 0,0 -1,0 -2,0 0,1 -1,2 -1,3 -1,1 -1,2 -1,3 0,2 0,4 0,5 0,2 0,4 0,5 0,1 0,3 1,4 0,1 1,2 1,2 1,1 2,1 2,1 1,0 2,0 3,-1 0,0 1,-1 1,-2 1,-1 1,-3 1,-4 0,-1 0,-3 0,-5zm49 0c0,6 -1,11 -4,14 -2,3 -5,4 -9,4 -4,0 -7,-1 -9,-4 -2,-3 -3,-8 -3,-14 0,-3 0,-5 0,-8 1,-2 2,-4 3,-5 1,-2 2,-3 4,-4 2,-1 3,-1 5,-1 4,0 7,2 9,5 3,3 4,7 4,13zm-8 0c0,-1 0,-3 0,-5 0,-1 -1,-2 -1,-3 0,-1 -1,-2 -1,-3 -1,0 -2,0 -3,0 -1,0 -2,0 -2,0 -1,1 -1,2 -2,3 0,1 0,2 0,3 -1,2 -1,4 -1,5 0,2 0,4 1,5 0,1 0,3 0,4 1,1 1,2 2,2 0,1 1,1 2,1 1,0 2,0 3,-1 0,0 1,-1 1,-2 0,-1 1,-3 1,-4 0,-1 0,-3 0,-5zm48 0c0,6 -1,11 -3,14 -2,3 -5,4 -9,4 -4,0 -7,-1 -9,-4 -3,-3 -4,-8 -4,-14 0,-3 1,-5 1,-8 1,-2 2,-4 3,-5 1,-2 2,-3 4,-4 1,-1 3,-1 5,-1 4,0 7,2 9,5 2,3 3,7 3,13zm-7 0c0,-1 0,-3 0,-5 -1,-1 -1,-2 -1,-3 -1,-1 -1,-2 -2,-3 0,0 -1,0 -2,0 -1,0 -2,0 -2,0 -1,1 -2,2 -2,3 0,1 -1,2 -1,3 0,2 0,4 0,5 0,2 0,4 0,5 0,1 1,3 1,4 0,1 1,2 2,2 0,1 1,1 2,1 1,0 2,0 2,-1 1,0 1,-1 2,-2 0,-1 0,-3 1,-4 0,-1 0,-3 0,-5zm48 0c0,6 -1,11 -3,14 -2,3 -5,4 -9,4 -4,0 -7,-1 -10,-4 -2,-3 -3,-8 -3,-14 0,-3 0,-5 1,-8 0,-2 1,-4 2,-5 2,-2 3,-3 4,-4 2,-1 4,-1 6,-1 4,0 7,2 9,5 2,3 3,7 3,13zm-7 0c0,-1 -1,-3 -1,-5 0,-1 0,-2 -1,-3 0,-1 0,-2 -1,-3 -1,0 -1,0 -2,0 -1,0 -2,0 -3,0 0,1 -1,2 -1,3 -1,1 -1,2 -1,3 0,2 0,4 0,5 0,2 0,4 0,5 0,1 0,3 1,4 0,1 1,2 1,2 1,1 2,1 3,1 1,0 1,0 2,-1 1,0 1,-1 1,-2 1,-1 1,-3 1,-4 0,-1 1,-3 1,-5zm25 -10c0,0 2,-1 3,-1 1,-1 2,-1 3,-2 1,-1 2,-1 3,-2 0,-1 1,-1 2,-2l5 0 0 35 -7 0 0 -25c-1,0 -2,1 -4,1 -1,1 -2,2 -3,2l-2 -6zm-334 113c1,0 2,-1 3,-1 1,-1 2,-1 3,-2 1,-1 2,-1 3,-2 1,-1 2,-1 2,-2l6 0 0 35 -8 0 0 -25c-1,0 -2,1 -3,1 -2,1 -3,1 -4,2l-2 -6zm64 10c0,6 -1,11 -3,14 -3,3 -6,4 -10,4 -4,0 -7,-1 -9,-4 -2,-3 -3,-8 -3,-14 0,-3 0,-5 1,-8 0,-2 1,-4 2,-5 1,-2 3,-3 4,-4 2,-1 3,-1 5,-1 4,0 7,2 10,5 2,3 3,7 3,13zm-8 0c0,-2 0,-3 0,-5 0,-1 0,-2 -1,-3 0,-1 -1,-2 -1,-3 -1,0 -2,-1 -3,-1 -1,0 -1,1 -2,1 -1,1 -1,2 -2,3 0,1 0,2 0,3 -1,2 -1,3 -1,5 0,2 0,4 1,5 0,1 0,3 0,4 1,1 1,2 2,2 1,1 1,1 2,1 1,0 2,0 3,-1 0,0 1,-1 1,-2 1,-1 1,-3 1,-4 0,-1 0,-3 0,-5zm49 0c0,6 -2,11 -4,14 -2,3 -5,4 -9,4 -4,0 -7,-1 -9,-4 -2,-3 -4,-8 -4,-14 0,-3 1,-5 1,-8 1,-2 2,-4 3,-5 1,-2 2,-3 4,-4 1,-1 3,-1 5,-1 4,0 7,2 9,5 2,3 4,7 4,13zm-8 0c0,-2 0,-3 0,-5 0,-1 -1,-2 -1,-3 0,-1 -1,-2 -2,-3 0,0 -1,-1 -2,-1 -1,0 -2,1 -2,1 -1,1 -1,2 -2,3 0,1 -1,2 -1,3 0,2 0,3 0,5 0,2 0,4 0,5 0,1 1,3 1,4 1,1 1,2 2,2 0,1 1,1 2,1 1,0 2,0 2,-1 1,0 2,-1 2,-2 0,-1 1,-3 1,-4 0,-1 0,-3 0,-5zm25 -10c1,0 2,-1 3,-1 1,-1 2,-1 3,-2 1,-1 2,-1 3,-2 1,-1 2,-1 2,-2l6 0 0 35 -8 0 0 -25c-1,0 -2,1 -3,1 -1,1 -3,1 -4,2l-2 -6zm64 10c0,6 -1,11 -3,14 -3,3 -6,4 -10,4 -4,0 -7,-1 -9,-4 -2,-3 -3,-8 -3,-14 0,-3 0,-5 1,-8 0,-2 1,-4 2,-5 1,-2 3,-3 4,-4 2,-1 4,-1 5,-1 4,0 7,2 10,5 2,3 3,7 3,13zm-8 0c0,-2 0,-3 0,-5 0,-1 0,-2 -1,-3 0,-1 -1,-2 -1,-3 -1,0 -2,-1 -3,-1 -1,0 -1,1 -2,1 -1,1 -1,2 -1,3 -1,1 -1,2 -1,3 0,2 -1,3 -1,5 0,2 1,4 1,5 0,1 0,3 1,4 0,1 0,2 1,2 1,1 1,1 2,1 1,0 2,0 3,-1 0,0 1,-1 1,-2 1,-1 1,-3 1,-4 0,-1 0,-3 0,-5zm25 -10c1,0 2,-1 3,-1 1,-1 2,-1 3,-2 1,-1 2,-1 3,-2 1,-1 2,-1 3,-2l5 0 0 35 -7 0 0 -25c-1,0 -3,1 -4,1 -1,1 -2,1 -3,2l-3 -6z"/>
   <path fill="#999999" fill-rule="nonzero" d="M2887 1613c0,6 -1,11 -3,14 -2,3 -5,4 -9,4 -4,0 -7,-1 -9,-4 -3,-3 -4,-8 -4,-14 0,-3 1,-5 1,-8 1,-2 2,-4 3,-5 1,-2 2,-3 4,-4 1,-1 3,-1 5,-1 4,0 7,2 9,5 2,3 3,7 3,13zm-7 0c0,-2 0,-3 0,-5 -1,-1 -1,-2 -1,-3 -1,-1 -1,-2 -2,-3 0,0 -1,-1 -2,-1 -1,0 -2,1 -3,1 0,1 -1,2 -1,3 0,1 -1,2 -1,3 0,2 0,3 0,5 0,2 0,4 0,5 0,1 1,3 1,4 0,1 1,2 1,2 1,1 2,1 3,1 1,0 2,0 2,-1 1,0 1,-1 2,-2 0,-1 0,-3 1,-4 0,-1 0,-3 0,-5zm25 -10c1,0 2,-1 3,-1 1,-1 2,-1 3,-2 1,-1 2,-1 3,-2 1,-1 2,-1 2,-2l6 0 0 35 -8 0 0 -25c-1,0 -2,1 -3,1 -2,1 -3,1 -4,2l-2 -6zm-92 113c1,0 2,-1 3,-1 1,-1 2,-1 3,-2 1,-1 2,-1 3,-2 1,-1 2,-1 3,-2l5 0 0 35 -7 0 0 -25c-1,0 -3,1 -4,1 -1,1 -2,1 -3,2l-3 -6zm64 10c0,6 -1,11 -3,14 -2,3 -5,4 -9,4 -4,0 -7,-1 -9,-4 -3,-3 -4,-8 -4,-14 0,-3 0,-5 1,-8 1,-2 1,-4 3,-5 1,-2 2,-3 4,-4 1,-1 3,-1 5,-1 4,0 7,2 9,5 2,3 3,7 3,13zm-7 0c0,-2 0,-3 -1,-5 0,-1 0,-2 0,-3 -1,-1 -1,-2 -2,-3 -1,0 -1,-1 -2,-1 -1,0 -2,1 -3,1 0,1 -1,2 -1,3 0,1 -1,2 -1,3 0,2 0,3 0,5 0,2 0,3 0,5 0,1 1,3 1,4 0,1 1,2 1,2 1,1 2,1 3,1 1,0 1,0 2,-1 1,0 1,-1 2,-2 0,-1 0,-3 0,-4 1,-2 1,-3 1,-5zm25 -10c1,0 2,-1 3,-1 1,-1 2,-1 3,-2 1,-1 2,-1 3,-2 1,-1 1,-1 2,-2l5 0 0 35 -7 0 0 -25c-1,0 -2,1 -3,1 -2,1 -3,1 -4,2l-2 -6zm40 0c1,0 2,-1 3,-1 1,-1 3,-1 4,-2 1,-1 1,-1 2,-2 1,-1 2,-1 3,-2l5 0 0 35 -7 0 0 -25c-1,0 -2,1 -4,1 -1,1 -2,1 -3,2l-3 -6z"/>
  </g>
  <path fill="#999999" fill-rule="nonzero" d="M1461 2226c10,0 18,2 25,5 7,3 13,8 18,14 5,6 8,13 10,20 2,8 4,17 4,26 0,14 -3,27 -8,39 -5,13 -12,23 -21,33 -9,9 -20,16 -32,21 -12,6 -25,8 -39,8 -2,0 -5,0 -9,0 -5,0 -10,0 -16,-1 -6,-1 -12,-2 -19,-4 -6,-1 -12,-4 -18,-6l52 -220 47 -7 -19 78c4,-2 8,-4 12,-5 4,-1 9,-1 13,-1zm-39 129c7,0 14,-1 20,-5 6,-3 12,-8 16,-14 5,-5 8,-12 11,-19 2,-7 4,-15 4,-23 0,-10 -2,-17 -5,-23 -3,-5 -9,-8 -18,-8 -3,0 -6,1 -11,2 -4,1 -9,3 -12,6l-20 83c1,0 2,0 3,1 1,0 2,0 3,0 1,0 2,0 4,0 1,0 3,0 5,0zm152 33l-44 0 37 -159 45 0 -38 159zm22 -178c-6,0 -12,-2 -17,-6 -5,-3 -7,-9 -7,-17 0,-4 0,-8 2,-12 2,-4 4,-7 7,-9 3,-3 6,-5 10,-7 4,-2 8,-2 12,-2 6,0 12,1 17,5 5,4 7,10 7,17 0,5 -1,9 -2,12 -2,4 -4,7 -7,10 -3,3 -6,5 -10,6 -4,2 -8,3 -12,3zm62 -20l47 -8 -11 47 50 0 -9 37 -50 0 -13 56c-2,4 -2,9 -3,13 0,4 1,7 2,10 1,3 4,5 7,7 3,2 7,2 13,2 5,0 10,0 14,-1 5,-1 9,-2 14,-4l3 35c-6,2 -12,4 -19,5 -8,2 -16,3 -26,3 -13,0 -24,-2 -32,-6 -8,-5 -13,-10 -16,-17 -3,-7 -5,-16 -4,-25 0,-9 1,-19 4,-29l29 -125zm87 135c0,-14 3,-27 7,-39 5,-12 11,-23 19,-32 8,-9 18,-16 30,-21 12,-5 25,-8 40,-8 9,0 17,1 24,3 7,1 14,3 19,6l-15 35c-4,-1 -8,-3 -12,-4 -5,-1 -10,-2 -16,-2 -15,0 -27,5 -36,15 -9,10 -13,24 -13,42 0,10 2,18 7,25 4,6 12,9 24,9 6,0 12,0 17,-1 5,-2 10,-3 15,-5l3 36c-6,2 -12,4 -19,6 -6,2 -15,2 -24,2 -13,0 -23,-1 -32,-5 -9,-4 -16,-9 -22,-15 -5,-6 -9,-13 -12,-21 -2,-9 -4,-17 -4,-26zm201 67c-11,0 -20,-1 -28,-4 -8,-4 -14,-8 -19,-14 -6,-6 -9,-13 -12,-21 -3,-8 -4,-17 -4,-26 0,-12 2,-24 6,-36 4,-13 10,-23 17,-33 8,-10 17,-18 28,-24 11,-6 24,-9 38,-9 11,0 20,2 28,5 8,3 15,8 20,13 5,6 9,13 11,21 3,8 4,17 4,27 0,12 -2,24 -5,36 -4,12 -10,23 -17,32 -8,10 -17,18 -28,24 -11,6 -24,9 -39,9zm22 -129c-6,0 -12,2 -17,6 -5,4 -10,8 -13,14 -3,6 -6,13 -8,19 -1,7 -2,14 -2,20 0,11 1,18 5,24 3,6 9,8 17,8 7,0 13,-2 18,-5 5,-4 9,-9 12,-15 4,-6 6,-12 8,-19 2,-7 3,-14 3,-20 0,-10 -2,-18 -5,-24 -3,-5 -9,-8 -18,-8zm124 125l-45 0 38 -159 45 0 -38 159zm22 -178c-6,0 -12,-2 -17,-6 -5,-3 -8,-9 -8,-17 0,-4 1,-8 3,-12 2,-4 4,-7 7,-9 3,-3 6,-5 10,-7 3,-2 7,-2 12,-2 6,0 11,1 16,5 6,4 8,10 8,17 0,5 -1,9 -3,12 -1,4 -4,7 -6,10 -3,3 -6,5 -10,6 -4,2 -8,3 -12,3zm56 26c3,-1 7,-2 11,-3 4,-1 9,-3 14,-4 5,-1 11,-2 17,-2 6,-1 14,-1 22,-1 23,0 40,6 49,20 8,14 10,33 4,56l-20 86 -45 0 19 -84c2,-5 3,-10 3,-15 1,-5 1,-9 0,-13 -1,-4 -2,-7 -5,-9 -3,-3 -8,-4 -14,-4 -6,0 -12,1 -18,2l-29 123 -45 0 37 -152z"/>
  <path fill="white" fill-rule="nonzero" d="M1671 738c0,-54 0,-108 1,-162 33,1 67,0 100,0 1,54 0,108 1,162 22,0 43,0 65,0 1,-54 0,-108 1,-162 33,1 66,1 99,0 2,55 1,109 1,164 63,7 127,20 180,57 39,27 66,72 65,120 5,62 -29,126 -84,154 48,15 94,45 116,92 16,26 19,58 18,88 0,63 -20,130 -69,171 -62,51 -148,60 -225,57 -2,55 0,110 -2,165 -33,2 -66,0 -99,1 0,-47 -1,-95 0,-142 -1,-8 1,-16 -2,-23 -21,-1 -43,0 -64,-1 -1,55 0,111 -1,166 -34,0 -67,0 -100,0 -1,-55 0,-110 -1,-165 -64,-1 -129,0 -193,-1 1,-35 2,-70 4,-105 29,0 59,1 88,-2 17,-6 27,-24 26,-41 1,-147 0,-294 0,-440 1,-12 -1,-23 -5,-34 -8,-5 -17,-12 -27,-13 -31,-1 -62,0 -92,0 -2,-36 -2,-71 0,-106 66,0 133,0 199,0zm101 413c1,71 0,142 1,212 41,-1 83,0 125,0 27,0 55,-7 80,-17 28,-13 49,-39 58,-68 4,-26 8,-55 -8,-78 -25,-35 -71,-45 -112,-49 -48,0 -96,-2 -144,0zm1 -105c39,0 78,0 116,0 36,1 71,-18 89,-49 13,-25 18,-56 9,-84 -9,-27 -34,-43 -59,-52 -51,-15 -104,-10 -155,-12 -1,66 -1,132 0,197z"/>
 </g>
</svg>
